<mxfile host="app.diagrams.net" modified="2023-06-20T21:58:15.385Z" agent="Mozilla/5.0 (Macintosh; Intel Mac OS X 10_15_7) AppleWebKit/537.36 (KHTML, like Gecko) Chrome/114.0.0.0 Safari/537.36" etag="lOWMI-URpZe66j78Pl-G" version="21.3.8" type="github">
  <diagram name="第 1 页" id="0USCelJhMuCCB3hwgEce">
    <mxGraphModel dx="954" dy="623" grid="1" gridSize="10" guides="1" tooltips="1" connect="1" arrows="1" fold="1" page="1" pageScale="1" pageWidth="827" pageHeight="1169" math="0" shadow="0">
      <root>
        <mxCell id="0" />
        <mxCell id="1" parent="0" />
        <mxCell id="4slyxXOM6MHCRde4LKaO-27" style="edgeStyle=orthogonalEdgeStyle;rounded=0;orthogonalLoop=1;jettySize=auto;html=1;entryX=0.5;entryY=1;entryDx=0;entryDy=0;" edge="1" parent="1" source="4slyxXOM6MHCRde4LKaO-25" target="4slyxXOM6MHCRde4LKaO-10">
          <mxGeometry relative="1" as="geometry" />
        </mxCell>
        <mxCell id="4slyxXOM6MHCRde4LKaO-29" style="edgeStyle=orthogonalEdgeStyle;rounded=0;orthogonalLoop=1;jettySize=auto;html=1;entryX=1;entryY=0.5;entryDx=0;entryDy=0;exitX=0.5;exitY=0;exitDx=0;exitDy=0;" edge="1" parent="1" source="4slyxXOM6MHCRde4LKaO-25" target="4slyxXOM6MHCRde4LKaO-14">
          <mxGeometry relative="1" as="geometry">
            <Array as="points">
              <mxPoint x="924" y="415" />
            </Array>
          </mxGeometry>
        </mxCell>
        <mxCell id="4slyxXOM6MHCRde4LKaO-25" value="" style="rounded=1;whiteSpace=wrap;html=1;fillColor=none;" vertex="1" parent="1">
          <mxGeometry x="739.36" y="550" width="370" height="170" as="geometry" />
        </mxCell>
        <mxCell id="4slyxXOM6MHCRde4LKaO-14" value="" style="rounded=1;whiteSpace=wrap;html=1;fillColor=none;" vertex="1" parent="1">
          <mxGeometry x="90" y="330" width="370" height="170" as="geometry" />
        </mxCell>
        <mxCell id="4slyxXOM6MHCRde4LKaO-16" style="edgeStyle=orthogonalEdgeStyle;rounded=0;orthogonalLoop=1;jettySize=auto;html=1;" edge="1" parent="1" source="4slyxXOM6MHCRde4LKaO-12" target="4slyxXOM6MHCRde4LKaO-15">
          <mxGeometry relative="1" as="geometry" />
        </mxCell>
        <mxCell id="4slyxXOM6MHCRde4LKaO-12" value="" style="rounded=1;whiteSpace=wrap;html=1;fillColor=none;" vertex="1" parent="1">
          <mxGeometry x="90" y="70" width="370" height="170" as="geometry" />
        </mxCell>
        <mxCell id="4slyxXOM6MHCRde4LKaO-1" value="" style="shape=image;verticalLabelPosition=bottom;verticalAlign=top;imageAspect=0;image=data:image/png,iVBORw0KGgoAAAANSUhEUgAAAV8AAAHDCAYAAACDERm5AAAACXBIWXMAAA7DAAAOwwHHb6hkAAAAGXRFWHRTb2Z0d2FyZQB3d3cuaW5rc2NhcGUub3Jnm+48GgAAG6lJREFUeJzt3XeUZFWdwPHvdE9mgBkykgQBAQdZDqCoCIgEI4tZ14BHl8UcUESP7rricdUVFVnXgLoiJsS8IiJIMIwYcABJwohKdiQ4OfZM7x/39U7T011ddd9971bV+37OeWe6q+veujU98+tf/94NU0hnT+ANwJwJvj4d2CLh66U0AGydexAtbE0YYzeaA0zLPYg2zMs9gJK6+d/oBmBZ4j7XASsj2w4By0d9vgJYX3w8dqyriueuAJYUX1tRPHY/sAj4W+Q4WpqSoI/tgHcDryMEWEnqJ8sIQfgy4DvAb1N0Wib4zgBOA86ge38iS1Jq1wFnAxcAa2M7iQ2+zyxefO/YF5akHncHIfm8EBjutHGnwXcL4OPAKZ2+kCT1qZ8DrwL+2EmjwQ6euy9wJXBCJy8gSX1uD0LwvR9Y2G6jdoPvMcClwG6dj0uS+t504ERCIP4RYVZFS+2UHZ4BfBuYWWpoktQMVwHPBf7e6kmTBd+nA9/DKWSS1ImFwLG0CMCtgu8hhAg+0aIJSdLErgGOIyze2MxEwXcn4NriT0lSnMsIpduhsV8Y74bbAKHGe1DFg5KkfvcowiK0S8Z+Ybzg+zbgNVWPSJIa4nDgJuDm0Q+OLTvsUTypWzfAkaRe9AAwH1g88sDY4Ptd4KSEL7iUEMwfLK5lwOria8sJdZBhNi9IL2Hi5XprRvUxnlbTO1YX7WOtosRa7hLWFq+dwlRgy0R9dbMtqH+Wzizqn5I5A5hdw+u0896mAHPb6Gs2YdyttLuLW6vv89xiTKP7msamSQQzCe9rRvHcqpPOrwP/NN4XDgM2EoJe2evPhBUfdfyjkKQUpgHbE/asORR4FvBm4KuExLFsXNxImEW2mYsTdL4OeA8uyJDUX7YDLqJ8jPzx2I4PonzW+0cmiOqS1AcGgc9TPgAfNrrTr5Xs7Bpgx0reriR1j0Hgm5SLlxeOdLYn4YiN2I6uA7ap7r1KUleZSViEFhszh4B9AP67RCc3EWohktQk+xFmT8XGzk9BmMIU03gRsHPlb1GSutOZxAffVZRofHoNb06SutW2lCjZdutx5JLU7R4Ero5tXCb4DpdoK0n94JbYhma+khTvntiGZr6SFC9L8JWkpjP4SlIGK2IbWnaQpHgrYxua+UpSvOh9ts18JSleluArSU2Xpexg5iup6cx8JSmDNcCGmIYGX0kqJ+pQXssOklTOUEwjM19JKqf24GvmK0lmvpKUxfqYRgZfSSrHsoMkZWDZQZIyqL3sYOYrSWa+kpSFNV9JysDZDpKUgWUHScrAG26SlEFULDTzlaRyag++Zr6SZOYrSVmY+UpSBhtjGpn5SlI5lh0kKQPLDpKUgZmvJGVg5itJGZj5SlIGznaQpAwsO0hSBpYdJCkDM19JysDMV5IyMPOVpAzMfCUpA6eaSVIGlh0kKQPLDpKUgZmvJGVg5itJGZj5SlIGznaQpAwsO0hSBpYdJCkDM19JysDMV5IyMPOVpAwMvpKUQe1TzSw7SJKZryRl4Q03ScrAzFeSMjDzlaQMzHwlKQM31pGkDCw7SFIGlh0kKQMzX0nKwMxXkjKIDr6xGayZryQ520GSsrDsIEkZeMNNkjIw85WkDNzPV5J6hZmvJGVg8JWkDCw7SFIGZr6SlIGZryRlYOYrSRmY+UpSBma+kpSBwVeSynFvB0nqFWa+kpSBma8kZWDmK0kZmPlKUgZmvpKUgcFXkjKw7CBJGZj5SlIGZr6SVI4HaEpSrzD4SlIGlh0kKQMzX0nKwMxXkjIw85WkDMx8JSkDM19JysDgK0nleIyQJPUKM19JysDMV5IyMPOVpAzMfCUpAzNfScrA4CtJGVh2kKQMzHwlKQMzX0kqx2OEJKlXGHwlKQPLDpKUgZmvJGVg5itJGZj5SlIGZr6SlIGZryRlYPCVpHKiF1lYPpCqMQBMzz0IdaepJdoatOszCGyVexCZDQHLcw9iHFOBA4HDgUOAvYG9gO2BmcVz1gDLgKXAHcCi4roVuBa4r94hqxuUCb6qz6OBm3IPIrMrgWNyD4Lwf+Yo4ATg8cChwOxJ2swsrh2AfYBjx3z9DuBXxXUVcD0mN33P4CtNbgZwHPBc4ERg28T971FcLyo+vw/4UXFdSsia1WcsO0gTOwh4A/BC6i377Ay8qrjWABcDXwN+WHyu7uKuZlIihxAyzuuAfyZvvX0mIeP+FrAYOBd4bMbxKBEXWUibzAE+A/yWUGboNlsBpxBqwj8FXkC4GaseZOYrBfsBC4FTgSmZx9KOI4ELCTdiX4T/l3uOma8ETwSuJsxE6DWPBi4g/OAYO4tCXcyflmq6w4FLgLm5B1LSQYQ69eeArTOPRW0w+KrJ9gS+D2yZeyCJTCHcILyBMP9YXcyyg5pqEPg6YeFDv9kNuBzYMfdANDEzXzXV6YQVav1qFr1x47CxBoj/Bpn5qlftD7w39yAqdh7w19yD0MTc1UxNdDabNr3pR0uA9+UeRIPUvsLNoK1edDDduYAipTcD9+QeRINEVQ8Mvmqa99DftdCLgPNzD0KTKxN8+/kfsPrTXsBJuQdRoQcIy49Vr6hE1F3NmmcDvblF4YoEfTyPamb4rAJ+CSwAbgPuJGwLuY4w7nmEhQ+7EFak7Qc8ATiAtEnMv+BNtp6ygRBIO72elGOwDXUAcd+j8a6FNY+9mywg3d/jMHA3IdOMXaSxLWFfhm8QfiCWGcv/RI5B5Z1J3PcsOvg+sZa3JTD4prAT8f/Wx7suJu0y3tnAKwkZdKdjuZ3+WaXXi6KCr4ss1BRHka7kcBPwfMKZbKmsIszNfSKhJPHDNtttAF5Bd55vpxYMvmqKAxL29e+EYFmVXwHPIqzAu3qS536IUE5Rj3GqmZoiVfBdS/tZaVm/IdxbeTnj30i7nP5fqdcLomKhma+aIlXwvQVYnaivdgwDXyEsif40sLF4/HeEm3UbahyLEjLzVVNsn6ifBxP106klwOuA+YQz3Y7MOBYl4NHxaorpifrZOPlTKnVLcanHmfmqKaYl6mebRP2o4az5qilSBd/5hFOOpVIMvmqKVEuqZxAWQ0ilWHZQU6Tc8+CDwGEJ+1MDmfmqKRYl7GsOcBXwavw/pEhmvmqKGxL3Nxv4PGGvjOfgzCF1yJ/aaorJlunGOgj4DnAH8H7SLmNWb6h9hZuZr3rJAmB9hf0/gnBKxk2EEsdZhIUQgxW+pnqYma+aYhlwZU2vtTfwNuCnhBt95xFWpW1R0+urB1inap5BwskK3WyIarZIvAA4voJ+W9kOOLm41gBXAD8gnLV2d81jUZeJ3WD6kByDbaiUm6n3wnVVkr+1zc0inHOW+/2NXDcRtoQ8As9E7GXvw83UpZZWA5/IPYhRDgDOAH5OOPfto8A/ZB2RYtR+w03qRR8D7s09iHHsCpwGXEuYFveO4jH1KWc7qGlWAq/JPYhJzAc+TJi+dhlwIiZK3SyqZOQ3VE30A+Cc3INowwBwLPB94EbCiroZWUekZAy+aqq3Ud9xQCnsT1hR9xdCnXhW1tGoNMsOaqoh4HmEKV+9ZCfCDIlbgZdmHotKMPNVk60lLH74ZO6BRNiNcLbbJcDumceiCAZfNd164I3AywjnpPWaE4DrgWfnHog6Y9lBCr4KHEjYJKfXzCXclHtn7oGofWa+0iZ3E+rAxwK/zjyWTk0hbPL+H7kH0kDRU83MYKWHuxw4HHgK8CN66//IuwiLNdTlLDtIE7sKeAZwMPBlwvLkXvARwg8OdTHLDtLkrgdeAexIODzzJ8DGnAOaxADhh8WWuQeiiRl8pfYtB74EHEeY3nU68Bu6MxDvArw79yA0sQHit7Kz7KAmu4dwWsXjCRnxCwnZZjdNV3szYVGGqhUVQ6diEG2aDYRTHbpZFRupV+kB4JvFNY2wP+8zgKcDj8k4rpnAqYT9ZlWd6Bg6RNxG0AeWG686kHIz9YU1j73pdgNOAb4FLKX+Ddtvx43aq/Z+3Exd6jp3AZ8Dng/sADwL+CLwUE2vvxdwaE2vpQ4YfKX6rCXspPYqQp34ucCPqf6G3XEV968IzvOV8hgCvgs8DdiHcLOuqiD85Ir6VQlmvlJ+fyLMIz6UcKhmavMr6FMlGXyl7nEt8ATCkuaUdgG2TtynSrLsIHWX5cCLCbMUUplCmHWhaniGm9QnlgFvT9zn3MT9qSSDr9SdfkhYvJGKwbfLWHaQ4BPAmXTXycDrgWsS9uf/1y5j5qumOwN4E/CvwHWEpcHd4raEfa1K2JcSMPiqyV5MOP1hxH7AT4FPAVtlGdHDpdykZ0XCvpSAZQc11ZHAeWx+p3oAeC1hvu0Lx/l6ndYm7OuOhH0pATNfNdH+wPdoXePdFfgG8DPy7Y2wRaJ+lgN/S9SXNudUM6kNOwEXA/PafP4RhMM0vwg8sqIxjWcK4Vj4FG5O1I8SsuygJpkDXETnQXSAcHzQH4ELCYdrVmkA+DBwSKL+fp6oHyVk5qummApcQLmANgi8ALgaWACcTPsZdLv2BK4gHFGUys8S9qVEpuYegGo3SPqAUZch4k+5+CTwzIRjeWJxrSMcNf8tQjnjr5H97QG8EXgdMCvFAAsrCcFcXaZM8LXs0JseS30bead2JXBMRLt3EY7TqcJ0wnFBTy8+v4OQGf8GuBG4D7ifcMNrmPB/bkvCD8B9gcMI++0+iWp+E/0+IQCry5j5qt+9FPhAja+3R3G9eMzjG4preo1jAfhqza+nNk3F04vVv44EvkB3nGE2WFx1ugW4pObXbCKnmkmjHMDkc3n73Qep/ogiRRrADFb9aWvCzbCmugH4eu5BaGIDWHZQf7qaMK3sN7kHksEwYbOgodwD0cTMfNXP7gGOBs7PPI66nQtclXsQas3MV/1uNWExxMk0Y1vF64C35h5Ew0TfcDOIqgnOJ2yQ8+vcA6nQn4ETCT9wVJ+oGOpsBzXJLYTFDG8F/p55LKn9BXgKcFfmcTSRU82kNmwAzgb2Bj5G2j1zc/kFYbMf9+ztIe5qpqZ6CHgbYW/fC+jNf88bgY8DTwUWZx6LOmTmq6b7M/AS4DHAp+md43b+ABwFnEaz5zP3LIOvFNxC2FFsV0JAuz3vcCZ0L/Aa4EBCuUE9yrKD9HBLCb/K7wscT5gz2w1H8PweeBWwF/BZXEDR88x8pfFtBC4jbEX5CMKv+J8A7qxxDHcTfhA8DjiIcJRRP9wgFGFXMzNYqbUNhNMgfga8hXDE/BHAkwlLmPcFpiV4nbuAhcXrXErYD1jdL2qqmZup94ab6Y5tERX8obg+X3w+nTBrYm9CzXh3YEfCpulbAlsVz1tFyFyXEGZb/JVww+9PhJrz/fUMX93A/Xyl8tYB1xeX1BZrvpJUjivcJKlXONVMkjJwVzNJysCygyRlYNlBkjIw85WkDAy+klRO7VPNLDtIUiQzX0nKwOArSRlYdpCkDMx8JSkDg68kZWDZQZLKiZ5qZhCVpJqZ+UpSBtZ8JSkDg68kZWDZQZIyMPOVpAwMvpJUjruaSVKvMPOVpAwMvpKUgWUHScrA5cWSlIFlB0nKwLKDJJVT+1QzSVIkg68kZWDZQZIyMPOVpAwMvpKUgfN8JSmDASKnSWDQliSIrCBYdpCkctxSUpIy8Oh4ScrAFW6SlEHtNV8zZkky85WkLAy+kpSBwVeSMqi95hu7OEOS+kntma/BV5IMvpKUhWUHScrAzFeSMqh9ebHBV5LMfCUpC2u+kpRB7ZmvCzQkybKDJGVh2UGSMjDzlaQMDL6SlIHBV5IysOYrSRmY+UpSBgZfScqg9r0dXGQhSdZ8JSkLyw6SlIHBV5IyMPhKUgbWfCUpAzNfScrA4CtJGVh2kKQMzHwlKQNXuElSBrVnvoMl2kpSv6i95jutRFtJ6he1Z74GX0ky+EpSFgZfScrAmq8kZWDmK0kZGHwlKQPLDpKUQe0r3KZHtpOkfhIdfGP3aJga2U6S+klUImrZQZLKiQ6+sWUHg68kRcbCMpmvNV9JyhB8zXwlyZqvJGVh5itJGZj5SlIG0Zmvsx0kKV508I1dZDE7sp0k9YspRC44K1N2mFOirST1g2lk2NvB4Cup6WbGNixTdjD4Smq6rWIbmvlKUrxSwTeWwVdS020Z27BM8J1boq0k9YMswXd74uvFktQPto5tWHaFm9mvpCbLkvlCyH4lqan2iG1YZrYDGHwlNdu+sQ3LzPMF2LNEW0nqdY+ObVg2842O+pLU47YCDohtXDbz3adEW0nqZc8DZpXpYBkh+425bivzwpLUowaA64iPncNQLvgOA7tX/S4lqcu8hHJxcxhgackOXl/1u5SkLjINWESC4LukZAe3E7mZsCT1oNdSPvAmCb7DwIeqfa+S1BV2AR4iUfBN0dFG4Iwq37EkZTYNuJI0gXcY4MGEnf0nbrYjqT99inSxchjggcQdfryyty5JeXyUtHGykuA7DPx7Ne9fkmo1AziP9DFyGOBvFXV8TjFwSepFB1F+IUXL4Lu4ws7vJtyIi17/LEk1mwucBaxj8hi3sY3njHtNAf4K7Njh4M4mrGk+hfb3BL4PuB74A2FZ8p3A/cXr3w+s7nAMkpTCALAbYaOwkwir1+a10e4y4AbgtJgXnUqR/nboVuAzwHeAr9Devr47F9fTJvj6CmB58ecywsq7FcDa4uONxfOWARuKj5cDQ6Pary8+Xkn4qQWwquhjrA1FX5Np93lDxXjU2nrC90rtm0L3nRozQNwROoPEnfg7jfEP7R37+OiguQUwvfh4bvH5nOKaV3w+j7A1bqcl0rOAdxZXlNjg+2Dx56XAwcAFwBGxgyiM/KVIUrdaRfiN/2tlO4o9Rmh05nIP8BTgv8oORpK62L3A0SQIvBAffNeN+XwIeBNwKpt+9ZekfnEdcDjw21QdDrCpltqJiQLsucBRwI3RI5Kk7rEO+ADwBOCulB3H1nxbZbdXE+bHPQ14JSFN96BNSb1iCPgd8APg84TpuMnFBt+xZYexNgIXF9cUYH/gMYRjh/YBHkkIyNsD21H+CHtJ6sRKQlBdTFhotqi4bgOuoYYZOVUF39GGgZuLazwDhCA8Mu1jZNbDFoTpIaOn2YydcjNvgo9H2o39eLR2p+90Ms2nnbmBUq9aQ3vz8UdP+2xl9BTSVn1MNI10oimlIx+vYfOpqysIWypkX1cQuwl6J8F3MhupKK2XpG6V+oabJKkNsbXWocmfIkmayABxNd+YNpKkQmzwjSlVSJIKZr6SlIGZryRlYPCVpAwsO0hSBma+kpSBwVeSMrDsIEkZmPlKUgaxy4vNfCWpBDNfScrA4CtJGXjDTZIyMPOVpAzMfCUpAzNfScrA4CtJGVh2kKQMYoKvgVeSSooJvpYcJKkkg68kZWDZQZIyMPOVpAym0juZ7yzgEOBxwA7FY0uBW4EFwOJM45KkjsUE37rtC7wBeAWw9QTP2QBcBZwD/G89w5KkchYQAnC71+qaxjUN+DdgbYfjWwA8uqYxSmq2d9NZfBp98YsOG6yp4Q1tC/y6xJtaBjyvhnFKarbo4BtzksWUBANuZQfgCkJtN9aWwDeAlyQZkSQlNkDnsxeqDL7TgUuAxyboaxD4EvCEBH1JUlIxU82qDL7vAQ5O2N804MvAnIR9SlJp3RR89wfeVUG/jwLeVEG/khStm4LvawlT36rwFmB2RX1LUse6JfjOAl7e4usbgW8DzwF2B7YBdiZky0cCpwM3t2i/PXBskpFKUiKX0/k0idQB+IgWr7UYeFIbfQwCZ7bo51OJxyxJpaaaxaxwSx1850/w+F3AkwkLJyazgbAo49wJvr5/xLgkqRLdEnwfNcHjpwC3ddjXO4B7xnl85w77kaTKdEvwXT/OY98BfhzR11LgfeM8XvXiEElqW8wKtyqMt2T5iyX6+yrw9zGPueuZpK4Rs8JtpF1KY0sLq4CflOhvFfC1MY8tKtGfJCU1QLhR1anUv8JfycPLH4spv4HP5WM+jylhSFIluiX4LgauHfX5kgR93jfq41XApQn6lKQkBoChiHZV3Lz68KiPU6xGmzfq48+SJqBLUhKxmW8VN+q+BdxYfLwX5TfDObr4cxXwkZJ9SVJS3ZT5biTM6x0i7EZ2Qom+5gAnFx+/nYeXICQpu26p+Y74FfD64uM3lujnvcCOhO0kP1N2UJJUhfPofF3yVhWP6c2ETPgfI9oeQ/iBchFhc3ZJqkqpM9y+ENFoolOEU3o1Yf7vzA7a7EqYOfEZQulCkqoUHXynElfzHSw/5kl9gbBHw/G0dxz8DOAMwrltV1Q4LkkqbSpxNd+6fp2/pIPnTiWcWBGzV4Uk1So2852ReiAJrMw9AElqV+xsh24MvpLUM2Ln+Rp8JakEM19JysDMV5IyiA2+ncy9lSSNMQCsi2hXxyILSepbA4Rdvzq1beqBSFKTDACrI9oZfCWphNjgu03qgUhSk5j5SlIGscF319QDkaQmiQ2+B6QeiCQ1SZnM1+lmkhQpNviC2a8kRRsA/h7Z9uiE45CkxplJOC+t02MwFuYYrCR1ie2ARZQ4ww3gwcjGx1b85iSpG80Cfkl84P3/4HtjZOPbgTmVvkVJ6i4DwLcpF3iXjnR2SYlOvk49B2pKUm5TgE9SLvAOA+8a6fDMkh2dR/hpIEn9agD4NOUD752EsgUA84m76Tb6ugiYV9GblqSctgV+SPnAOwy8YmznFybo9F7gxYTUXJL6wXMI2WqKwLuQcaoE+xFOtUj1Ai9jVGotST1kEHg2cAVpYuLI9dSRFxiboZ4LnJL4TSwfda0gnJyxctTXlxSDgrDabs2Y9mtpveH7UkLJZDxjX2u8sU10jNJQ8fWqTPa+Uprs7yGl9YTvc7+aRZ5jtKYCW2Z4XYC5lP9tdgtgeuRrTKP1rKpWfY/9e9uKTRMEZgCzxzxvXvHnHNInj98gVAaAzd/s1sDvgd0Tv6gkNdlDhC0ZFo88MLb2sBR4NZsyUUlSea9jVOCF8efn/omQbh9Rx4gkqc+dA5w19sGJaiwDwDeB51Y5Iknqc78AjiHcC3mYVkX02cCVwOMqGpQk9bObgScT6r2babUqbRVwArCggkFJUj+7gxA/xw28MPmS4CXA8cCPEw5KkvrZLcBRwN2tntTOhjjrCavf5mEJQpJaWUBIWO+b7IntboazDngjYZndkvhxSVLfOpdwc+3Bdp7c6U5k3wMOBr7fYTtJ6lergZOBUwmJaltitoH8C3AS8HTgDxHtJakfbCQkpPOB8zttXHa99gBwInAaYUqFJPWz9cA1wOWEfcxvj+0o5daPBxEWZZwEPDZhv5JUlw3AA8D9xXUPYdXvouK6gUQbYlW17+5OhEUa0wk7DjHm49G7CY3+eMRMJt9RaA5ht6NWJtuNaZCwy1FZKXZ9aqWdv48yphDeQ5VmE77X6lyqf6epLSMEqzqfO3oXw9HPW8GmVWQr2VR7Hb1T4pri85EdC5cW7VaO+vwhatrb5v8ALBcDaD5nMDEAAAAASUVORK5CYII=" vertex="1" parent="1">
          <mxGeometry x="120" y="120" width="70" height="90" as="geometry" />
        </mxCell>
        <mxCell id="4slyxXOM6MHCRde4LKaO-2" value="" style="shape=image;verticalLabelPosition=bottom;verticalAlign=top;imageAspect=0;image=data:image/png,iVBORw0KGgoAAAANSUhEUgAAAV8AAAHDCAYAAACDERm5AAAACXBIWXMAAA7DAAAOwwHHb6hkAAAAGXRFWHRTb2Z0d2FyZQB3d3cuaW5rc2NhcGUub3Jnm+48GgAAG6lJREFUeJzt3XeUZFWdwPHvdE9mgBkykgQBAQdZDqCoCIgEI4tZ14BHl8UcUESP7rricdUVFVnXgLoiJsS8IiJIMIwYcABJwohKdiQ4OfZM7x/39U7T011ddd9971bV+37OeWe6q+veujU98+tf/94NU0hnT+ANwJwJvj4d2CLh66U0AGydexAtbE0YYzeaA0zLPYg2zMs9gJK6+d/oBmBZ4j7XASsj2w4By0d9vgJYX3w8dqyriueuAJYUX1tRPHY/sAj4W+Q4WpqSoI/tgHcDryMEWEnqJ8sIQfgy4DvAb1N0Wib4zgBOA86ge38iS1Jq1wFnAxcAa2M7iQ2+zyxefO/YF5akHncHIfm8EBjutHGnwXcL4OPAKZ2+kCT1qZ8DrwL+2EmjwQ6euy9wJXBCJy8gSX1uD0LwvR9Y2G6jdoPvMcClwG6dj0uS+t504ERCIP4RYVZFS+2UHZ4BfBuYWWpoktQMVwHPBf7e6kmTBd+nA9/DKWSS1ImFwLG0CMCtgu8hhAg+0aIJSdLErgGOIyze2MxEwXcn4NriT0lSnMsIpduhsV8Y74bbAKHGe1DFg5KkfvcowiK0S8Z+Ybzg+zbgNVWPSJIa4nDgJuDm0Q+OLTvsUTypWzfAkaRe9AAwH1g88sDY4Ptd4KSEL7iUEMwfLK5lwOria8sJdZBhNi9IL2Hi5XprRvUxnlbTO1YX7WOtosRa7hLWFq+dwlRgy0R9dbMtqH+Wzizqn5I5A5hdw+u0896mAHPb6Gs2YdyttLuLW6vv89xiTKP7msamSQQzCe9rRvHcqpPOrwP/NN4XDgM2EoJe2evPhBUfdfyjkKQUpgHbE/asORR4FvBm4KuExLFsXNxImEW2mYsTdL4OeA8uyJDUX7YDLqJ8jPzx2I4PonzW+0cmiOqS1AcGgc9TPgAfNrrTr5Xs7Bpgx0reriR1j0Hgm5SLlxeOdLYn4YiN2I6uA7ap7r1KUleZSViEFhszh4B9AP67RCc3EWohktQk+xFmT8XGzk9BmMIU03gRsHPlb1GSutOZxAffVZRofHoNb06SutW2lCjZdutx5JLU7R4Ero5tXCb4DpdoK0n94JbYhma+khTvntiGZr6SFC9L8JWkpjP4SlIGK2IbWnaQpHgrYxua+UpSvOh9ts18JSleluArSU2Xpexg5iup6cx8JSmDNcCGmIYGX0kqJ+pQXssOklTOUEwjM19JKqf24GvmK0lmvpKUxfqYRgZfSSrHsoMkZWDZQZIyqL3sYOYrSWa+kpSFNV9JysDZDpKUgWUHScrAG26SlEFULDTzlaRyag++Zr6SZOYrSVmY+UpSBhtjGpn5SlI5lh0kKQPLDpKUgZmvJGVg5itJGZj5SlIGznaQpAwsO0hSBpYdJCkDM19JysDMV5IyMPOVpAzMfCUpA6eaSVIGlh0kKQPLDpKUgZmvJGVg5itJGZj5SlIGznaQpAwsO0hSBpYdJCkDM19JysDMV5IyMPOVpAwMvpKUQe1TzSw7SJKZryRl4Q03ScrAzFeSMjDzlaQMzHwlKQM31pGkDCw7SFIGlh0kKQMzX0nKwMxXkjKIDr6xGayZryQ520GSsrDsIEkZeMNNkjIw85WkDNzPV5J6hZmvJGVg8JWkDCw7SFIGZr6SlIGZryRlYOYrSRmY+UpSBma+kpSBwVeSynFvB0nqFWa+kpSBma8kZWDmK0kZmPlKUgZmvpKUgcFXkjKw7CBJGZj5SlIGZr6SVI4HaEpSrzD4SlIGlh0kKQMzX0nKwMxXkjIw85WkDMx8JSkDM19JysDgK0nleIyQJPUKM19JysDMV5IyMPOVpAzMfCUpAzNfScrA4CtJGVh2kKQMzHwlKQMzX0kqx2OEJKlXGHwlKQPLDpKUgZmvJGVg5itJGZj5SlIGZr6SlIGZryRlYPCVpHKiF1lYPpCqMQBMzz0IdaepJdoatOszCGyVexCZDQHLcw9iHFOBA4HDgUOAvYG9gO2BmcVz1gDLgKXAHcCi4roVuBa4r94hqxuUCb6qz6OBm3IPIrMrgWNyD4Lwf+Yo4ATg8cChwOxJ2swsrh2AfYBjx3z9DuBXxXUVcD0mN33P4CtNbgZwHPBc4ERg28T971FcLyo+vw/4UXFdSsia1WcsO0gTOwh4A/BC6i377Ay8qrjWABcDXwN+WHyu7uKuZlIihxAyzuuAfyZvvX0mIeP+FrAYOBd4bMbxKBEXWUibzAE+A/yWUGboNlsBpxBqwj8FXkC4GaseZOYrBfsBC4FTgSmZx9KOI4ELCTdiX4T/l3uOma8ETwSuJsxE6DWPBi4g/OAYO4tCXcyflmq6w4FLgLm5B1LSQYQ69eeArTOPRW0w+KrJ9gS+D2yZeyCJTCHcILyBMP9YXcyyg5pqEPg6YeFDv9kNuBzYMfdANDEzXzXV6YQVav1qFr1x47CxBoj/Bpn5qlftD7w39yAqdh7w19yD0MTc1UxNdDabNr3pR0uA9+UeRIPUvsLNoK1edDDduYAipTcD9+QeRINEVQ8Mvmqa99DftdCLgPNzD0KTKxN8+/kfsPrTXsBJuQdRoQcIy49Vr6hE1F3NmmcDvblF4YoEfTyPamb4rAJ+CSwAbgPuJGwLuY4w7nmEhQ+7EFak7Qc8ATiAtEnMv+BNtp6ygRBIO72elGOwDXUAcd+j8a6FNY+9mywg3d/jMHA3IdOMXaSxLWFfhm8QfiCWGcv/RI5B5Z1J3PcsOvg+sZa3JTD4prAT8f/Wx7suJu0y3tnAKwkZdKdjuZ3+WaXXi6KCr4ss1BRHka7kcBPwfMKZbKmsIszNfSKhJPHDNtttAF5Bd55vpxYMvmqKAxL29e+EYFmVXwHPIqzAu3qS536IUE5Rj3GqmZoiVfBdS/tZaVm/IdxbeTnj30i7nP5fqdcLomKhma+aIlXwvQVYnaivdgwDXyEsif40sLF4/HeEm3UbahyLEjLzVVNsn6ifBxP106klwOuA+YQz3Y7MOBYl4NHxaorpifrZOPlTKnVLcanHmfmqKaYl6mebRP2o4az5qilSBd/5hFOOpVIMvmqKVEuqZxAWQ0ilWHZQU6Tc8+CDwGEJ+1MDmfmqKRYl7GsOcBXwavw/pEhmvmqKGxL3Nxv4PGGvjOfgzCF1yJ/aaorJlunGOgj4DnAH8H7SLmNWb6h9hZuZr3rJAmB9hf0/gnBKxk2EEsdZhIUQgxW+pnqYma+aYhlwZU2vtTfwNuCnhBt95xFWpW1R0+urB1inap5BwskK3WyIarZIvAA4voJ+W9kOOLm41gBXAD8gnLV2d81jUZeJ3WD6kByDbaiUm6n3wnVVkr+1zc0inHOW+/2NXDcRtoQ8As9E7GXvw83UpZZWA5/IPYhRDgDOAH5OOPfto8A/ZB2RYtR+w03qRR8D7s09iHHsCpwGXEuYFveO4jH1KWc7qGlWAq/JPYhJzAc+TJi+dhlwIiZK3SyqZOQ3VE30A+Cc3INowwBwLPB94EbCiroZWUekZAy+aqq3Ud9xQCnsT1hR9xdCnXhW1tGoNMsOaqoh4HmEKV+9ZCfCDIlbgZdmHotKMPNVk60lLH74ZO6BRNiNcLbbJcDumceiCAZfNd164I3AywjnpPWaE4DrgWfnHog6Y9lBCr4KHEjYJKfXzCXclHtn7oGofWa+0iZ3E+rAxwK/zjyWTk0hbPL+H7kH0kDRU83MYKWHuxw4HHgK8CN66//IuwiLNdTlLDtIE7sKeAZwMPBlwvLkXvARwg8OdTHLDtLkrgdeAexIODzzJ8DGnAOaxADhh8WWuQeiiRl8pfYtB74EHEeY3nU68Bu6MxDvArw79yA0sQHit7Kz7KAmu4dwWsXjCRnxCwnZZjdNV3szYVGGqhUVQ6diEG2aDYRTHbpZFRupV+kB4JvFNY2wP+8zgKcDj8k4rpnAqYT9ZlWd6Bg6RNxG0AeWG686kHIz9YU1j73pdgNOAb4FLKX+Ddtvx43aq/Z+3Exd6jp3AZ8Dng/sADwL+CLwUE2vvxdwaE2vpQ4YfKX6rCXspPYqQp34ucCPqf6G3XEV968IzvOV8hgCvgs8DdiHcLOuqiD85Ir6VQlmvlJ+fyLMIz6UcKhmavMr6FMlGXyl7nEt8ATCkuaUdgG2TtynSrLsIHWX5cCLCbMUUplCmHWhaniGm9QnlgFvT9zn3MT9qSSDr9SdfkhYvJGKwbfLWHaQ4BPAmXTXycDrgWsS9uf/1y5j5qumOwN4E/CvwHWEpcHd4raEfa1K2JcSMPiqyV5MOP1hxH7AT4FPAVtlGdHDpdykZ0XCvpSAZQc11ZHAeWx+p3oAeC1hvu0Lx/l6ndYm7OuOhH0pATNfNdH+wPdoXePdFfgG8DPy7Y2wRaJ+lgN/S9SXNudUM6kNOwEXA/PafP4RhMM0vwg8sqIxjWcK4Vj4FG5O1I8SsuygJpkDXETnQXSAcHzQH4ELCYdrVmkA+DBwSKL+fp6oHyVk5qummApcQLmANgi8ALgaWACcTPsZdLv2BK4gHFGUys8S9qVEpuYegGo3SPqAUZch4k+5+CTwzIRjeWJxrSMcNf8tQjnjr5H97QG8EXgdMCvFAAsrCcFcXaZM8LXs0JseS30bead2JXBMRLt3EY7TqcJ0wnFBTy8+v4OQGf8GuBG4D7ifcMNrmPB/bkvCD8B9gcMI++0+iWp+E/0+IQCry5j5qt+9FPhAja+3R3G9eMzjG4preo1jAfhqza+nNk3F04vVv44EvkB3nGE2WFx1ugW4pObXbCKnmkmjHMDkc3n73Qep/ogiRRrADFb9aWvCzbCmugH4eu5BaGIDWHZQf7qaMK3sN7kHksEwYbOgodwD0cTMfNXP7gGOBs7PPI66nQtclXsQas3MV/1uNWExxMk0Y1vF64C35h5Ew0TfcDOIqgnOJ2yQ8+vcA6nQn4ETCT9wVJ+oGOpsBzXJLYTFDG8F/p55LKn9BXgKcFfmcTSRU82kNmwAzgb2Bj5G2j1zc/kFYbMf9+ztIe5qpqZ6CHgbYW/fC+jNf88bgY8DTwUWZx6LOmTmq6b7M/AS4DHAp+md43b+ABwFnEaz5zP3LIOvFNxC2FFsV0JAuz3vcCZ0L/Aa4EBCuUE9yrKD9HBLCb/K7wscT5gz2w1H8PweeBWwF/BZXEDR88x8pfFtBC4jbEX5CMKv+J8A7qxxDHcTfhA8DjiIcJRRP9wgFGFXMzNYqbUNhNMgfga8hXDE/BHAkwlLmPcFpiV4nbuAhcXrXErYD1jdL2qqmZup94ab6Y5tERX8obg+X3w+nTBrYm9CzXh3YEfCpulbAlsVz1tFyFyXEGZb/JVww+9PhJrz/fUMX93A/Xyl8tYB1xeX1BZrvpJUjivcJKlXONVMkjJwVzNJysCygyRlYNlBkjIw85WkDAy+klRO7VPNLDtIUiQzX0nKwOArSRlYdpCkDMx8JSkDg68kZWDZQZLKiZ5qZhCVpJqZ+UpSBtZ8JSkDg68kZWDZQZIyMPOVpAwMvpJUjruaSVKvMPOVpAwMvpKUgWUHScrA5cWSlIFlB0nKwLKDJJVT+1QzSVIkg68kZWDZQZIyMPOVpAwMvpKUgfN8JSmDASKnSWDQliSIrCBYdpCkctxSUpIy8Oh4ScrAFW6SlEHtNV8zZkky85WkLAy+kpSBwVeSMqi95hu7OEOS+kntma/BV5IMvpKUhWUHScrAzFeSMqh9ebHBV5LMfCUpC2u+kpRB7ZmvCzQkybKDJGVh2UGSMjDzlaQMDL6SlIHBV5IysOYrSRmY+UpSBgZfScqg9r0dXGQhSdZ8JSkLyw6SlIHBV5IyMPhKUgbWfCUpAzNfScrA4CtJGVh2kKQMzHwlKQNXuElSBrVnvoMl2kpSv6i95jutRFtJ6he1Z74GX0ky+EpSFgZfScrAmq8kZWDmK0kZGHwlKQPLDpKUQe0r3KZHtpOkfhIdfGP3aJga2U6S+klUImrZQZLKiQ6+sWUHg68kRcbCMpmvNV9JyhB8zXwlyZqvJGVh5itJGZj5SlIG0Zmvsx0kKV508I1dZDE7sp0k9YspRC44K1N2mFOirST1g2lk2NvB4Cup6WbGNixTdjD4Smq6rWIbmvlKUrxSwTeWwVdS020Z27BM8J1boq0k9YMswXd74uvFktQPto5tWHaFm9mvpCbLkvlCyH4lqan2iG1YZrYDGHwlNdu+sQ3LzPMF2LNEW0nqdY+ObVg2842O+pLU47YCDohtXDbz3adEW0nqZc8DZpXpYBkh+425bivzwpLUowaA64iPncNQLvgOA7tX/S4lqcu8hHJxcxhgackOXl/1u5SkLjINWESC4LukZAe3E7mZsCT1oNdSPvAmCb7DwIeqfa+S1BV2AR4iUfBN0dFG4Iwq37EkZTYNuJI0gXcY4MGEnf0nbrYjqT99inSxchjggcQdfryyty5JeXyUtHGykuA7DPx7Ne9fkmo1AziP9DFyGOBvFXV8TjFwSepFB1F+IUXL4Lu4ws7vJtyIi17/LEk1mwucBaxj8hi3sY3njHtNAf4K7Njh4M4mrGk+hfb3BL4PuB74A2FZ8p3A/cXr3w+s7nAMkpTCALAbYaOwkwir1+a10e4y4AbgtJgXnUqR/nboVuAzwHeAr9Devr47F9fTJvj6CmB58ecywsq7FcDa4uONxfOWARuKj5cDQ6Pary8+Xkn4qQWwquhjrA1FX5Np93lDxXjU2nrC90rtm0L3nRozQNwROoPEnfg7jfEP7R37+OiguQUwvfh4bvH5nOKaV3w+j7A1bqcl0rOAdxZXlNjg+2Dx56XAwcAFwBGxgyiM/KVIUrdaRfiN/2tlO4o9Rmh05nIP8BTgv8oORpK62L3A0SQIvBAffNeN+XwIeBNwKpt+9ZekfnEdcDjw21QdDrCpltqJiQLsucBRwI3RI5Kk7rEO+ADwBOCulB3H1nxbZbdXE+bHPQ14JSFN96BNSb1iCPgd8APg84TpuMnFBt+xZYexNgIXF9cUYH/gMYRjh/YBHkkIyNsD21H+CHtJ6sRKQlBdTFhotqi4bgOuoYYZOVUF39GGgZuLazwDhCA8Mu1jZNbDFoTpIaOn2YydcjNvgo9H2o39eLR2p+90Ms2nnbmBUq9aQ3vz8UdP+2xl9BTSVn1MNI10oimlIx+vYfOpqysIWypkX1cQuwl6J8F3MhupKK2XpG6V+oabJKkNsbXWocmfIkmayABxNd+YNpKkQmzwjSlVSJIKZr6SlIGZryRlYPCVpAwsO0hSBma+kpSBwVeSMrDsIEkZmPlKUgaxy4vNfCWpBDNfScrA4CtJGXjDTZIyMPOVpAzMfCUpAzNfScrA4CtJGVh2kKQMYoKvgVeSSooJvpYcJKkkg68kZWDZQZIyMPOVpAym0juZ7yzgEOBxwA7FY0uBW4EFwOJM45KkjsUE37rtC7wBeAWw9QTP2QBcBZwD/G89w5KkchYQAnC71+qaxjUN+DdgbYfjWwA8uqYxSmq2d9NZfBp98YsOG6yp4Q1tC/y6xJtaBjyvhnFKarbo4BtzksWUBANuZQfgCkJtN9aWwDeAlyQZkSQlNkDnsxeqDL7TgUuAxyboaxD4EvCEBH1JUlIxU82qDL7vAQ5O2N804MvAnIR9SlJp3RR89wfeVUG/jwLeVEG/khStm4LvawlT36rwFmB2RX1LUse6JfjOAl7e4usbgW8DzwF2B7YBdiZky0cCpwM3t2i/PXBskpFKUiKX0/k0idQB+IgWr7UYeFIbfQwCZ7bo51OJxyxJpaaaxaxwSx1850/w+F3AkwkLJyazgbAo49wJvr5/xLgkqRLdEnwfNcHjpwC3ddjXO4B7xnl85w77kaTKdEvwXT/OY98BfhzR11LgfeM8XvXiEElqW8wKtyqMt2T5iyX6+yrw9zGPueuZpK4Rs8JtpF1KY0sLq4CflOhvFfC1MY8tKtGfJCU1QLhR1anUv8JfycPLH4spv4HP5WM+jylhSFIluiX4LgauHfX5kgR93jfq41XApQn6lKQkBoChiHZV3Lz68KiPU6xGmzfq48+SJqBLUhKxmW8VN+q+BdxYfLwX5TfDObr4cxXwkZJ9SVJS3ZT5biTM6x0i7EZ2Qom+5gAnFx+/nYeXICQpu26p+Y74FfD64uM3lujnvcCOhO0kP1N2UJJUhfPofF3yVhWP6c2ETPgfI9oeQ/iBchFhc3ZJqkqpM9y+ENFoolOEU3o1Yf7vzA7a7EqYOfEZQulCkqoUHXynElfzHSw/5kl9gbBHw/G0dxz8DOAMwrltV1Q4LkkqbSpxNd+6fp2/pIPnTiWcWBGzV4Uk1So2852ReiAJrMw9AElqV+xsh24MvpLUM2Ln+Rp8JakEM19JysDMV5IyiA2+ncy9lSSNMQCsi2hXxyILSepbA4Rdvzq1beqBSFKTDACrI9oZfCWphNjgu03qgUhSk5j5SlIGscF319QDkaQmiQ2+B6QeiCQ1SZnM1+lmkhQpNviC2a8kRRsA/h7Z9uiE45CkxplJOC+t02MwFuYYrCR1ie2ARZQ4ww3gwcjGx1b85iSpG80Cfkl84P3/4HtjZOPbgTmVvkVJ6i4DwLcpF3iXjnR2SYlOvk49B2pKUm5TgE9SLvAOA+8a6fDMkh2dR/hpIEn9agD4NOUD752EsgUA84m76Tb6ugiYV9GblqSctgV+SPnAOwy8YmznFybo9F7gxYTUXJL6wXMI2WqKwLuQcaoE+xFOtUj1Ai9jVGotST1kEHg2cAVpYuLI9dSRFxiboZ4LnJL4TSwfda0gnJyxctTXlxSDgrDabs2Y9mtpveH7UkLJZDxjX2u8sU10jNJQ8fWqTPa+Uprs7yGl9YTvc7+aRZ5jtKYCW2Z4XYC5lP9tdgtgeuRrTKP1rKpWfY/9e9uKTRMEZgCzxzxvXvHnHNInj98gVAaAzd/s1sDvgd0Tv6gkNdlDhC0ZFo88MLb2sBR4NZsyUUlSea9jVOCF8efn/omQbh9Rx4gkqc+dA5w19sGJaiwDwDeB51Y5Iknqc78AjiHcC3mYVkX02cCVwOMqGpQk9bObgScT6r2babUqbRVwArCggkFJUj+7gxA/xw28MPmS4CXA8cCPEw5KkvrZLcBRwN2tntTOhjjrCavf5mEJQpJaWUBIWO+b7IntboazDngjYZndkvhxSVLfOpdwc+3Bdp7c6U5k3wMOBr7fYTtJ6lergZOBUwmJaltitoH8C3AS8HTgDxHtJakfbCQkpPOB8zttXHa99gBwInAaYUqFJPWz9cA1wOWEfcxvj+0o5daPBxEWZZwEPDZhv5JUlw3AA8D9xXUPYdXvouK6gUQbYlW17+5OhEUa0wk7DjHm49G7CY3+eMRMJt9RaA5ht6NWJtuNaZCwy1FZKXZ9aqWdv48yphDeQ5VmE77X6lyqf6epLSMEqzqfO3oXw9HPW8GmVWQr2VR7Hb1T4pri85EdC5cW7VaO+vwhatrb5v8ALBcDaD5nMDEAAAAASUVORK5CYII=" vertex="1" parent="1">
          <mxGeometry x="240" y="120" width="70" height="90" as="geometry" />
        </mxCell>
        <mxCell id="4slyxXOM6MHCRde4LKaO-3" value="" style="shape=image;verticalLabelPosition=bottom;verticalAlign=top;imageAspect=0;image=data:image/png,iVBORw0KGgoAAAANSUhEUgAAAV8AAAHDCAYAAACDERm5AAAACXBIWXMAAA7DAAAOwwHHb6hkAAAAGXRFWHRTb2Z0d2FyZQB3d3cuaW5rc2NhcGUub3Jnm+48GgAAG6lJREFUeJzt3XeUZFWdwPHvdE9mgBkykgQBAQdZDqCoCIgEI4tZ14BHl8UcUESP7rricdUVFVnXgLoiJsS8IiJIMIwYcABJwohKdiQ4OfZM7x/39U7T011ddd9971bV+37OeWe6q+veujU98+tf/94NU0hnT+ANwJwJvj4d2CLh66U0AGydexAtbE0YYzeaA0zLPYg2zMs9gJK6+d/oBmBZ4j7XASsj2w4By0d9vgJYX3w8dqyriueuAJYUX1tRPHY/sAj4W+Q4WpqSoI/tgHcDryMEWEnqJ8sIQfgy4DvAb1N0Wib4zgBOA86ge38iS1Jq1wFnAxcAa2M7iQ2+zyxefO/YF5akHncHIfm8EBjutHGnwXcL4OPAKZ2+kCT1qZ8DrwL+2EmjwQ6euy9wJXBCJy8gSX1uD0LwvR9Y2G6jdoPvMcClwG6dj0uS+t504ERCIP4RYVZFS+2UHZ4BfBuYWWpoktQMVwHPBf7e6kmTBd+nA9/DKWSS1ImFwLG0CMCtgu8hhAg+0aIJSdLErgGOIyze2MxEwXcn4NriT0lSnMsIpduhsV8Y74bbAKHGe1DFg5KkfvcowiK0S8Z+Ybzg+zbgNVWPSJIa4nDgJuDm0Q+OLTvsUTypWzfAkaRe9AAwH1g88sDY4Ptd4KSEL7iUEMwfLK5lwOria8sJdZBhNi9IL2Hi5XprRvUxnlbTO1YX7WOtosRa7hLWFq+dwlRgy0R9dbMtqH+Wzizqn5I5A5hdw+u0896mAHPb6Gs2YdyttLuLW6vv89xiTKP7msamSQQzCe9rRvHcqpPOrwP/NN4XDgM2EoJe2evPhBUfdfyjkKQUpgHbE/asORR4FvBm4KuExLFsXNxImEW2mYsTdL4OeA8uyJDUX7YDLqJ8jPzx2I4PonzW+0cmiOqS1AcGgc9TPgAfNrrTr5Xs7Bpgx0reriR1j0Hgm5SLlxeOdLYn4YiN2I6uA7ap7r1KUleZSViEFhszh4B9AP67RCc3EWohktQk+xFmT8XGzk9BmMIU03gRsHPlb1GSutOZxAffVZRofHoNb06SutW2lCjZdutx5JLU7R4Ero5tXCb4DpdoK0n94JbYhma+khTvntiGZr6SFC9L8JWkpjP4SlIGK2IbWnaQpHgrYxua+UpSvOh9ts18JSleluArSU2Xpexg5iup6cx8JSmDNcCGmIYGX0kqJ+pQXssOklTOUEwjM19JKqf24GvmK0lmvpKUxfqYRgZfSSrHsoMkZWDZQZIyqL3sYOYrSWa+kpSFNV9JysDZDpKUgWUHScrAG26SlEFULDTzlaRyag++Zr6SZOYrSVmY+UpSBhtjGpn5SlI5lh0kKQPLDpKUgZmvJGVg5itJGZj5SlIGznaQpAwsO0hSBpYdJCkDM19JysDMV5IyMPOVpAzMfCUpA6eaSVIGlh0kKQPLDpKUgZmvJGVg5itJGZj5SlIGznaQpAwsO0hSBpYdJCkDM19JysDMV5IyMPOVpAwMvpKUQe1TzSw7SJKZryRl4Q03ScrAzFeSMjDzlaQMzHwlKQM31pGkDCw7SFIGlh0kKQMzX0nKwMxXkjKIDr6xGayZryQ520GSsrDsIEkZeMNNkjIw85WkDNzPV5J6hZmvJGVg8JWkDCw7SFIGZr6SlIGZryRlYOYrSRmY+UpSBma+kpSBwVeSynFvB0nqFWa+kpSBma8kZWDmK0kZmPlKUgZmvpKUgcFXkjKw7CBJGZj5SlIGZr6SVI4HaEpSrzD4SlIGlh0kKQMzX0nKwMxXkjIw85WkDMx8JSkDM19JysDgK0nleIyQJPUKM19JysDMV5IyMPOVpAzMfCUpAzNfScrA4CtJGVh2kKQMzHwlKQMzX0kqx2OEJKlXGHwlKQPLDpKUgZmvJGVg5itJGZj5SlIGZr6SlIGZryRlYPCVpHKiF1lYPpCqMQBMzz0IdaepJdoatOszCGyVexCZDQHLcw9iHFOBA4HDgUOAvYG9gO2BmcVz1gDLgKXAHcCi4roVuBa4r94hqxuUCb6qz6OBm3IPIrMrgWNyD4Lwf+Yo4ATg8cChwOxJ2swsrh2AfYBjx3z9DuBXxXUVcD0mN33P4CtNbgZwHPBc4ERg28T971FcLyo+vw/4UXFdSsia1WcsO0gTOwh4A/BC6i377Ay8qrjWABcDXwN+WHyu7uKuZlIihxAyzuuAfyZvvX0mIeP+FrAYOBd4bMbxKBEXWUibzAE+A/yWUGboNlsBpxBqwj8FXkC4GaseZOYrBfsBC4FTgSmZx9KOI4ELCTdiX4T/l3uOma8ETwSuJsxE6DWPBi4g/OAYO4tCXcyflmq6w4FLgLm5B1LSQYQ69eeArTOPRW0w+KrJ9gS+D2yZeyCJTCHcILyBMP9YXcyyg5pqEPg6YeFDv9kNuBzYMfdANDEzXzXV6YQVav1qFr1x47CxBoj/Bpn5qlftD7w39yAqdh7w19yD0MTc1UxNdDabNr3pR0uA9+UeRIPUvsLNoK1edDDduYAipTcD9+QeRINEVQ8Mvmqa99DftdCLgPNzD0KTKxN8+/kfsPrTXsBJuQdRoQcIy49Vr6hE1F3NmmcDvblF4YoEfTyPamb4rAJ+CSwAbgPuJGwLuY4w7nmEhQ+7EFak7Qc8ATiAtEnMv+BNtp6ygRBIO72elGOwDXUAcd+j8a6FNY+9mywg3d/jMHA3IdOMXaSxLWFfhm8QfiCWGcv/RI5B5Z1J3PcsOvg+sZa3JTD4prAT8f/Wx7suJu0y3tnAKwkZdKdjuZ3+WaXXi6KCr4ss1BRHka7kcBPwfMKZbKmsIszNfSKhJPHDNtttAF5Bd55vpxYMvmqKAxL29e+EYFmVXwHPIqzAu3qS536IUE5Rj3GqmZoiVfBdS/tZaVm/IdxbeTnj30i7nP5fqdcLomKhma+aIlXwvQVYnaivdgwDXyEsif40sLF4/HeEm3UbahyLEjLzVVNsn6ifBxP106klwOuA+YQz3Y7MOBYl4NHxaorpifrZOPlTKnVLcanHmfmqKaYl6mebRP2o4az5qilSBd/5hFOOpVIMvmqKVEuqZxAWQ0ilWHZQU6Tc8+CDwGEJ+1MDmfmqKRYl7GsOcBXwavw/pEhmvmqKGxL3Nxv4PGGvjOfgzCF1yJ/aaorJlunGOgj4DnAH8H7SLmNWb6h9hZuZr3rJAmB9hf0/gnBKxk2EEsdZhIUQgxW+pnqYma+aYhlwZU2vtTfwNuCnhBt95xFWpW1R0+urB1inap5BwskK3WyIarZIvAA4voJ+W9kOOLm41gBXAD8gnLV2d81jUZeJ3WD6kByDbaiUm6n3wnVVkr+1zc0inHOW+/2NXDcRtoQ8As9E7GXvw83UpZZWA5/IPYhRDgDOAH5OOPfto8A/ZB2RYtR+w03qRR8D7s09iHHsCpwGXEuYFveO4jH1KWc7qGlWAq/JPYhJzAc+TJi+dhlwIiZK3SyqZOQ3VE30A+Cc3INowwBwLPB94EbCiroZWUekZAy+aqq3Ud9xQCnsT1hR9xdCnXhW1tGoNMsOaqoh4HmEKV+9ZCfCDIlbgZdmHotKMPNVk60lLH74ZO6BRNiNcLbbJcDumceiCAZfNd164I3AywjnpPWaE4DrgWfnHog6Y9lBCr4KHEjYJKfXzCXclHtn7oGofWa+0iZ3E+rAxwK/zjyWTk0hbPL+H7kH0kDRU83MYKWHuxw4HHgK8CN66//IuwiLNdTlLDtIE7sKeAZwMPBlwvLkXvARwg8OdTHLDtLkrgdeAexIODzzJ8DGnAOaxADhh8WWuQeiiRl8pfYtB74EHEeY3nU68Bu6MxDvArw79yA0sQHit7Kz7KAmu4dwWsXjCRnxCwnZZjdNV3szYVGGqhUVQ6diEG2aDYRTHbpZFRupV+kB4JvFNY2wP+8zgKcDj8k4rpnAqYT9ZlWd6Bg6RNxG0AeWG686kHIz9YU1j73pdgNOAb4FLKX+Ddtvx43aq/Z+3Exd6jp3AZ8Dng/sADwL+CLwUE2vvxdwaE2vpQ4YfKX6rCXspPYqQp34ucCPqf6G3XEV968IzvOV8hgCvgs8DdiHcLOuqiD85Ir6VQlmvlJ+fyLMIz6UcKhmavMr6FMlGXyl7nEt8ATCkuaUdgG2TtynSrLsIHWX5cCLCbMUUplCmHWhaniGm9QnlgFvT9zn3MT9qSSDr9SdfkhYvJGKwbfLWHaQ4BPAmXTXycDrgWsS9uf/1y5j5qumOwN4E/CvwHWEpcHd4raEfa1K2JcSMPiqyV5MOP1hxH7AT4FPAVtlGdHDpdykZ0XCvpSAZQc11ZHAeWx+p3oAeC1hvu0Lx/l6ndYm7OuOhH0pATNfNdH+wPdoXePdFfgG8DPy7Y2wRaJ+lgN/S9SXNudUM6kNOwEXA/PafP4RhMM0vwg8sqIxjWcK4Vj4FG5O1I8SsuygJpkDXETnQXSAcHzQH4ELCYdrVmkA+DBwSKL+fp6oHyVk5qummApcQLmANgi8ALgaWACcTPsZdLv2BK4gHFGUys8S9qVEpuYegGo3SPqAUZch4k+5+CTwzIRjeWJxrSMcNf8tQjnjr5H97QG8EXgdMCvFAAsrCcFcXaZM8LXs0JseS30bead2JXBMRLt3EY7TqcJ0wnFBTy8+v4OQGf8GuBG4D7ifcMNrmPB/bkvCD8B9gcMI++0+iWp+E/0+IQCry5j5qt+9FPhAja+3R3G9eMzjG4preo1jAfhqza+nNk3F04vVv44EvkB3nGE2WFx1ugW4pObXbCKnmkmjHMDkc3n73Qep/ogiRRrADFb9aWvCzbCmugH4eu5BaGIDWHZQf7qaMK3sN7kHksEwYbOgodwD0cTMfNXP7gGOBs7PPI66nQtclXsQas3MV/1uNWExxMk0Y1vF64C35h5Ew0TfcDOIqgnOJ2yQ8+vcA6nQn4ETCT9wVJ+oGOpsBzXJLYTFDG8F/p55LKn9BXgKcFfmcTSRU82kNmwAzgb2Bj5G2j1zc/kFYbMf9+ztIe5qpqZ6CHgbYW/fC+jNf88bgY8DTwUWZx6LOmTmq6b7M/AS4DHAp+md43b+ABwFnEaz5zP3LIOvFNxC2FFsV0JAuz3vcCZ0L/Aa4EBCuUE9yrKD9HBLCb/K7wscT5gz2w1H8PweeBWwF/BZXEDR88x8pfFtBC4jbEX5CMKv+J8A7qxxDHcTfhA8DjiIcJRRP9wgFGFXMzNYqbUNhNMgfga8hXDE/BHAkwlLmPcFpiV4nbuAhcXrXErYD1jdL2qqmZup94ab6Y5tERX8obg+X3w+nTBrYm9CzXh3YEfCpulbAlsVz1tFyFyXEGZb/JVww+9PhJrz/fUMX93A/Xyl8tYB1xeX1BZrvpJUjivcJKlXONVMkjJwVzNJysCygyRlYNlBkjIw85WkDAy+klRO7VPNLDtIUiQzX0nKwOArSRlYdpCkDMx8JSkDg68kZWDZQZLKiZ5qZhCVpJqZ+UpSBtZ8JSkDg68kZWDZQZIyMPOVpAwMvpJUjruaSVKvMPOVpAwMvpKUgWUHScrA5cWSlIFlB0nKwLKDJJVT+1QzSVIkg68kZWDZQZIyMPOVpAwMvpKUgfN8JSmDASKnSWDQliSIrCBYdpCkctxSUpIy8Oh4ScrAFW6SlEHtNV8zZkky85WkLAy+kpSBwVeSMqi95hu7OEOS+kntma/BV5IMvpKUhWUHScrAzFeSMqh9ebHBV5LMfCUpC2u+kpRB7ZmvCzQkybKDJGVh2UGSMjDzlaQMDL6SlIHBV5IysOYrSRmY+UpSBgZfScqg9r0dXGQhSdZ8JSkLyw6SlIHBV5IyMPhKUgbWfCUpAzNfScrA4CtJGVh2kKQMzHwlKQNXuElSBrVnvoMl2kpSv6i95jutRFtJ6he1Z74GX0ky+EpSFgZfScrAmq8kZWDmK0kZGHwlKQPLDpKUQe0r3KZHtpOkfhIdfGP3aJga2U6S+klUImrZQZLKiQ6+sWUHg68kRcbCMpmvNV9JyhB8zXwlyZqvJGVh5itJGZj5SlIG0Zmvsx0kKV508I1dZDE7sp0k9YspRC44K1N2mFOirST1g2lk2NvB4Cup6WbGNixTdjD4Smq6rWIbmvlKUrxSwTeWwVdS020Z27BM8J1boq0k9YMswXd74uvFktQPto5tWHaFm9mvpCbLkvlCyH4lqan2iG1YZrYDGHwlNdu+sQ3LzPMF2LNEW0nqdY+ObVg2842O+pLU47YCDohtXDbz3adEW0nqZc8DZpXpYBkh+425bivzwpLUowaA64iPncNQLvgOA7tX/S4lqcu8hHJxcxhgackOXl/1u5SkLjINWESC4LukZAe3E7mZsCT1oNdSPvAmCb7DwIeqfa+S1BV2AR4iUfBN0dFG4Iwq37EkZTYNuJI0gXcY4MGEnf0nbrYjqT99inSxchjggcQdfryyty5JeXyUtHGykuA7DPx7Ne9fkmo1AziP9DFyGOBvFXV8TjFwSepFB1F+IUXL4Lu4ws7vJtyIi17/LEk1mwucBaxj8hi3sY3njHtNAf4K7Njh4M4mrGk+hfb3BL4PuB74A2FZ8p3A/cXr3w+s7nAMkpTCALAbYaOwkwir1+a10e4y4AbgtJgXnUqR/nboVuAzwHeAr9Devr47F9fTJvj6CmB58ecywsq7FcDa4uONxfOWARuKj5cDQ6Pary8+Xkn4qQWwquhjrA1FX5Np93lDxXjU2nrC90rtm0L3nRozQNwROoPEnfg7jfEP7R37+OiguQUwvfh4bvH5nOKaV3w+j7A1bqcl0rOAdxZXlNjg+2Dx56XAwcAFwBGxgyiM/KVIUrdaRfiN/2tlO4o9Rmh05nIP8BTgv8oORpK62L3A0SQIvBAffNeN+XwIeBNwKpt+9ZekfnEdcDjw21QdDrCpltqJiQLsucBRwI3RI5Kk7rEO+ADwBOCulB3H1nxbZbdXE+bHPQ14JSFN96BNSb1iCPgd8APg84TpuMnFBt+xZYexNgIXF9cUYH/gMYRjh/YBHkkIyNsD21H+CHtJ6sRKQlBdTFhotqi4bgOuoYYZOVUF39GGgZuLazwDhCA8Mu1jZNbDFoTpIaOn2YydcjNvgo9H2o39eLR2p+90Ms2nnbmBUq9aQ3vz8UdP+2xl9BTSVn1MNI10oimlIx+vYfOpqysIWypkX1cQuwl6J8F3MhupKK2XpG6V+oabJKkNsbXWocmfIkmayABxNd+YNpKkQmzwjSlVSJIKZr6SlIGZryRlYPCVpAwsO0hSBma+kpSBwVeSMrDsIEkZmPlKUgaxy4vNfCWpBDNfScrA4CtJGXjDTZIyMPOVpAzMfCUpAzNfScrA4CtJGVh2kKQMYoKvgVeSSooJvpYcJKkkg68kZWDZQZIyMPOVpAym0juZ7yzgEOBxwA7FY0uBW4EFwOJM45KkjsUE37rtC7wBeAWw9QTP2QBcBZwD/G89w5KkchYQAnC71+qaxjUN+DdgbYfjWwA8uqYxSmq2d9NZfBp98YsOG6yp4Q1tC/y6xJtaBjyvhnFKarbo4BtzksWUBANuZQfgCkJtN9aWwDeAlyQZkSQlNkDnsxeqDL7TgUuAxyboaxD4EvCEBH1JUlIxU82qDL7vAQ5O2N804MvAnIR9SlJp3RR89wfeVUG/jwLeVEG/khStm4LvawlT36rwFmB2RX1LUse6JfjOAl7e4usbgW8DzwF2B7YBdiZky0cCpwM3t2i/PXBskpFKUiKX0/k0idQB+IgWr7UYeFIbfQwCZ7bo51OJxyxJpaaaxaxwSx1850/w+F3AkwkLJyazgbAo49wJvr5/xLgkqRLdEnwfNcHjpwC3ddjXO4B7xnl85w77kaTKdEvwXT/OY98BfhzR11LgfeM8XvXiEElqW8wKtyqMt2T5iyX6+yrw9zGPueuZpK4Rs8JtpF1KY0sLq4CflOhvFfC1MY8tKtGfJCU1QLhR1anUv8JfycPLH4spv4HP5WM+jylhSFIluiX4LgauHfX5kgR93jfq41XApQn6lKQkBoChiHZV3Lz68KiPU6xGmzfq48+SJqBLUhKxmW8VN+q+BdxYfLwX5TfDObr4cxXwkZJ9SVJS3ZT5biTM6x0i7EZ2Qom+5gAnFx+/nYeXICQpu26p+Y74FfD64uM3lujnvcCOhO0kP1N2UJJUhfPofF3yVhWP6c2ETPgfI9oeQ/iBchFhc3ZJqkqpM9y+ENFoolOEU3o1Yf7vzA7a7EqYOfEZQulCkqoUHXynElfzHSw/5kl9gbBHw/G0dxz8DOAMwrltV1Q4LkkqbSpxNd+6fp2/pIPnTiWcWBGzV4Uk1So2852ReiAJrMw9AElqV+xsh24MvpLUM2Ln+Rp8JakEM19JysDMV5IyiA2+ncy9lSSNMQCsi2hXxyILSepbA4Rdvzq1beqBSFKTDACrI9oZfCWphNjgu03qgUhSk5j5SlIGscF319QDkaQmiQ2+B6QeiCQ1SZnM1+lmkhQpNviC2a8kRRsA/h7Z9uiE45CkxplJOC+t02MwFuYYrCR1ie2ARZQ4ww3gwcjGx1b85iSpG80Cfkl84P3/4HtjZOPbgTmVvkVJ6i4DwLcpF3iXjnR2SYlOvk49B2pKUm5TgE9SLvAOA+8a6fDMkh2dR/hpIEn9agD4NOUD752EsgUA84m76Tb6ugiYV9GblqSctgV+SPnAOwy8YmznFybo9F7gxYTUXJL6wXMI2WqKwLuQcaoE+xFOtUj1Ai9jVGotST1kEHg2cAVpYuLI9dSRFxiboZ4LnJL4TSwfda0gnJyxctTXlxSDgrDabs2Y9mtpveH7UkLJZDxjX2u8sU10jNJQ8fWqTPa+Uprs7yGl9YTvc7+aRZ5jtKYCW2Z4XYC5lP9tdgtgeuRrTKP1rKpWfY/9e9uKTRMEZgCzxzxvXvHnHNInj98gVAaAzd/s1sDvgd0Tv6gkNdlDhC0ZFo88MLb2sBR4NZsyUUlSea9jVOCF8efn/omQbh9Rx4gkqc+dA5w19sGJaiwDwDeB51Y5Iknqc78AjiHcC3mYVkX02cCVwOMqGpQk9bObgScT6r2babUqbRVwArCggkFJUj+7gxA/xw28MPmS4CXA8cCPEw5KkvrZLcBRwN2tntTOhjjrCavf5mEJQpJaWUBIWO+b7IntboazDngjYZndkvhxSVLfOpdwc+3Bdp7c6U5k3wMOBr7fYTtJ6lergZOBUwmJaltitoH8C3AS8HTgDxHtJakfbCQkpPOB8zttXHa99gBwInAaYUqFJPWz9cA1wOWEfcxvj+0o5daPBxEWZZwEPDZhv5JUlw3AA8D9xXUPYdXvouK6gUQbYlW17+5OhEUa0wk7DjHm49G7CY3+eMRMJt9RaA5ht6NWJtuNaZCwy1FZKXZ9aqWdv48yphDeQ5VmE77X6lyqf6epLSMEqzqfO3oXw9HPW8GmVWQr2VR7Hb1T4pri85EdC5cW7VaO+vwhatrb5v8ALBcDaD5nMDEAAAAASUVORK5CYII=" vertex="1" parent="1">
          <mxGeometry x="360" y="120" width="70" height="90" as="geometry" />
        </mxCell>
        <mxCell id="4slyxXOM6MHCRde4LKaO-6" value="" style="shape=image;verticalLabelPosition=bottom;verticalAlign=top;imageAspect=0;image=data:image/png,iVBORw0KGgoAAAANSUhEUgAAAVAAAAG0CAYAAABkPX9NAAAACXBIWXMAAA7DAAAOwwHHb6hkAAAAGXRFWHRTb2Z0d2FyZQB3d3cuaW5rc2NhcGUub3Jnm+48GgAAIABJREFUeJzt3Xm4JWVh5/FvLzRNN4sNiICyCAoIOBMliY64MEKMQQkZlGeMcTCaEXdbRw1xewTNGMw4KhKNqEFFjQsqIrjiEDQYJghBlAZ0WBqVRfat6b3v/PHem3u4fe699b6n3qo69X4/z1MPTfepOvWeU/U7b9W71ALyWAA8HzgJODzTe0jSfC4HPgJ8Adhc98YX1Ly9JcCLCMF5cM3blqRU1wF/B5wBrKtro3UF6DbAXwDvBB5d0zYlqW43A38N/AOwcdSN1RGgfwx8ENi/hm1JUhOuB94CfGOUjYwSoCuAU4ETR9kBSWrR+cCrCDXTaKkBegTwRWD3xPUlqSvuAF4M/CB2xUWRr18AvA34DLBj7JtJUgctB/4M2ARcHLNiTA10MfAx4BUxbyBJY+TzwMup2MBUNUC3B74GPCdxpyRpXHwbOB54aL4XVgnQZcC3CPc9JakE/4cwGGjOPqML59nIMkIr1RH17JMkjYUjgS8T+rjPaq5GpEXAOXjZLqlMBwJ7AOelrHw6MFHTcinw7PRySFJlRwJXUl9+vTZ2B15Z0xtfAxxH/WPuJWkuiwnBdyej59gGIiZFOpTQ+jTKG94FvHqyEJLUlhXAR4EtjJZp1xN6I81pW+CqEd/oa8CuIxZakup0BHAjo2Xbx+d7k3eMsPFNwMrRyylJWexKGGmUmnFbgN+dbeN7A2sSN7wOeEGNBZWkHJYC55Ieoj+cbcNnJW5wM6GhSJLGwVLgn0gP0WNmbvBQQhCmbOxNWYooSfnsCFxLWub9ZObGUqu052MXJUnj6Ymk9zg6emojT03cwF3Y2i5pvP0lafl3ydQGLkzcwGtyl0ySMltC+qX8H5C44mrsJC+pH44lLQf/mcQV39hIsSQpvwWEYecpWRi9wnrC8ChJ6ovU+T+iVzi/oQJJUlN2IlQOo/JwvgmVh7m0jr2VpA65D7godqWUAL0lYR1J6rrvxq5ggEpScEXsCikBel/COpLUdT+LXSElQOd91KckjaF7YldICdC1CetIUtdNECZVqiwlQOd8TrIkjbFNMS+2BipJ0zbGvNgAlaRp2Wug6xPWkaRxkD1Ao6q4kjRGsgfoloR1JGkcZA3QqCZ+SRozBqgkJTJAJSmRASpJiQxQSUpkgEpSoqxj4Q1QSX02EfNiA1SSpmUNUDvRS+oza6CSlMgAlaREBqgkJTJAJSmRASpJiQxQSUpkgEpSIgNUkhIZoJKUyACVpEQGqCQlMkAlKZEBKkmJDFBJSuR0dpKUKCrjFkduPCqdpQiLgX2BvYGdgQWTf//g5HILcDOwro2dUzGiMs4AVRsWAAcBh08uTwEeB2xTYd1fAz8HfgZcCvwIuCvPbqpABqg66ZHAc4GjgaOAXRO3s9fkcvTk/28BrgIumlwMVI0iOuMmIpZv17ab6ruFwO8B7wb+ldAAGXOspS6bgSuBDwN/AqzIXVD1yreIO96iXvyt5sqhMbQ9cAxwBuF+ZROBOd+yCbgMOBk4jOl7q9Iw55MxQM9vrhwaE/sBK4ELgA20H5jzLasJAX88IfClQedhgCqjJcBzgI8RGnTaDsRRljWEE+ZVhNZ/6VwyBuh5zZVDHbKMcGl+FnAP7QdfruV64DRCI1eVHgHqHwNUtXg08Grge8B62g+3ppc7CT8YLwCWj/hZanycQ8YA/WZz5VALpu5nXkzoHtR2iHVlWUu4x7sS2DP509U4yBqg5zZXDjVgIaFl+mTgGtoPqnFYNjPdqv+E2A9cnfd1DFDNYTvCPb7TCMMj2w6kcV+m7ps+nfi5JdQ9X8MA1Qy7Ai8DvkFoeW47dPq63Ax8nDDiattK34y65mwivnOHcvbX/sCxk8vhwKJ2d2devwZ+CPwbcAVwLXAHsBR4PPAk4BnA04ADW9rH+ewJvHJyuR/4LqHS8W3g3hb3S9VFZ1zML+w5te2mcjgMeC9hoo22a2PzLb8FvgScSAjIGLsBfwqcyXj0Rd0AfB94LWEcv7rrK8R9twboGFsMHAl8BLiJ9oNiruUewi2ENwCHUu+QyidMbvc84IEOlHWuZQthboCTiP/hUH5ZA/TrzZVDs9iO6fHmt9F+IMy1DHZMX5LjwxhiEaEmfhLjMbx0FXAqoRHKcfrti7oHSuSLv9ZcOTRgF+AEwq9jl2tYU/0lT6I79yl3Jox7P4Pu9zpYjS36bTNAe2JfxmOSjtsII3aOB3bI8UHUaKrf60mEwQJNTbGXstxO+FyPwWGlTcoaoF9trhxFOoTpk7urI4EGO5KP+/RwjyQEf9fH+N/F9I+Uw0rzMkDHyGLg2YTLttW0f6LOtjxIuPp4KeF2Qh8tBo4A/pYww33bn/lsy33AFzFMc8kaoGc3V47eWgYcB3yWULNo+4ScbbkN+CTwfEJfzNLsQ+h29F3Cg+za/j6GLQ8RejacgDPv18UA7aCpkUDnEg76tk+82ZZrCS3CT8NGjEE7AC8EPkPo3N/29zRsmepr+ipg9yyfQhmyBuhXmivH2JtqOT+P7jYCDd7PPDjLp9A/gxOwXEb73+F83+sBOT6EHssaoF9urhxjaU/gdcA/EZ7F0/aJNGx5iBDq/x14VJ6PoSiPA94EXAhspP3vd9hyOfAOnD2qiqwB+qXmyjE2HsN0d6OunkB3Ea4eTqD7XY3G2XK6P3P/KpyKby4GaAP2Bd4MXEJ3uxvdRHi077Po/kQifbQNYZjt6cCvaP94GLb8FHg7oRatwADN5NGEPpo/of0Df7blF8DfEJ7HPs79M/tmAd2f6OVywvH92EyfwbjIGqBfbK4cnbCE0OXoW3T3nuaVwLsJE3RoPOxPuIL5Ed08ri4lTM7S1z6/c8kaoP/YXDlatQ3hfuENtH8wD1um7mMdlKn8ak6X5zlYT2hwPJ4w0KAEX8UAHclBhIBq++AdXDYBFwGvJzRaqZ+WE54CehbdG2RxMWX02shaA/1Cc+VoxZPpTuvpeuA7wCsIY7ZVlsWEaQD/nu5MW3gN/Q9RAzTRwbQ/yuQhwpyrLwEekbe4GiMLgWcS5kxou0X/CmD7vMVtVdZL+M83V45G7Ud4IFgbB+R9hFsjL8TJITS/BcBTCJOeXE87x+w59HeorwEaaSfg/9HsAXgn8A/A8/DpjRrNkwjdo66m2WP4LU0UrgVZA/RzzZWjMZ+imQPuZuCjhM7VpbRoqlkHA++kmb6m6wltBn2TNUDPaq4cjXgcefvh3UK4b+XsRmraocBfA9eR7/j+Gc0966opWQP0s82VoxHvof6D6m6mH8VgTVNdcAih33COfs2nNFeMRhigEa6gnoPoPkJoHo3Pr1F3LSTMuv9xwn34Oo79DYT7sH1hgFa0PaNdvq8nPObiOMqcsV3jbRvCVdI3Gf021k8b3vecsgboZxorRn6Hk3aw/IIwTnjX5ndZymJPQkv+/aSHaF8mr8kaoJ9urhzZvZT4g+QcnBpO/bUH6Q837EsjaVSA9qXQKfZPWOfThMclSH10K/D+xHX7UgONEhugE1n2oh17JaxzVe17IXXLD9regZZF/RCUXANNuYd5W+17IXXLdYQG0lh9yZKoSmLJNdDdIl9/L2GyD6nPJgiX8rH6cgmftQbalw8J4mfbTjmopHF0e8I6fcqGyvpS7U4RO/PR3Vn2QuqetQnrGKCFiZ3TcF2WvZC6J+VYN0ALs13k6w1QlcIArajUAF1KfIf4lJZJaRwZoBWV2oi0LGEda6AqRckBaj/QClIenWENVKWwEakia6DVGaAqhR3pK+pLoWMZoNLsUuZ76EvlKkqpAZpyCe8kIipFn0YcxnIkUgUpT8Is+aBSWbYkrNOXypiX8BWkPKso5aCSNF5sha8gZVJka6AqRcqx3per0ygGaHUGqEphgFZU6j1QL+Gl2RmgFZX63PKu1ryPAZ6f+T3OB86LeH0T+5SiL+WIFVvuFCU3IkUpNUC7WgM9DDgx83vcStwJ2MQ+pehLOWLFljuFNdCKvISvznugKoUBWlGR1W7SGpG8B6pSlBygdmOqwFZ4aXYlB2iUUi/hUwJUKkVKgPalMuZIpAoMUKlefalcRSk1QEvtfSBpbk4mUoE1UKlefcmGKKXWQEstt5RLkedUkYWm3HJLqpFBIqkORV7CxzamFPkhNehsYFXm97g68vVN7FOKvpQjVmy5m1JkZazU1uiu/hCsonsneRf3KUVfytFVXT2nsiryV0NS7QzQCor8kCTNq8hsKLUGWuSXLWXUl3PKyUQkNa4vARrFS3hJdSgyG0qtgRb5ZUsZFXlOlRqgkuplgFZQ5IckaV5FZkOpNdAiv2wpoyLPqVIDVFK9DNAKivyQJM2ryMpYkYWWVLsiK1elBmiRX7aUUZHnlJfwkupQZDaUWgOVVK++BGhUOZxQubrjgYPb3gmpAYckrNOXyljUc+GdULm6gzFApb5zNiZJjSvy6rTUAC3yy5YyKvKc8h5odWdPLlLfHT+5xOhLZcx7oJlcjQGqMqQ0IvWF90ArKLkmLeVQ5DllR3pJdSiyMlZkoSXVrsjKVakBWuSXLWVU5DnlJbykOhSZDaXWQCXVywAtSJFftpRRX84puzFJalxfAjSK90Al1aHIbCi1Blrkly1lVOQ5VWqASqqXAVpBkR+SpHkVmQ2l1kCL/LKljIo8p0oNUEn1KjJLvISXVIcis8EJlbslZSJbVZMyIXYXv4+uTuxdZDY4oXK3HEL3Tti+SJkQu4vfR1cn9i4yQIu8b0GhX7aUUZHnlPdAJSmRASpJibyEl6RpWWdjMngkDVNkNpRaA5VUr6jnqXeYNVBJSmSAVtCXX0upK/qSDc5IL0lNKLUGKknDRGVcqWPhu3oJfzawqu2d6KmrE9bp4veRUo4m9CUbojgWvltW0b0TtmR+H9V1tVISy0YkSWpCqQHal19LSfWyFV5S4/pSuYpSag1UkobxHmgFXsJLGpmX8JI0zRqoJCUyQCvwEl7SyLyEl1SHvlSurIFKUhNKDVAv4SUNY0d6SWpCqTVQSRrGe6AVeAkvaWRewkvSNCdUriClBvrfgMPr3hGpg/ZLWKcv2RCl1ABNsR9pB5ak8WErvCQ1odRGJEkaxnugFaTcA/0ccFbdOyJ10AmEe/4x+pINUXyoXHU3AD9oeyekBjw9YZ2+dA20H6ikxvUlGwzQCvryaympRbbCS9I0a6CS1IRSA9RLeEnD2JFekppQag1UkobxHmgFXsJL9epLNkTxEl6SplkDlaREBmgFW9reAaln+pINUbf3vISXVIe+tCtEZWKpNdDNbe+ApPFXaoB6CS9pGDvSV2ANVKpXXypXUUqdULmrAZoykW1uKRNJx5ajiffoCyf27pBSA7SrN7z3A45qeydm+HHCOrHlaOI9+iLls1J1XsJX0NUaqKR22Q+0AhuRJI2s1AC1BirVqy/ZEKXUALUGKtWrL+eU90ArsAYq1asvARrFGqikOvTlnLIRqYK+fNlSDinneV/OKS/hK0j5svvy4yHNJyUXDNC6N95hKfdAS/2xUXlKroFGKTVArYFKsys5QKPKHjuUsy+6WgM9C7i4gfeJcUPCOrHlaOI9+iLls4qVEqBdHR6dValj4btaA72BZk6Q3JooR18+qy5KqSz0pWug90Ar6GqASl1gDbSiUhtGUgK01M9K5fEeaEWl1kBTLjf6UnZpPiUHaJRSA9RLeGl2JQeoHekr6GorvNQFJXekj1JqDXRjwjqldvlSeUqugUYpNUDXJ6yzpPa9kLpp24R1+hKgWZ8L3xcpAZpyUEnjqOQAjWINtDoDVKVYmrDOptr3YgwYoNUZoCpFSoCmnFNdZCt8BQaoNDsDtCJroNUZoCpFyrHelwCNUmqAriF+7G7Kr7I0jkqugUYpNUA3Aw9GrvOIHDsiddCOCev0JUC9B1rRfZGv3y3LXkjds3vCOutq34t2eA+0otgA3QVYlGNHpA7ZFtg5Yb2U0X1jr+Qa6D2Rr19ECFGpzw4kvqJwC3akr6RPNdBfJ6yzb907IXXMkQnrXFX7XrQn6yV8n2qsqxPWeW7dOyF1yG7A/0hY75K6d2ScTEQsd7a0jzmcQFzZJwjD1b4DvAjYrvldlrLZH/gl8efEBPD0FvY3l+uJK3vUi+9urhzZ7Um4b5NywEwA9wKfBI7Cqe40npYCRwNnAA+Qdh78hn41rmYN0NiGl647j/QAHVzuIITpc4BtGi2BFGcF8BLgbNJDc3B5X7O7n90NZAzQ2K4/XfdEQqf6OkJ0sJZ+FnAMziGqbtgbOJFQYVhPfcf6OuDRDZajCTeSMUAfaK4cjTmbegN0Zph+Gng+DgVVs54EnAxcQb7j+7SmCtOgrAG6prlyNGZfwq2JXAfZ4I/PV4A/BXZqomAqymJCF6SPEHqY5D6eb6Wfw5tXkzFA1zZWjGa9kPwH3OCyntCafyJpw+YkgB2A44HPE652mjp+txBuUfXRajIGaF/Guw7zUZoN0allM3Ax8BZCVxJpLnsQfni/TTgf2zhm/2f2UrbnJjIG6IbmytG4RYT7lW0ckIPLKuBUQt+6Po38Urr9gJWEH9q6Gz1jlzPp14CamX5FxgDt+3NPFgKfoP0QnVpuBD4IPJN+9bXT3BYChwN/S3rn9hzLh+h3eELmAN3cXDlaswB4I+1dHs223A58Cngetuj30XaE+4qfAn5L+8fb4PJL4MX5it4pWQN0orlytO4A4BzCNF1tH8Azl/uBLxOGlNqiP752AV4KfJ3ppyR0ZVkLfAn4Q/pf6xz0azIHaEkfJoQJFl5PmDCh7YN62DLYov+oTJ+B6rMf8CbgIsItsbaPn8FlM3Ah4Vhakan8XZc9QEse9/044G3AZbR/sM92AlwMvBlb9LtiAfC7wHuBn9H+MTJz2UKoHKwkzA9Rut+QOUAdnhg8ltD16BJGm5Qk53Il8B7gMGzRb9ISwrwIHyW+RtPU8lPgrwjHsaZlD1Af77u1vQi/4D+i/W4msy2/Ak4nzB7lhCf1W0FoaPkyYc6Itr/vYcu1wCnAEzJ9Bn1wM5kD1Hkw57YH8GrgAkK/2bZPmmHL3YTRK8cTRrMozb6EH84f0M3GxgnCbPGnECbO0fxuIXOALmusKONvBSGkziK0nLd9Mg1bNhLum66kfzPr5HAIYZKOy+jurZtVk/t4cJZPoN9uJXOAbt9YUfplKeHy+TTiv6Q2Tr7DsnwK42dbpr+3rt7PHPzeDsryKZQje4Du2FhR+msRYajmqXRrpMnM5XpCcJQ26/7OTF85dPV+5mBoPj7Lp1Cm28gcoH2cwqptTya0lnexm8vUcithmOvR9HMk1P6EB6pdRPf6Z04tm4AfAm8AHpPlU1D2AC21g21T9iXcj7yA7jZMrCHMbn4iYaDBuBq8n9n2Zzrbso5wLKwkNFAqr9hhtNFf6C6NFUW7Ep4eeh7dG5s/tWwiNEKdRPcvJZcTxpufQXx/vyaXqR+oE3CobtOyB+gjGyuKBi0jnPxnEZ4I2vZJPtvSten4pqaCu4B6nwdU93In08/Ssq91e24nc4A63rp92wJ/RKhJxd6zaXK5gTAF2hE0Nx3fjsCxwMdo5tEWoyw3Ej4fpyvsjuwB6iMoumUhocvRycA1tB8Ksy13EZ4JdQL1dt5fNFn+k+h+LXOC6Z4NXamh6+HuIHOA2tm6254IvBP4Cd3t6P0QcC7wcuJvCS0j1NjeDpxPdwcoTC2bgH8G3kqYjEbdFhWgCyb/EGMvwg14dd9jCJezxxIuo7s4Bn4zYUKWcwldiK4iNJhtS2iwPGhyOZgwq9GT6WY5Bj1EqA1/k9AYdEe7u6MIdxAabyuL/UXdu8adVXOmWqC73gg1rstUI5DzC4y3u4j73qMPlH0aK4pyWUy4B3ca3e7O0/Wl1JFafZY9QJ0/sH/GoUN5F5bNk5/RyThXQF/dTeYAdabzfnss3R8J1eSylumRQM7Y3n/ZA7Tro01Un10I3Y6+AjxA+2HW1JKry5W67x4yB+iBjRVFXbIcOA74LPH3icZh+QXwAezUXrrsAep8gxqcju8XtB9+KcvURNIn4cTDmhbbQyX6wPNg00yHEILoYrrbeX+CMOx1qquR89pqmNj5X6MPwkMbK4rG0d6Eae7Oo/1hlZt4eKu5Qyc1n+wB+h8aK4rG3QrgJcDZNNcI9Vvgc8CLCDPLSzGyB+h/bKwo6pPBZ0LFPjp2ruV2Qm33JKxlanRRcyukjIV/MnBFXXurIi0EngL8CfB7hBm+9mDux8VsIDzU7UbgSuBywuX5dcQfw9Js7iei61rK8LOFCetIg7YQJhC5ZMi/LWA6SB9BmJhjA+HSaksje6eSRV3BGKDqmglCXzwG/is1JSpAU8LQAJUk0sLQWWck9VX2GmjXJ7OVpEZYA5WkadZAJakJBqgkTbMGKkmJDFBJaoIBKknTstdAbYWXJKyBStIg74FKUhMMUElKlBKg29W+F5LUDdkv4ZclrCNJ48AAlaQmpATo8tr3QpK6wRqoJCXKHqDWQCUJa6CSNCh7DXSnhHUkaRxEPSI7JUD3SFhHkrpuCQ3UQPeIfRNJGgMvSVlpImHZuYadlaSuWABcRWQWpj7j/XGj7q0kdcjzgENiV0oN0KMS15OkLvrL1BVTLuFXAYtG219J6oT/RFoOTjDCin/eQMEkKbcf0EKA/gantpM03v6Q9AwcKUAngDfnL58kZbEtCS3v1Biga4DH5y6lJGXwPkbLv+gAXTPk735Iemu+JLXh94GNbJ1nDwz5u9oC9GPAZUP+fmXeskpSbR4J3MTWOfZvwFuG/H1tAfpBYH/gvhl/vwE4ImOBJakOi4DvsXW23QDsDrxmyL/VFqAfmtyJFw35t9uBx2YqtCSNagHwSbbOrjuAAyZf89oh/15rDXTKqUP+/efAipoLLUl1+BuGt+s8deA1rx/ymiwBuhA4d8hrrgB2q7HQkjSqd7B1Vm0EjpnxupVDXpclQAF2AH425HVXA3vWUGhJGsUC4H+xdUZtAV425PVvGvLabAEKsA+weshrVxO6CkhSG5YAZzI8PF81yzpvHvL6rAEKsC9w45DXryfcU5CkJu0B/Jjh4TlXJr11yDrZA3Rqh4f1EZ0g3Cvdp3LRJSnds4Gb2TqHNgAvn2fdk4asV1uA/u953nw58KVZ1l0DvAtYOl/pJSnBDoTBPlvYOn/uAv5zhW28bci6jQXolFcDD82yjdXAGycLK0mjWgy8gjBD3LDMuZLpfp7zGdZa33iAQphk5IdzbOte4P0kTKMvSYTZlF4GXMvwjNlEmDBkScQ23zXLthoPUAhdCF4MXD/Pdq8G3kNotd8l8j0klWVnwqX2LcyeKVcSZpqP9e45trnVsniUUlQwAfwj8FVCt4F3Egbyz/QEQvK/a/L/HyQMDb0XWEu4HXDv5H/XD6x3z4ztPED41ZmyFlg38P+bJl8zaOY25rJucpt12AzcX9O2SvcIxu9R28uJqxl1wRLCfrfpGYSGoNn242ZCjnyWcC80VtTMcrkDdMoG4CPAZwj9rN5AOOhns/3kIklV3EG4Qj6dUNFKFRWgsfN4TkS+fqb7CVXkvQgNSbeOuD1JZbsDOIXwqPX3M1p4QuYArcuDwGmE2ZteSWg9k6Sqbgf+ijCI52Tqux3WyUv42awHPkG4X/EyQgdYSZrLj4BP8fD2jbqMVYBOWQ98fHKRpLZ0+h6oJHXZWNwDlaQuMkAlKZEBKkmJDFBJSmSASlKiqCHBtsJL0jRroJKUyACVpEQGqCQlMkAlKZEBKkmJHAsvSYmsgUpSIgNUkhIZoJKUyACVpEQGqCQlyhqg4/bsbUmKYYBKUiIv4SUpkTVQSUpkgEpSIgNUkhJFZeLiyI13IUAXAI8F9gceAWxDKPR6YA1wE3AtsLmtHZQ0tqLbhSYilg/Xtpvx9gFOB+4dsl8zl/uBz0+uI0lVXUhcJka9+LTmyvEwf0y14Jy53As8u4X9lTSeLiIiY8bhHugLgHOAnRLW3Qn4NnB8rXskqa961Q/0GYRL8VH2c1vgC8BzatkjSX3Wm1b4nYCzgaU1bGsbQojuXsO2JPVXbwL0FOBRNW5vV+D9NW5PUv9EZVxXA3Qf4LUZtvtnhO5PkjRML2qgL2b+PqpXAa8BDptcXgusmmedRcCfj7pzknoraz/Qv69tN+d25Rz78AAhLIcVdCHweuDBOda/PPO+Sxpfl5OxH+gZDRRgCbBplvf/DfA7FbbxpMnXDtvGJkLLvCTNdAUZ+4HGDv1MsS/hUnum24BnAT+tsI0rJl/72yH/tmjyPSRppqz3QJsI0GEd5jcCxwDXR2znesIIpo1D/m3HhP2S1H9jH6D3Dvm79wGXJWzrUuDUIX+/IWFbkvovayPSl2vbzdntBGwZeM97gB1G2N6OPHwc/RZCn1BJmukaxvwe6H2Ee5hTvktoeU91/+Q2plwH3DnC9iT1V9ZL+G0iX5/qOwN//lUN2xvcxiU1bE9SP439PVCATxImSIZ6Rg49fuDPX61he5L6Kes90O/XtpvzO23yPe9jtAlFljHdsf5qhneRkiSAG8nYkf7C5srBLsANk+/7yhG28zqmG4+eW8N+Seqvm8gYoD9qrhwAHEpoBPoVaX03dwJuJuz7B2rcL0n99GsyBui/NFeOf/cHhEvwlGGkZxL2+0y6P3m0pPZNVbiyBOilzZXjYZ5C6Hp0dMQ6Lyc8pXNllj2S1Ee3kjFAf95cObZyAGFW+So1yScDn8CnckqK81syBmjMWPQ2rWh7BySNpTuIyMTY+4Lb1befWd3T9g5IGktZO9Ivi3y9JI0TA1SSEmUfC9/UcE5JalrWAAVroZL6ywCVpETZA3SUyY0lqcuyB6izuUvqKwNUkhJlD9B9E9aRpK7bhgYC9LCEdSSp696UslLMWPgJwgPebEiS1Cd7M/3kimyTiUwtb2ymTJLUiPOIz8EHIdQoY1e8G3hkI8WSpLyOI60i+QGA9yau/LkmSiZJGe37RcYNAAACzElEQVRI/GM8JoCHgN0hPDfozoQNTAAvzV8+ScrmLNKy78ODG3lL4kYeBJ6UsXCSlMt/JS331gKPHtzQUsKTL1M2djvw+GxFlKT6/Q5h4vWUzPu7YRv8i8SNTQC/BPaqvYiSVL+DiXx0x8CyBnjMsI0uBP41caMTwGqsiUrqtmcBt5Gec6fMtfHfBzaPsPHbgGfWVFBJqssi4G3AJtLz7WZg+/ne6IwR3mAC2EAYEpUyTFSS6vYM4KeMlmsTwDFV3mw5cHUNb/Zj4NARCi1JozgA+BKwhdHz7OMxb/xEQkfRUd90M/B14I+AAwnhLEk57Q18CtjI6Bk2AaxiluxaMMdOvAw4c+SibG0tsI7Qh3QjcD8haAef5T71b4NmPut9A6FFbFCV9TZOvi7GesIPSoypcsZ4aPK9mnQv4SDpmgnCvklVPQp4O/BKYNuatnk78FTgxmH/OFeAArwbOLmmHZHUDWsIFZC+WQ4sqXF764AjgX+Z7QXzBSjA6cDr6tojSRoDG4DjgW/O9aJFFTb0fULHUYdsSirBesIMTefP98IqATpBmCtve+Bpo+2XJHXafYTw/G6VF1cJ0CnfJ9w7ORL7eErqnxuAo4D/W3WFKvdAZzoC+CKTc+FJUg98D3gJYWrPylJqkhcR7odekLCuJHXJWmAloa96VHhC3CX8oAcJM9JfBzwdO8hLGj8XAP8F+FbqBka9l/kF4CDgI4Qkl6SuuxY4FngOcM0oG0q5Bzqb3YG3EkYBWCOV1DUXAR8idE/aUscG6wzQKTsBLwROIMyCkuM9JGkumwlzFP8CuBD4BnB93W+SO9x2I/Qf3ZFwv3UhIWAhjFVdNvnnHYDFk39eCmw3xzbn+/ftJl8zm2VUHyc7uF91m68co1hM2PdcVmTcds7PXMHM+SFyrxcz38LgHBez/XlqbooNhLk07p98j6k/30MIy+zDVf8/pbd/UgBL4LEAAAAASUVORK5CYII=" vertex="1" parent="1">
          <mxGeometry x="120" y="380" width="70" height="90" as="geometry" />
        </mxCell>
        <mxCell id="4slyxXOM6MHCRde4LKaO-7" value="" style="shape=image;verticalLabelPosition=bottom;verticalAlign=top;imageAspect=0;image=data:image/png,iVBORw0KGgoAAAANSUhEUgAAAVAAAAG0CAYAAABkPX9NAAAACXBIWXMAAA7DAAAOwwHHb6hkAAAAGXRFWHRTb2Z0d2FyZQB3d3cuaW5rc2NhcGUub3Jnm+48GgAAIABJREFUeJzt3Xm4JWVh5/FvLzRNN4sNiICyCAoIOBMliY64MEKMQQkZlGeMcTCaEXdbRw1xewTNGMw4KhKNqEFFjQsqIrjiEDQYJghBlAZ0WBqVRfat6b3v/PHem3u4fe699b6n3qo69X4/z1MPTfepOvWeU/U7b9W71ALyWAA8HzgJODzTe0jSfC4HPgJ8Adhc98YX1Ly9JcCLCMF5cM3blqRU1wF/B5wBrKtro3UF6DbAXwDvBB5d0zYlqW43A38N/AOwcdSN1RGgfwx8ENi/hm1JUhOuB94CfGOUjYwSoCuAU4ETR9kBSWrR+cCrCDXTaKkBegTwRWD3xPUlqSvuAF4M/CB2xUWRr18AvA34DLBj7JtJUgctB/4M2ARcHLNiTA10MfAx4BUxbyBJY+TzwMup2MBUNUC3B74GPCdxpyRpXHwbOB54aL4XVgnQZcC3CPc9JakE/4cwGGjOPqML59nIMkIr1RH17JMkjYUjgS8T+rjPaq5GpEXAOXjZLqlMBwJ7AOelrHw6MFHTcinw7PRySFJlRwJXUl9+vTZ2B15Z0xtfAxxH/WPuJWkuiwnBdyej59gGIiZFOpTQ+jTKG94FvHqyEJLUlhXAR4EtjJZp1xN6I81pW+CqEd/oa8CuIxZakup0BHAjo2Xbx+d7k3eMsPFNwMrRyylJWexKGGmUmnFbgN+dbeN7A2sSN7wOeEGNBZWkHJYC55Ieoj+cbcNnJW5wM6GhSJLGwVLgn0gP0WNmbvBQQhCmbOxNWYooSfnsCFxLWub9ZObGUqu052MXJUnj6Ymk9zg6emojT03cwF3Y2i5pvP0lafl3ydQGLkzcwGtyl0ySMltC+qX8H5C44mrsJC+pH44lLQf/mcQV39hIsSQpvwWEYecpWRi9wnrC8ChJ6ovU+T+iVzi/oQJJUlN2IlQOo/JwvgmVh7m0jr2VpA65D7godqWUAL0lYR1J6rrvxq5ggEpScEXsCikBel/COpLUdT+LXSElQOd91KckjaF7YldICdC1CetIUtdNECZVqiwlQOd8TrIkjbFNMS+2BipJ0zbGvNgAlaRp2Wug6xPWkaRxkD1Ao6q4kjRGsgfoloR1JGkcZA3QqCZ+SRozBqgkJTJAJSmRASpJiQxQSUpkgEpSoqxj4Q1QSX02EfNiA1SSpmUNUDvRS+oza6CSlMgAlaREBqgkJTJAJSmRASpJiQxQSUpkgEpSIgNUkhIZoJKUyACVpEQGqCQlMkAlKZEBKkmJDFBJSuR0dpKUKCrjFkduPCqdpQiLgX2BvYGdgQWTf//g5HILcDOwro2dUzGiMs4AVRsWAAcBh08uTwEeB2xTYd1fAz8HfgZcCvwIuCvPbqpABqg66ZHAc4GjgaOAXRO3s9fkcvTk/28BrgIumlwMVI0iOuMmIpZv17ab6ruFwO8B7wb+ldAAGXOspS6bgSuBDwN/AqzIXVD1yreIO96iXvyt5sqhMbQ9cAxwBuF+ZROBOd+yCbgMOBk4jOl7q9Iw55MxQM9vrhwaE/sBK4ELgA20H5jzLasJAX88IfClQedhgCqjJcBzgI8RGnTaDsRRljWEE+ZVhNZ/6VwyBuh5zZVDHbKMcGl+FnAP7QdfruV64DRCI1eVHgHqHwNUtXg08Grge8B62g+3ppc7CT8YLwCWj/hZanycQ8YA/WZz5VALpu5nXkzoHtR2iHVlWUu4x7sS2DP509U4yBqg5zZXDjVgIaFl+mTgGtoPqnFYNjPdqv+E2A9cnfd1DFDNYTvCPb7TCMMj2w6kcV+m7ps+nfi5JdQ9X8MA1Qy7Ai8DvkFoeW47dPq63Ax8nDDiattK34y65mwivnOHcvbX/sCxk8vhwKJ2d2devwZ+CPwbcAVwLXAHsBR4PPAk4BnA04ADW9rH+ewJvHJyuR/4LqHS8W3g3hb3S9VFZ1zML+w5te2mcjgMeC9hoo22a2PzLb8FvgScSAjIGLsBfwqcyXj0Rd0AfB94LWEcv7rrK8R9twboGFsMHAl8BLiJ9oNiruUewi2ENwCHUu+QyidMbvc84IEOlHWuZQthboCTiP/hUH5ZA/TrzZVDs9iO6fHmt9F+IMy1DHZMX5LjwxhiEaEmfhLjMbx0FXAqoRHKcfrti7oHSuSLv9ZcOTRgF+AEwq9jl2tYU/0lT6I79yl3Jox7P4Pu9zpYjS36bTNAe2JfxmOSjtsII3aOB3bI8UHUaKrf60mEwQJNTbGXstxO+FyPwWGlTcoaoF9trhxFOoTpk7urI4EGO5KP+/RwjyQEf9fH+N/F9I+Uw0rzMkDHyGLg2YTLttW0f6LOtjxIuPp4KeF2Qh8tBo4A/pYww33bn/lsy33AFzFMc8kaoGc3V47eWgYcB3yWULNo+4ScbbkN+CTwfEJfzNLsQ+h29F3Cg+za/j6GLQ8RejacgDPv18UA7aCpkUDnEg76tk+82ZZrCS3CT8NGjEE7AC8EPkPo3N/29zRsmepr+ipg9yyfQhmyBuhXmivH2JtqOT+P7jYCDd7PPDjLp9A/gxOwXEb73+F83+sBOT6EHssaoF9urhxjaU/gdcA/EZ7F0/aJNGx5iBDq/x14VJ6PoSiPA94EXAhspP3vd9hyOfAOnD2qiqwB+qXmyjE2HsN0d6OunkB3Ea4eTqD7XY3G2XK6P3P/KpyKby4GaAP2Bd4MXEJ3uxvdRHi077Po/kQifbQNYZjt6cCvaP94GLb8FHg7oRatwADN5NGEPpo/of0Df7blF8DfEJ7HPs79M/tmAd2f6OVywvH92EyfwbjIGqBfbK4cnbCE0OXoW3T3nuaVwLsJE3RoPOxPuIL5Ed08ri4lTM7S1z6/c8kaoP/YXDlatQ3hfuENtH8wD1um7mMdlKn8ak6X5zlYT2hwPJ4w0KAEX8UAHclBhIBq++AdXDYBFwGvJzRaqZ+WE54CehbdG2RxMWX02shaA/1Cc+VoxZPpTuvpeuA7wCsIY7ZVlsWEaQD/nu5MW3gN/Q9RAzTRwbQ/yuQhwpyrLwEekbe4GiMLgWcS5kxou0X/CmD7vMVtVdZL+M83V45G7Ud4IFgbB+R9hFsjL8TJITS/BcBTCJOeXE87x+w59HeorwEaaSfg/9HsAXgn8A/A8/DpjRrNkwjdo66m2WP4LU0UrgVZA/RzzZWjMZ+imQPuZuCjhM7VpbRoqlkHA++kmb6m6wltBn2TNUDPaq4cjXgcefvh3UK4b+XsRmraocBfA9eR7/j+Gc0966opWQP0s82VoxHvof6D6m6mH8VgTVNdcAih33COfs2nNFeMRhigEa6gnoPoPkJoHo3Pr1F3LSTMuv9xwn34Oo79DYT7sH1hgFa0PaNdvq8nPObiOMqcsV3jbRvCVdI3Gf021k8b3vecsgboZxorRn6Hk3aw/IIwTnjX5ndZymJPQkv+/aSHaF8mr8kaoJ9urhzZvZT4g+QcnBpO/bUH6Q837EsjaVSA9qXQKfZPWOfThMclSH10K/D+xHX7UgONEhugE1n2oh17JaxzVe17IXXLD9regZZF/RCUXANNuYd5W+17IXXLdYQG0lh9yZKoSmLJNdDdIl9/L2GyD6nPJgiX8rH6cgmftQbalw8J4mfbTjmopHF0e8I6fcqGyvpS7U4RO/PR3Vn2QuqetQnrGKCFiZ3TcF2WvZC6J+VYN0ALs13k6w1QlcIArajUAF1KfIf4lJZJaRwZoBWV2oi0LGEda6AqRckBaj/QClIenWENVKWwEakia6DVGaAqhR3pK+pLoWMZoNLsUuZ76EvlKkqpAZpyCe8kIipFn0YcxnIkUgUpT8Is+aBSWbYkrNOXypiX8BWkPKso5aCSNF5sha8gZVJka6AqRcqx3per0ygGaHUGqEphgFZU6j1QL+Gl2RmgFZX63PKu1ryPAZ6f+T3OB86LeH0T+5SiL+WIFVvuFCU3IkUpNUC7WgM9DDgx83vcStwJ2MQ+pehLOWLFljuFNdCKvISvznugKoUBWlGR1W7SGpG8B6pSlBygdmOqwFZ4aXYlB2iUUi/hUwJUKkVKgPalMuZIpAoMUKlefalcRSk1QEvtfSBpbk4mUoE1UKlefcmGKKXWQEstt5RLkedUkYWm3HJLqpFBIqkORV7CxzamFPkhNehsYFXm97g68vVN7FOKvpQjVmy5m1JkZazU1uiu/hCsonsneRf3KUVfytFVXT2nsiryV0NS7QzQCor8kCTNq8hsKLUGWuSXLWXUl3PKyUQkNa4vARrFS3hJdSgyG0qtgRb5ZUsZFXlOlRqgkuplgFZQ5IckaV5FZkOpNdAiv2wpoyLPqVIDVFK9DNAKivyQJM2ryMpYkYWWVLsiK1elBmiRX7aUUZHnlJfwkupQZDaUWgOVVK++BGhUOZxQubrjgYPb3gmpAYckrNOXyljUc+GdULm6gzFApb5zNiZJjSvy6rTUAC3yy5YyKvKc8h5odWdPLlLfHT+5xOhLZcx7oJlcjQGqMqQ0IvWF90ArKLkmLeVQ5DllR3pJdSiyMlZkoSXVrsjKVakBWuSXLWVU5DnlJbykOhSZDaXWQCXVywAtSJFftpRRX84puzFJalxfAjSK90Al1aHIbCi1Blrkly1lVOQ5VWqASqqXAVpBkR+SpHkVmQ2l1kCL/LKljIo8p0oNUEn1KjJLvISXVIcis8EJlbslZSJbVZMyIXYXv4+uTuxdZDY4oXK3HEL3Tti+SJkQu4vfR1cn9i4yQIu8b0GhX7aUUZHnlPdAJSmRASpJibyEl6RpWWdjMngkDVNkNpRaA5VUr6jnqXeYNVBJSmSAVtCXX0upK/qSDc5IL0lNKLUGKknDRGVcqWPhu3oJfzawqu2d6KmrE9bp4veRUo4m9CUbojgWvltW0b0TtmR+H9V1tVISy0YkSWpCqQHal19LSfWyFV5S4/pSuYpSag1UkobxHmgFXsJLGpmX8JI0zRqoJCUyQCvwEl7SyLyEl1SHvlSurIFKUhNKDVAv4SUNY0d6SWpCqTVQSRrGe6AVeAkvaWRewkvSNCdUriClBvrfgMPr3hGpg/ZLWKcv2RCl1ABNsR9pB5ak8WErvCQ1odRGJEkaxnugFaTcA/0ccFbdOyJ10AmEe/4x+pINUXyoXHU3AD9oeyekBjw9YZ2+dA20H6ikxvUlGwzQCvryaympRbbCS9I0a6CS1IRSA9RLeEnD2JFekppQag1UkobxHmgFXsJL9epLNkTxEl6SplkDlaREBmgFW9reAaln+pINUbf3vISXVIe+tCtEZWKpNdDNbe+ApPFXaoB6CS9pGDvSV2ANVKpXXypXUUqdULmrAZoykW1uKRNJx5ajiffoCyf27pBSA7SrN7z3A45qeydm+HHCOrHlaOI9+iLls1J1XsJX0NUaqKR22Q+0AhuRJI2s1AC1BirVqy/ZEKXUALUGKtWrL+eU90ArsAYq1asvARrFGqikOvTlnLIRqYK+fNlSDinneV/OKS/hK0j5svvy4yHNJyUXDNC6N95hKfdAS/2xUXlKroFGKTVArYFKsys5QKPKHjuUsy+6WgM9C7i4gfeJcUPCOrHlaOI9+iLls4qVEqBdHR6dValj4btaA72BZk6Q3JooR18+qy5KqSz0pWug90Ar6GqASl1gDbSiUhtGUgK01M9K5fEeaEWl1kBTLjf6UnZpPiUHaJRSA9RLeGl2JQeoHekr6GorvNQFJXekj1JqDXRjwjqldvlSeUqugUYpNUDXJ6yzpPa9kLpp24R1+hKgWZ8L3xcpAZpyUEnjqOQAjWINtDoDVKVYmrDOptr3YgwYoNUZoCpFSoCmnFNdZCt8BQaoNDsDtCJroNUZoCpFyrHelwCNUmqAriF+7G7Kr7I0jkqugUYpNUA3Aw9GrvOIHDsiddCOCev0JUC9B1rRfZGv3y3LXkjds3vCOutq34t2eA+0otgA3QVYlGNHpA7ZFtg5Yb2U0X1jr+Qa6D2Rr19ECFGpzw4kvqJwC3akr6RPNdBfJ6yzb907IXXMkQnrXFX7XrQn6yV8n2qsqxPWeW7dOyF1yG7A/0hY75K6d2ScTEQsd7a0jzmcQFzZJwjD1b4DvAjYrvldlrLZH/gl8efEBPD0FvY3l+uJK3vUi+9urhzZ7Um4b5NywEwA9wKfBI7Cqe40npYCRwNnAA+Qdh78hn41rmYN0NiGl647j/QAHVzuIITpc4BtGi2BFGcF8BLgbNJDc3B5X7O7n90NZAzQ2K4/XfdEQqf6OkJ0sJZ+FnAMziGqbtgbOJFQYVhPfcf6OuDRDZajCTeSMUAfaK4cjTmbegN0Zph+Gng+DgVVs54EnAxcQb7j+7SmCtOgrAG6prlyNGZfwq2JXAfZ4I/PV4A/BXZqomAqymJCF6SPEHqY5D6eb6Wfw5tXkzFA1zZWjGa9kPwH3OCyntCafyJpw+YkgB2A44HPE652mjp+txBuUfXRajIGaF/Guw7zUZoN0allM3Ax8BZCVxJpLnsQfni/TTgf2zhm/2f2UrbnJjIG6IbmytG4RYT7lW0ckIPLKuBUQt+6Po38Urr9gJWEH9q6Gz1jlzPp14CamX5FxgDt+3NPFgKfoP0QnVpuBD4IPJN+9bXT3BYChwN/S3rn9hzLh+h3eELmAN3cXDlaswB4I+1dHs223A58Cngetuj30XaE+4qfAn5L+8fb4PJL4MX5it4pWQN0orlytO4A4BzCNF1tH8Azl/uBLxOGlNqiP752AV4KfJ3ppyR0ZVkLfAn4Q/pf6xz0azIHaEkfJoQJFl5PmDCh7YN62DLYov+oTJ+B6rMf8CbgIsItsbaPn8FlM3Ah4Vhakan8XZc9QEse9/044G3AZbR/sM92AlwMvBlb9LtiAfC7wHuBn9H+MTJz2UKoHKwkzA9Rut+QOUAdnhg8ltD16BJGm5Qk53Il8B7gMGzRb9ISwrwIHyW+RtPU8lPgrwjHsaZlD1Af77u1vQi/4D+i/W4msy2/Ak4nzB7lhCf1W0FoaPkyYc6Itr/vYcu1wCnAEzJ9Bn1wM5kD1Hkw57YH8GrgAkK/2bZPmmHL3YTRK8cTRrMozb6EH84f0M3GxgnCbPGnECbO0fxuIXOALmusKONvBSGkziK0nLd9Mg1bNhLum66kfzPr5HAIYZKOy+jurZtVk/t4cJZPoN9uJXOAbt9YUfplKeHy+TTiv6Q2Tr7DsnwK42dbpr+3rt7PHPzeDsryKZQje4Du2FhR+msRYajmqXRrpMnM5XpCcJQ26/7OTF85dPV+5mBoPj7Lp1Cm28gcoH2cwqptTya0lnexm8vUcithmOvR9HMk1P6EB6pdRPf6Z04tm4AfAm8AHpPlU1D2AC21g21T9iXcj7yA7jZMrCHMbn4iYaDBuBq8n9n2Zzrbso5wLKwkNFAqr9hhtNFf6C6NFUW7Ep4eeh7dG5s/tWwiNEKdRPcvJZcTxpufQXx/vyaXqR+oE3CobtOyB+gjGyuKBi0jnPxnEZ4I2vZJPtvSten4pqaCu4B6nwdU93In08/Ssq91e24nc4A63rp92wJ/RKhJxd6zaXK5gTAF2hE0Nx3fjsCxwMdo5tEWoyw3Ej4fpyvsjuwB6iMoumUhocvRycA1tB8Ksy13EZ4JdQL1dt5fNFn+k+h+LXOC6Z4NXamh6+HuIHOA2tm6254IvBP4Cd3t6P0QcC7wcuJvCS0j1NjeDpxPdwcoTC2bgH8G3kqYjEbdFhWgCyb/EGMvwg14dd9jCJezxxIuo7s4Bn4zYUKWcwldiK4iNJhtS2iwPGhyOZgwq9GT6WY5Bj1EqA1/k9AYdEe7u6MIdxAabyuL/UXdu8adVXOmWqC73gg1rstUI5DzC4y3u4j73qMPlH0aK4pyWUy4B3ca3e7O0/Wl1JFafZY9QJ0/sH/GoUN5F5bNk5/RyThXQF/dTeYAdabzfnss3R8J1eSylumRQM7Y3n/ZA7Tro01Un10I3Y6+AjxA+2HW1JKry5W67x4yB+iBjRVFXbIcOA74LPH3icZh+QXwAezUXrrsAep8gxqcju8XtB9+KcvURNIn4cTDmhbbQyX6wPNg00yHEILoYrrbeX+CMOx1qquR89pqmNj5X6MPwkMbK4rG0d6Eae7Oo/1hlZt4eKu5Qyc1n+wB+h8aK4rG3QrgJcDZNNcI9Vvgc8CLCDPLSzGyB+h/bKwo6pPBZ0LFPjp2ruV2Qm33JKxlanRRcyukjIV/MnBFXXurIi0EngL8CfB7hBm+9mDux8VsIDzU7UbgSuBywuX5dcQfw9Js7iei61rK8LOFCetIg7YQJhC5ZMi/LWA6SB9BmJhjA+HSaksje6eSRV3BGKDqmglCXzwG/is1JSpAU8LQAJUk0sLQWWck9VX2GmjXJ7OVpEZYA5WkadZAJakJBqgkTbMGKkmJDFBJaoIBKknTstdAbYWXJKyBStIg74FKUhMMUElKlBKg29W+F5LUDdkv4ZclrCNJ48AAlaQmpATo8tr3QpK6wRqoJCXKHqDWQCUJa6CSNCh7DXSnhHUkaRxEPSI7JUD3SFhHkrpuCQ3UQPeIfRNJGgMvSVlpImHZuYadlaSuWABcRWQWpj7j/XGj7q0kdcjzgENiV0oN0KMS15OkLvrL1BVTLuFXAYtG219J6oT/RFoOTjDCin/eQMEkKbcf0EKA/gantpM03v6Q9AwcKUAngDfnL58kZbEtCS3v1Biga4DH5y6lJGXwPkbLv+gAXTPk735Iemu+JLXh94GNbJ1nDwz5u9oC9GPAZUP+fmXeskpSbR4J3MTWOfZvwFuG/H1tAfpBYH/gvhl/vwE4ImOBJakOi4DvsXW23QDsDrxmyL/VFqAfmtyJFw35t9uBx2YqtCSNagHwSbbOrjuAAyZf89oh/15rDXTKqUP+/efAipoLLUl1+BuGt+s8deA1rx/ymiwBuhA4d8hrrgB2q7HQkjSqd7B1Vm0EjpnxupVDXpclQAF2AH425HVXA3vWUGhJGsUC4H+xdUZtAV425PVvGvLabAEKsA+weshrVxO6CkhSG5YAZzI8PF81yzpvHvL6rAEKsC9w45DXryfcU5CkJu0B/Jjh4TlXJr11yDrZA3Rqh4f1EZ0g3Cvdp3LRJSnds4Gb2TqHNgAvn2fdk4asV1uA/u953nw58KVZ1l0DvAtYOl/pJSnBDoTBPlvYOn/uAv5zhW28bci6jQXolFcDD82yjdXAGycLK0mjWgy8gjBD3LDMuZLpfp7zGdZa33iAQphk5IdzbOte4P0kTKMvSYTZlF4GXMvwjNlEmDBkScQ23zXLthoPUAhdCF4MXD/Pdq8G3kNotd8l8j0klWVnwqX2LcyeKVcSZpqP9e45trnVsniUUlQwAfwj8FVCt4F3Egbyz/QEQvK/a/L/HyQMDb0XWEu4HXDv5H/XD6x3z4ztPED41ZmyFlg38P+bJl8zaOY25rJucpt12AzcX9O2SvcIxu9R28uJqxl1wRLCfrfpGYSGoNn242ZCjnyWcC80VtTMcrkDdMoG4CPAZwj9rN5AOOhns/3kIklV3EG4Qj6dUNFKFRWgsfN4TkS+fqb7CVXkvQgNSbeOuD1JZbsDOIXwqPX3M1p4QuYArcuDwGmE2ZteSWg9k6Sqbgf+ijCI52Tqux3WyUv42awHPkG4X/EyQgdYSZrLj4BP8fD2jbqMVYBOWQ98fHKRpLZ0+h6oJHXZWNwDlaQuMkAlKZEBKkmJDFBJSmSASlKiqCHBtsJL0jRroJKUyACVpEQGqCQlMkAlKZEBKkmJHAsvSYmsgUpSIgNUkhIZoJKUyACVpEQGqCQlyhqg4/bsbUmKYYBKUiIv4SUpkTVQSUpkgEpSIgNUkhJFZeLiyI13IUAXAI8F9gceAWxDKPR6YA1wE3AtsLmtHZQ0tqLbhSYilg/Xtpvx9gFOB+4dsl8zl/uBz0+uI0lVXUhcJka9+LTmyvEwf0y14Jy53As8u4X9lTSeLiIiY8bhHugLgHOAnRLW3Qn4NnB8rXskqa961Q/0GYRL8VH2c1vgC8BzatkjSX3Wm1b4nYCzgaU1bGsbQojuXsO2JPVXbwL0FOBRNW5vV+D9NW5PUv9EZVxXA3Qf4LUZtvtnhO5PkjRML2qgL2b+PqpXAa8BDptcXgusmmedRcCfj7pzknoraz/Qv69tN+d25Rz78AAhLIcVdCHweuDBOda/PPO+Sxpfl5OxH+gZDRRgCbBplvf/DfA7FbbxpMnXDtvGJkLLvCTNdAUZ+4HGDv1MsS/hUnum24BnAT+tsI0rJl/72yH/tmjyPSRppqz3QJsI0GEd5jcCxwDXR2znesIIpo1D/m3HhP2S1H9jH6D3Dvm79wGXJWzrUuDUIX+/IWFbkvovayPSl2vbzdntBGwZeM97gB1G2N6OPHwc/RZCn1BJmukaxvwe6H2Ee5hTvktoeU91/+Q2plwH3DnC9iT1V9ZL+G0iX5/qOwN//lUN2xvcxiU1bE9SP439PVCATxImSIZ6Rg49fuDPX61he5L6Kes90O/XtpvzO23yPe9jtAlFljHdsf5qhneRkiSAG8nYkf7C5srBLsANk+/7yhG28zqmG4+eW8N+Seqvm8gYoD9qrhwAHEpoBPoVaX03dwJuJuz7B2rcL0n99GsyBui/NFeOf/cHhEvwlGGkZxL2+0y6P3m0pPZNVbiyBOilzZXjYZ5C6Hp0dMQ6Lyc8pXNllj2S1Ee3kjFAf95cObZyAGFW+So1yScDn8CnckqK81syBmjMWPQ2rWh7BySNpTuIyMTY+4Lb1befWd3T9g5IGktZO9Ivi3y9JI0TA1SSEmUfC9/UcE5JalrWAAVroZL6ywCVpETZA3SUyY0lqcuyB6izuUvqKwNUkhJlD9B9E9aRpK7bhgYC9LCEdSSp696UslLMWPgJwgPebEiS1Cd7M/3kimyTiUwtb2ymTJLUiPOIz8EHIdQoY1e8G3hkI8WSpLyOI60i+QGA9yau/LkmSiZJGe37RcYNAAACzElEQVRI/GM8JoCHgN0hPDfozoQNTAAvzV8+ScrmLNKy78ODG3lL4kYeBJ6UsXCSlMt/JS331gKPHtzQUsKTL1M2djvw+GxFlKT6/Q5h4vWUzPu7YRv8i8SNTQC/BPaqvYiSVL+DiXx0x8CyBnjMsI0uBP41caMTwGqsiUrqtmcBt5Gec6fMtfHfBzaPsPHbgGfWVFBJqssi4G3AJtLz7WZg+/ne6IwR3mAC2EAYEpUyTFSS6vYM4KeMlmsTwDFV3mw5cHUNb/Zj4NARCi1JozgA+BKwhdHz7OMxb/xEQkfRUd90M/B14I+AAwnhLEk57Q18CtjI6Bk2AaxiluxaMMdOvAw4c+SibG0tsI7Qh3QjcD8haAef5T71b4NmPut9A6FFbFCV9TZOvi7GesIPSoypcsZ4aPK9mnQv4SDpmgnCvklVPQp4O/BKYNuatnk78FTgxmH/OFeAArwbOLmmHZHUDWsIFZC+WQ4sqXF764AjgX+Z7QXzBSjA6cDr6tojSRoDG4DjgW/O9aJFFTb0fULHUYdsSirBesIMTefP98IqATpBmCtve+Bpo+2XJHXafYTw/G6VF1cJ0CnfJ9w7ORL7eErqnxuAo4D/W3WFKvdAZzoC+CKTc+FJUg98D3gJYWrPylJqkhcR7odekLCuJHXJWmAloa96VHhC3CX8oAcJM9JfBzwdO8hLGj8XAP8F+FbqBka9l/kF4CDgI4Qkl6SuuxY4FngOcM0oG0q5Bzqb3YG3EkYBWCOV1DUXAR8idE/aUscG6wzQKTsBLwROIMyCkuM9JGkumwlzFP8CuBD4BnB93W+SO9x2I/Qf3ZFwv3UhIWAhjFVdNvnnHYDFk39eCmw3xzbn+/ftJl8zm2VUHyc7uF91m68co1hM2PdcVmTcds7PXMHM+SFyrxcz38LgHBez/XlqbooNhLk07p98j6k/30MIy+zDVf8/pbd/UgBL4LEAAAAASUVORK5CYII=" vertex="1" parent="1">
          <mxGeometry x="240" y="380" width="70" height="90" as="geometry" />
        </mxCell>
        <mxCell id="4slyxXOM6MHCRde4LKaO-8" value="" style="shape=image;verticalLabelPosition=bottom;verticalAlign=top;imageAspect=0;image=data:image/png,iVBORw0KGgoAAAANSUhEUgAAAVAAAAG0CAYAAABkPX9NAAAACXBIWXMAAA7DAAAOwwHHb6hkAAAAGXRFWHRTb2Z0d2FyZQB3d3cuaW5rc2NhcGUub3Jnm+48GgAAIABJREFUeJzt3Xm4JWVh5/FvLzRNN4sNiICyCAoIOBMliY64MEKMQQkZlGeMcTCaEXdbRw1xewTNGMw4KhKNqEFFjQsqIrjiEDQYJghBlAZ0WBqVRfat6b3v/PHem3u4fe699b6n3qo69X4/z1MPTfepOvWeU/U7b9W71ALyWAA8HzgJODzTe0jSfC4HPgJ8Adhc98YX1Ly9JcCLCMF5cM3blqRU1wF/B5wBrKtro3UF6DbAXwDvBB5d0zYlqW43A38N/AOwcdSN1RGgfwx8ENi/hm1JUhOuB94CfGOUjYwSoCuAU4ETR9kBSWrR+cCrCDXTaKkBegTwRWD3xPUlqSvuAF4M/CB2xUWRr18AvA34DLBj7JtJUgctB/4M2ARcHLNiTA10MfAx4BUxbyBJY+TzwMup2MBUNUC3B74GPCdxpyRpXHwbOB54aL4XVgnQZcC3CPc9JakE/4cwGGjOPqML59nIMkIr1RH17JMkjYUjgS8T+rjPaq5GpEXAOXjZLqlMBwJ7AOelrHw6MFHTcinw7PRySFJlRwJXUl9+vTZ2B15Z0xtfAxxH/WPuJWkuiwnBdyej59gGIiZFOpTQ+jTKG94FvHqyEJLUlhXAR4EtjJZp1xN6I81pW+CqEd/oa8CuIxZakup0BHAjo2Xbx+d7k3eMsPFNwMrRyylJWexKGGmUmnFbgN+dbeN7A2sSN7wOeEGNBZWkHJYC55Ieoj+cbcNnJW5wM6GhSJLGwVLgn0gP0WNmbvBQQhCmbOxNWYooSfnsCFxLWub9ZObGUqu052MXJUnj6Ymk9zg6emojT03cwF3Y2i5pvP0lafl3ydQGLkzcwGtyl0ySMltC+qX8H5C44mrsJC+pH44lLQf/mcQV39hIsSQpvwWEYecpWRi9wnrC8ChJ6ovU+T+iVzi/oQJJUlN2IlQOo/JwvgmVh7m0jr2VpA65D7godqWUAL0lYR1J6rrvxq5ggEpScEXsCikBel/COpLUdT+LXSElQOd91KckjaF7YldICdC1CetIUtdNECZVqiwlQOd8TrIkjbFNMS+2BipJ0zbGvNgAlaRp2Wug6xPWkaRxkD1Ao6q4kjRGsgfoloR1JGkcZA3QqCZ+SRozBqgkJTJAJSmRASpJiQxQSUpkgEpSoqxj4Q1QSX02EfNiA1SSpmUNUDvRS+oza6CSlMgAlaREBqgkJTJAJSmRASpJiQxQSUpkgEpSIgNUkhIZoJKUyACVpEQGqCQlMkAlKZEBKkmJDFBJSuR0dpKUKCrjFkduPCqdpQiLgX2BvYGdgQWTf//g5HILcDOwro2dUzGiMs4AVRsWAAcBh08uTwEeB2xTYd1fAz8HfgZcCvwIuCvPbqpABqg66ZHAc4GjgaOAXRO3s9fkcvTk/28BrgIumlwMVI0iOuMmIpZv17ab6ruFwO8B7wb+ldAAGXOspS6bgSuBDwN/AqzIXVD1yreIO96iXvyt5sqhMbQ9cAxwBuF+ZROBOd+yCbgMOBk4jOl7q9Iw55MxQM9vrhwaE/sBK4ELgA20H5jzLasJAX88IfClQedhgCqjJcBzgI8RGnTaDsRRljWEE+ZVhNZ/6VwyBuh5zZVDHbKMcGl+FnAP7QdfruV64DRCI1eVHgHqHwNUtXg08Grge8B62g+3ppc7CT8YLwCWj/hZanycQ8YA/WZz5VALpu5nXkzoHtR2iHVlWUu4x7sS2DP509U4yBqg5zZXDjVgIaFl+mTgGtoPqnFYNjPdqv+E2A9cnfd1DFDNYTvCPb7TCMMj2w6kcV+m7ps+nfi5JdQ9X8MA1Qy7Ai8DvkFoeW47dPq63Ax8nDDiattK34y65mwivnOHcvbX/sCxk8vhwKJ2d2devwZ+CPwbcAVwLXAHsBR4PPAk4BnA04ADW9rH+ewJvHJyuR/4LqHS8W3g3hb3S9VFZ1zML+w5te2mcjgMeC9hoo22a2PzLb8FvgScSAjIGLsBfwqcyXj0Rd0AfB94LWEcv7rrK8R9twboGFsMHAl8BLiJ9oNiruUewi2ENwCHUu+QyidMbvc84IEOlHWuZQthboCTiP/hUH5ZA/TrzZVDs9iO6fHmt9F+IMy1DHZMX5LjwxhiEaEmfhLjMbx0FXAqoRHKcfrti7oHSuSLv9ZcOTRgF+AEwq9jl2tYU/0lT6I79yl3Jox7P4Pu9zpYjS36bTNAe2JfxmOSjtsII3aOB3bI8UHUaKrf60mEwQJNTbGXstxO+FyPwWGlTcoaoF9trhxFOoTpk7urI4EGO5KP+/RwjyQEf9fH+N/F9I+Uw0rzMkDHyGLg2YTLttW0f6LOtjxIuPp4KeF2Qh8tBo4A/pYww33bn/lsy33AFzFMc8kaoGc3V47eWgYcB3yWULNo+4ScbbkN+CTwfEJfzNLsQ+h29F3Cg+za/j6GLQ8RejacgDPv18UA7aCpkUDnEg76tk+82ZZrCS3CT8NGjEE7AC8EPkPo3N/29zRsmepr+ipg9yyfQhmyBuhXmivH2JtqOT+P7jYCDd7PPDjLp9A/gxOwXEb73+F83+sBOT6EHssaoF9urhxjaU/gdcA/EZ7F0/aJNGx5iBDq/x14VJ6PoSiPA94EXAhspP3vd9hyOfAOnD2qiqwB+qXmyjE2HsN0d6OunkB3Ea4eTqD7XY3G2XK6P3P/KpyKby4GaAP2Bd4MXEJ3uxvdRHi077Po/kQifbQNYZjt6cCvaP94GLb8FHg7oRatwADN5NGEPpo/of0Df7blF8DfEJ7HPs79M/tmAd2f6OVywvH92EyfwbjIGqBfbK4cnbCE0OXoW3T3nuaVwLsJE3RoPOxPuIL5Ed08ri4lTM7S1z6/c8kaoP/YXDlatQ3hfuENtH8wD1um7mMdlKn8ak6X5zlYT2hwPJ4w0KAEX8UAHclBhIBq++AdXDYBFwGvJzRaqZ+WE54CehbdG2RxMWX02shaA/1Cc+VoxZPpTuvpeuA7wCsIY7ZVlsWEaQD/nu5MW3gN/Q9RAzTRwbQ/yuQhwpyrLwEekbe4GiMLgWcS5kxou0X/CmD7vMVtVdZL+M83V45G7Ud4IFgbB+R9hFsjL8TJITS/BcBTCJOeXE87x+w59HeorwEaaSfg/9HsAXgn8A/A8/DpjRrNkwjdo66m2WP4LU0UrgVZA/RzzZWjMZ+imQPuZuCjhM7VpbRoqlkHA++kmb6m6wltBn2TNUDPaq4cjXgcefvh3UK4b+XsRmraocBfA9eR7/j+Gc0966opWQP0s82VoxHvof6D6m6mH8VgTVNdcAih33COfs2nNFeMRhigEa6gnoPoPkJoHo3Pr1F3LSTMuv9xwn34Oo79DYT7sH1hgFa0PaNdvq8nPObiOMqcsV3jbRvCVdI3Gf021k8b3vecsgboZxorRn6Hk3aw/IIwTnjX5ndZymJPQkv+/aSHaF8mr8kaoJ9urhzZvZT4g+QcnBpO/bUH6Q837EsjaVSA9qXQKfZPWOfThMclSH10K/D+xHX7UgONEhugE1n2oh17JaxzVe17IXXLD9regZZF/RCUXANNuYd5W+17IXXLdYQG0lh9yZKoSmLJNdDdIl9/L2GyD6nPJgiX8rH6cgmftQbalw8J4mfbTjmopHF0e8I6fcqGyvpS7U4RO/PR3Vn2QuqetQnrGKCFiZ3TcF2WvZC6J+VYN0ALs13k6w1QlcIArajUAF1KfIf4lJZJaRwZoBWV2oi0LGEda6AqRckBaj/QClIenWENVKWwEakia6DVGaAqhR3pK+pLoWMZoNLsUuZ76EvlKkqpAZpyCe8kIipFn0YcxnIkUgUpT8Is+aBSWbYkrNOXypiX8BWkPKso5aCSNF5sha8gZVJka6AqRcqx3per0ygGaHUGqEphgFZU6j1QL+Gl2RmgFZX63PKu1ryPAZ6f+T3OB86LeH0T+5SiL+WIFVvuFCU3IkUpNUC7WgM9DDgx83vcStwJ2MQ+pehLOWLFljuFNdCKvISvznugKoUBWlGR1W7SGpG8B6pSlBygdmOqwFZ4aXYlB2iUUi/hUwJUKkVKgPalMuZIpAoMUKlefalcRSk1QEvtfSBpbk4mUoE1UKlefcmGKKXWQEstt5RLkedUkYWm3HJLqpFBIqkORV7CxzamFPkhNehsYFXm97g68vVN7FOKvpQjVmy5m1JkZazU1uiu/hCsonsneRf3KUVfytFVXT2nsiryV0NS7QzQCor8kCTNq8hsKLUGWuSXLWXUl3PKyUQkNa4vARrFS3hJdSgyG0qtgRb5ZUsZFXlOlRqgkuplgFZQ5IckaV5FZkOpNdAiv2wpoyLPqVIDVFK9DNAKivyQJM2ryMpYkYWWVLsiK1elBmiRX7aUUZHnlJfwkupQZDaUWgOVVK++BGhUOZxQubrjgYPb3gmpAYckrNOXyljUc+GdULm6gzFApb5zNiZJjSvy6rTUAC3yy5YyKvKc8h5odWdPLlLfHT+5xOhLZcx7oJlcjQGqMqQ0IvWF90ArKLkmLeVQ5DllR3pJdSiyMlZkoSXVrsjKVakBWuSXLWVU5DnlJbykOhSZDaXWQCXVywAtSJFftpRRX84puzFJalxfAjSK90Al1aHIbCi1Blrkly1lVOQ5VWqASqqXAVpBkR+SpHkVmQ2l1kCL/LKljIo8p0oNUEn1KjJLvISXVIcis8EJlbslZSJbVZMyIXYXv4+uTuxdZDY4oXK3HEL3Tti+SJkQu4vfR1cn9i4yQIu8b0GhX7aUUZHnlPdAJSmRASpJibyEl6RpWWdjMngkDVNkNpRaA5VUr6jnqXeYNVBJSmSAVtCXX0upK/qSDc5IL0lNKLUGKknDRGVcqWPhu3oJfzawqu2d6KmrE9bp4veRUo4m9CUbojgWvltW0b0TtmR+H9V1tVISy0YkSWpCqQHal19LSfWyFV5S4/pSuYpSag1UkobxHmgFXsJLGpmX8JI0zRqoJCUyQCvwEl7SyLyEl1SHvlSurIFKUhNKDVAv4SUNY0d6SWpCqTVQSRrGe6AVeAkvaWRewkvSNCdUriClBvrfgMPr3hGpg/ZLWKcv2RCl1ABNsR9pB5ak8WErvCQ1odRGJEkaxnugFaTcA/0ccFbdOyJ10AmEe/4x+pINUXyoXHU3AD9oeyekBjw9YZ2+dA20H6ikxvUlGwzQCvryaympRbbCS9I0a6CS1IRSA9RLeEnD2JFekppQag1UkobxHmgFXsJL9epLNkTxEl6SplkDlaREBmgFW9reAaln+pINUbf3vISXVIe+tCtEZWKpNdDNbe+ApPFXaoB6CS9pGDvSV2ANVKpXXypXUUqdULmrAZoykW1uKRNJx5ajiffoCyf27pBSA7SrN7z3A45qeydm+HHCOrHlaOI9+iLls1J1XsJX0NUaqKR22Q+0AhuRJI2s1AC1BirVqy/ZEKXUALUGKtWrL+eU90ArsAYq1asvARrFGqikOvTlnLIRqYK+fNlSDinneV/OKS/hK0j5svvy4yHNJyUXDNC6N95hKfdAS/2xUXlKroFGKTVArYFKsys5QKPKHjuUsy+6WgM9C7i4gfeJcUPCOrHlaOI9+iLls4qVEqBdHR6dValj4btaA72BZk6Q3JooR18+qy5KqSz0pWug90Ar6GqASl1gDbSiUhtGUgK01M9K5fEeaEWl1kBTLjf6UnZpPiUHaJRSA9RLeGl2JQeoHekr6GorvNQFJXekj1JqDXRjwjqldvlSeUqugUYpNUDXJ6yzpPa9kLpp24R1+hKgWZ8L3xcpAZpyUEnjqOQAjWINtDoDVKVYmrDOptr3YgwYoNUZoCpFSoCmnFNdZCt8BQaoNDsDtCJroNUZoCpFyrHelwCNUmqAriF+7G7Kr7I0jkqugUYpNUA3Aw9GrvOIHDsiddCOCev0JUC9B1rRfZGv3y3LXkjds3vCOutq34t2eA+0otgA3QVYlGNHpA7ZFtg5Yb2U0X1jr+Qa6D2Rr19ECFGpzw4kvqJwC3akr6RPNdBfJ6yzb907IXXMkQnrXFX7XrQn6yV8n2qsqxPWeW7dOyF1yG7A/0hY75K6d2ScTEQsd7a0jzmcQFzZJwjD1b4DvAjYrvldlrLZH/gl8efEBPD0FvY3l+uJK3vUi+9urhzZ7Um4b5NywEwA9wKfBI7Cqe40npYCRwNnAA+Qdh78hn41rmYN0NiGl647j/QAHVzuIITpc4BtGi2BFGcF8BLgbNJDc3B5X7O7n90NZAzQ2K4/XfdEQqf6OkJ0sJZ+FnAMziGqbtgbOJFQYVhPfcf6OuDRDZajCTeSMUAfaK4cjTmbegN0Zph+Gng+DgVVs54EnAxcQb7j+7SmCtOgrAG6prlyNGZfwq2JXAfZ4I/PV4A/BXZqomAqymJCF6SPEHqY5D6eb6Wfw5tXkzFA1zZWjGa9kPwH3OCyntCafyJpw+YkgB2A44HPE652mjp+txBuUfXRajIGaF/Guw7zUZoN0allM3Ax8BZCVxJpLnsQfni/TTgf2zhm/2f2UrbnJjIG6IbmytG4RYT7lW0ckIPLKuBUQt+6Po38Urr9gJWEH9q6Gz1jlzPp14CamX5FxgDt+3NPFgKfoP0QnVpuBD4IPJN+9bXT3BYChwN/S3rn9hzLh+h3eELmAN3cXDlaswB4I+1dHs223A58Cngetuj30XaE+4qfAn5L+8fb4PJL4MX5it4pWQN0orlytO4A4BzCNF1tH8Azl/uBLxOGlNqiP752AV4KfJ3ppyR0ZVkLfAn4Q/pf6xz0azIHaEkfJoQJFl5PmDCh7YN62DLYov+oTJ+B6rMf8CbgIsItsbaPn8FlM3Ah4Vhakan8XZc9QEse9/044G3AZbR/sM92AlwMvBlb9LtiAfC7wHuBn9H+MTJz2UKoHKwkzA9Rut+QOUAdnhg8ltD16BJGm5Qk53Il8B7gMGzRb9ISwrwIHyW+RtPU8lPgrwjHsaZlD1Af77u1vQi/4D+i/W4msy2/Ak4nzB7lhCf1W0FoaPkyYc6Itr/vYcu1wCnAEzJ9Bn1wM5kD1Hkw57YH8GrgAkK/2bZPmmHL3YTRK8cTRrMozb6EH84f0M3GxgnCbPGnECbO0fxuIXOALmusKONvBSGkziK0nLd9Mg1bNhLum66kfzPr5HAIYZKOy+jurZtVk/t4cJZPoN9uJXOAbt9YUfplKeHy+TTiv6Q2Tr7DsnwK42dbpr+3rt7PHPzeDsryKZQje4Du2FhR+msRYajmqXRrpMnM5XpCcJQ26/7OTF85dPV+5mBoPj7Lp1Cm28gcoH2cwqptTya0lnexm8vUcithmOvR9HMk1P6EB6pdRPf6Z04tm4AfAm8AHpPlU1D2AC21g21T9iXcj7yA7jZMrCHMbn4iYaDBuBq8n9n2Zzrbso5wLKwkNFAqr9hhtNFf6C6NFUW7Ep4eeh7dG5s/tWwiNEKdRPcvJZcTxpufQXx/vyaXqR+oE3CobtOyB+gjGyuKBi0jnPxnEZ4I2vZJPtvSten4pqaCu4B6nwdU93In08/Ssq91e24nc4A63rp92wJ/RKhJxd6zaXK5gTAF2hE0Nx3fjsCxwMdo5tEWoyw3Ej4fpyvsjuwB6iMoumUhocvRycA1tB8Ksy13EZ4JdQL1dt5fNFn+k+h+LXOC6Z4NXamh6+HuIHOA2tm6254IvBP4Cd3t6P0QcC7wcuJvCS0j1NjeDpxPdwcoTC2bgH8G3kqYjEbdFhWgCyb/EGMvwg14dd9jCJezxxIuo7s4Bn4zYUKWcwldiK4iNJhtS2iwPGhyOZgwq9GT6WY5Bj1EqA1/k9AYdEe7u6MIdxAabyuL/UXdu8adVXOmWqC73gg1rstUI5DzC4y3u4j73qMPlH0aK4pyWUy4B3ca3e7O0/Wl1JFafZY9QJ0/sH/GoUN5F5bNk5/RyThXQF/dTeYAdabzfnss3R8J1eSylumRQM7Y3n/ZA7Tro01Un10I3Y6+AjxA+2HW1JKry5W67x4yB+iBjRVFXbIcOA74LPH3icZh+QXwAezUXrrsAep8gxqcju8XtB9+KcvURNIn4cTDmhbbQyX6wPNg00yHEILoYrrbeX+CMOx1qquR89pqmNj5X6MPwkMbK4rG0d6Eae7Oo/1hlZt4eKu5Qyc1n+wB+h8aK4rG3QrgJcDZNNcI9Vvgc8CLCDPLSzGyB+h/bKwo6pPBZ0LFPjp2ruV2Qm33JKxlanRRcyukjIV/MnBFXXurIi0EngL8CfB7hBm+9mDux8VsIDzU7UbgSuBywuX5dcQfw9Js7iei61rK8LOFCetIg7YQJhC5ZMi/LWA6SB9BmJhjA+HSaksje6eSRV3BGKDqmglCXzwG/is1JSpAU8LQAJUk0sLQWWck9VX2GmjXJ7OVpEZYA5WkadZAJakJBqgkTbMGKkmJDFBJaoIBKknTstdAbYWXJKyBStIg74FKUhMMUElKlBKg29W+F5LUDdkv4ZclrCNJ48AAlaQmpATo8tr3QpK6wRqoJCXKHqDWQCUJa6CSNCh7DXSnhHUkaRxEPSI7JUD3SFhHkrpuCQ3UQPeIfRNJGgMvSVlpImHZuYadlaSuWABcRWQWpj7j/XGj7q0kdcjzgENiV0oN0KMS15OkLvrL1BVTLuFXAYtG219J6oT/RFoOTjDCin/eQMEkKbcf0EKA/gantpM03v6Q9AwcKUAngDfnL58kZbEtCS3v1Biga4DH5y6lJGXwPkbLv+gAXTPk735Iemu+JLXh94GNbJ1nDwz5u9oC9GPAZUP+fmXeskpSbR4J3MTWOfZvwFuG/H1tAfpBYH/gvhl/vwE4ImOBJakOi4DvsXW23QDsDrxmyL/VFqAfmtyJFw35t9uBx2YqtCSNagHwSbbOrjuAAyZf89oh/15rDXTKqUP+/efAipoLLUl1+BuGt+s8deA1rx/ymiwBuhA4d8hrrgB2q7HQkjSqd7B1Vm0EjpnxupVDXpclQAF2AH425HVXA3vWUGhJGsUC4H+xdUZtAV425PVvGvLabAEKsA+weshrVxO6CkhSG5YAZzI8PF81yzpvHvL6rAEKsC9w45DXryfcU5CkJu0B/Jjh4TlXJr11yDrZA3Rqh4f1EZ0g3Cvdp3LRJSnds4Gb2TqHNgAvn2fdk4asV1uA/u953nw58KVZ1l0DvAtYOl/pJSnBDoTBPlvYOn/uAv5zhW28bci6jQXolFcDD82yjdXAGycLK0mjWgy8gjBD3LDMuZLpfp7zGdZa33iAQphk5IdzbOte4P0kTKMvSYTZlF4GXMvwjNlEmDBkScQ23zXLthoPUAhdCF4MXD/Pdq8G3kNotd8l8j0klWVnwqX2LcyeKVcSZpqP9e45trnVsniUUlQwAfwj8FVCt4F3Egbyz/QEQvK/a/L/HyQMDb0XWEu4HXDv5H/XD6x3z4ztPED41ZmyFlg38P+bJl8zaOY25rJucpt12AzcX9O2SvcIxu9R28uJqxl1wRLCfrfpGYSGoNn242ZCjnyWcC80VtTMcrkDdMoG4CPAZwj9rN5AOOhns/3kIklV3EG4Qj6dUNFKFRWgsfN4TkS+fqb7CVXkvQgNSbeOuD1JZbsDOIXwqPX3M1p4QuYArcuDwGmE2ZteSWg9k6Sqbgf+ijCI52Tqux3WyUv42awHPkG4X/EyQgdYSZrLj4BP8fD2jbqMVYBOWQ98fHKRpLZ0+h6oJHXZWNwDlaQuMkAlKZEBKkmJDFBJSmSASlKiqCHBtsJL0jRroJKUyACVpEQGqCQlMkAlKZEBKkmJHAsvSYmsgUpSIgNUkhIZoJKUyACVpEQGqCQlyhqg4/bsbUmKYYBKUiIv4SUpkTVQSUpkgEpSIgNUkhJFZeLiyI13IUAXAI8F9gceAWxDKPR6YA1wE3AtsLmtHZQ0tqLbhSYilg/Xtpvx9gFOB+4dsl8zl/uBz0+uI0lVXUhcJka9+LTmyvEwf0y14Jy53As8u4X9lTSeLiIiY8bhHugLgHOAnRLW3Qn4NnB8rXskqa961Q/0GYRL8VH2c1vgC8BzatkjSX3Wm1b4nYCzgaU1bGsbQojuXsO2JPVXbwL0FOBRNW5vV+D9NW5PUv9EZVxXA3Qf4LUZtvtnhO5PkjRML2qgL2b+PqpXAa8BDptcXgusmmedRcCfj7pzknoraz/Qv69tN+d25Rz78AAhLIcVdCHweuDBOda/PPO+Sxpfl5OxH+gZDRRgCbBplvf/DfA7FbbxpMnXDtvGJkLLvCTNdAUZ+4HGDv1MsS/hUnum24BnAT+tsI0rJl/72yH/tmjyPSRppqz3QJsI0GEd5jcCxwDXR2znesIIpo1D/m3HhP2S1H9jH6D3Dvm79wGXJWzrUuDUIX+/IWFbkvovayPSl2vbzdntBGwZeM97gB1G2N6OPHwc/RZCn1BJmukaxvwe6H2Ee5hTvktoeU91/+Q2plwH3DnC9iT1V9ZL+G0iX5/qOwN//lUN2xvcxiU1bE9SP439PVCATxImSIZ6Rg49fuDPX61he5L6Kes90O/XtpvzO23yPe9jtAlFljHdsf5qhneRkiSAG8nYkf7C5srBLsANk+/7yhG28zqmG4+eW8N+Seqvm8gYoD9qrhwAHEpoBPoVaX03dwJuJuz7B2rcL0n99GsyBui/NFeOf/cHhEvwlGGkZxL2+0y6P3m0pPZNVbiyBOilzZXjYZ5C6Hp0dMQ6Lyc8pXNllj2S1Ee3kjFAf95cObZyAGFW+So1yScDn8CnckqK81syBmjMWPQ2rWh7BySNpTuIyMTY+4Lb1befWd3T9g5IGktZO9Ivi3y9JI0TA1SSEmUfC9/UcE5JalrWAAVroZL6ywCVpETZA3SUyY0lqcuyB6izuUvqKwNUkhJlD9B9E9aRpK7bhgYC9LCEdSSp696UslLMWPgJwgPebEiS1Cd7M/3kimyTiUwtb2ymTJLUiPOIz8EHIdQoY1e8G3hkI8WSpLyOI60i+QGA9yau/LkmSiZJGe37RcYNAAACzElEQVRI/GM8JoCHgN0hPDfozoQNTAAvzV8+ScrmLNKy78ODG3lL4kYeBJ6UsXCSlMt/JS331gKPHtzQUsKTL1M2djvw+GxFlKT6/Q5h4vWUzPu7YRv8i8SNTQC/BPaqvYiSVL+DiXx0x8CyBnjMsI0uBP41caMTwGqsiUrqtmcBt5Gec6fMtfHfBzaPsPHbgGfWVFBJqssi4G3AJtLz7WZg+/ne6IwR3mAC2EAYEpUyTFSS6vYM4KeMlmsTwDFV3mw5cHUNb/Zj4NARCi1JozgA+BKwhdHz7OMxb/xEQkfRUd90M/B14I+AAwnhLEk57Q18CtjI6Bk2AaxiluxaMMdOvAw4c+SibG0tsI7Qh3QjcD8haAef5T71b4NmPut9A6FFbFCV9TZOvi7GesIPSoypcsZ4aPK9mnQv4SDpmgnCvklVPQp4O/BKYNuatnk78FTgxmH/OFeAArwbOLmmHZHUDWsIFZC+WQ4sqXF764AjgX+Z7QXzBSjA6cDr6tojSRoDG4DjgW/O9aJFFTb0fULHUYdsSirBesIMTefP98IqATpBmCtve+Bpo+2XJHXafYTw/G6VF1cJ0CnfJ9w7ORL7eErqnxuAo4D/W3WFKvdAZzoC+CKTc+FJUg98D3gJYWrPylJqkhcR7odekLCuJHXJWmAloa96VHhC3CX8oAcJM9JfBzwdO8hLGj8XAP8F+FbqBka9l/kF4CDgI4Qkl6SuuxY4FngOcM0oG0q5Bzqb3YG3EkYBWCOV1DUXAR8idE/aUscG6wzQKTsBLwROIMyCkuM9JGkumwlzFP8CuBD4BnB93W+SO9x2I/Qf3ZFwv3UhIWAhjFVdNvnnHYDFk39eCmw3xzbn+/ftJl8zm2VUHyc7uF91m68co1hM2PdcVmTcds7PXMHM+SFyrxcz38LgHBez/XlqbooNhLk07p98j6k/30MIy+zDVf8/pbd/UgBL4LEAAAAASUVORK5CYII=" vertex="1" parent="1">
          <mxGeometry x="360" y="380" width="70" height="90" as="geometry" />
        </mxCell>
        <mxCell id="4slyxXOM6MHCRde4LKaO-20" style="edgeStyle=orthogonalEdgeStyle;rounded=0;orthogonalLoop=1;jettySize=auto;html=1;" edge="1" parent="1" source="4slyxXOM6MHCRde4LKaO-9" target="4slyxXOM6MHCRde4LKaO-14">
          <mxGeometry relative="1" as="geometry" />
        </mxCell>
        <mxCell id="4slyxXOM6MHCRde4LKaO-9" value="" style="shape=image;verticalLabelPosition=bottom;verticalAlign=top;imageAspect=0;image=data:image/png,iVBORw0KGgoAAAANSUhEUgAAAVEAAAG2CAYAAADGN7V4AAAACXBIWXMAAA7DAAAOwwHHb6hkAAAAGXRFWHRTb2Z0d2FyZQB3d3cuaW5rc2NhcGUub3Jnm+48GgAAIABJREFUeJzt3XeYJVW57/Fvd09PYiIMEpUcBRUFRTwgURQkKmDEeNQrHrMier33+JgueriKHjkH4zkqD4gJDEgSMIECopJHkjAMMDDMDAyTw75/vL3vND27u/da76pVYf8+z1MPw0xX7beqZ369qmqFPvLbAdgC2BSYDWwCzAL6gIlD/w8wHZgw9OsBYMYox5sCTB7lz2YC/R1+f8LQ8ccyY+hzc8n9eamsBZaWXUSAZcDqTJ/1JLAu02ctjtxvJbAiwdesApYn+Jql2N8pgKeANUO/Hv59a/+6/XdvydDvrRrn2IXoK/j404ADgYOB/YB9sMAUEUltDRa8i4GFwP1D233ANcDtRXxoESG6PXACcDzwYmCwgM8QEQl1H/A14OskvHtKFaKTgFcBpwEHJDqmiEgRFgNfBM4iwaOdFCF6DHA29qxTRKQu7gLeDVzpOYgnRLcGvgO8zFOAiEiJWsCXgI+x4SVWkNgQPRT4PrBV5P4iIlVyI3AKcG/ojp26/4zng8AVKEBFpDn2Bf6EvQwPEhKifcCZ2MPYmPAVEamyOcDVwMkhO3Xbubsfe/55WmBRIiJ1MgE4EZgP/KWbHboJ0T6sb9Xb4+sSEamNfqzX0UPATeN9cTcheibwfmdRIiJ10gccBdwN3DLeF47lzdhtvIhIL1oDvBy4arQvGCtED8Q6oU5MVMwTWOfWR4BHsTGuK9gwucHwSQ6WYP23Oh1jfYffH22ih+GTGQxX9CQULewcekk/NuFL1ZVd51iT6eTQzeQ7RRrE5tTIYR/gI2yYyCjWImB/LL+6Ngd7sNpKsN0IvJbRZ1oSESlKO/y8OXYngeH/kwQfej/wGoqfKUpEZCzTgG/gz7RvdvuBpzo/aD1wDuXeMoiIjHQC9kjQk28njvchM7FnlrEf8ATWNUBEpIr2xHd7/wjjPNM+y3HwucDuiU5URKQoWwC3EZ91Z4524C2xN+QxB70cW+pDRKQOtsBmuo/Ju5WMMvXnZyIP+HX8XQhERHLbHlhAXO59Y+TBBrE1SUIP9CM0GYmI1NdLiLsDXw1sN/xAR0QcZCmaDk9E6u904lqj5ww/yJciDvAfhZ6WiEgeA8AfiXs2um37IJdHHODwos9MRCSTfbCh46E5eHb7AHMDd1yBlkIWkWb5LuEhuhxsWOaKwB1vzHNOIiLZbINNjBQUpP1Y/9DQyUHGnF9PRKSG5gP/N3SnfuI6yd8esY+ISNWdFbpDP3Fz+82L2EdEpOqWh+4QG6IPRewjItI4/cAmEfspREVEiA/Rh1MXIiJSRzG38yuxNYpERHpeTEv0iSIKERGpo5iW6JNFFCIiUkf9wKTAfdQSFREZ0k/4hMpqiYqIDIkJUbVERUSG9BM+G1Nwj34RkaaKaYmuLqIQEZE6UoiKiDgoREVEHGKeiSpERUSGqCUqIuKgEBURcYgJ0TVFFCIiUkcxIbqqiEJEROpIL5ZERBz0TFRExEEhKiLi0D+0hVCIiogM6Qf6AvdRiIqIDFGIiog4KERFRBwUoiIiDqEvlUAhKiLy/8W8nV9XRCEiInUUczvfKqIQEZE6UoiKiDjEhOj6IgoREakjtURFRBwUoiIiDrqdFxFxUEtURMRBISoi4qDbeRERB7VERUQcFKIiIg66nRcRcVBLVETEQSEqIuKg23kREQe1REVEHELXnAeFqDTPDGCgi69bXHQhUk+3Y8HY7bZzOWWKuB0AfBe4EXgQWEHY3/3T85csmQ0S9neiBXBn4A475jobkcTmAHMJ/0fS3tYDb8teteQUFaKhf6l2yHU2IgXYEXiE+CBdC5yYvWrJJSpE/x64w/aZTkakKPsCS4kP0uXAgdmrlhyiQvSuwB2eletsRAp0FLCG+CBdAjw3e9VStKgQvTtwh2fmOhuRgr2d+BBtAfPRnVnTRIXoPYE7bJvrbEQy+BS+IL0L2CJ71VKUqBC9N3CHrXOdjUgGfcC38AXp9cC03IVLIaJC9L7AHbbKdTYimQwAF+EL0l8Dk3IXLskpREUiTQNuwBek52FDqaW+okL0/sAdFKLSVHMI7/I3cvta9qolpagQfSBwB4WoNNlO+Drjt4CPZa9aUokK0XmBO+jFkjTdfsBTxIeohofWV1SIPhi4g0JUesHR+Drja3hoPUWF6PzAHRSi0iv+Gd9tvYaH1k9UiD4UuMM2uc5GpAI+jS9IlwDPy161xMoSohqxJL2kD/gOviB9ENgud+ESJSpEQ99EKkSl1wwAP8EXpBoeWg9RIbogcAeFqPSiKcDv8QXpDWh4aNVFheijgTsoRKVXbUb4cjojNw0PrbaoEH0scAdNhSe9bBvCR/mN3M5Hw0OrKipEFwbuoBCVXrcn8Di+INXw0GqKCtHQvwya2V4EXoRvVFMLOCN71TKeqBBdFLiDQlTEvBLfqKb12Oz6Uh3BIdqHhejsgA/ZHnsm1EQzsO4sZXkSWBe4T+qa12AtrLJNBDZJfMynsPNL6a3AN7H+pDHWAq8GLk5WkXgMAqtDdphA/De/aKcCewEzh7Z+YNaw/w5gAdLJNOxidDIdO+8q2g2bii3EtcCzE9awEjgBuDThMUNtir3FTj3S5+XAZYmP+W1gS+CzkftPwF40HQn8LlVRktcSwpqv22eq6x2BdTVh2zXiOt1aQB0rsMApwyz8kyOPth1ZYN1fcda2GNi7wPqkO1HPRJ8I3GH7TCcD9gaz7GDLuVUlRFuUE6QzgOsS1D7aVmSI9gMXOOvT6qHliwrRJwN32CHX2WC37D8MrK/OW5VCtIUF6SsiaooxDbudLfL6FhmiYM9xr3DWOBfYvOA6ZXRRIRraTWP7TCfTNgj8MrDGum5VC9EWsAo4JqKuEFOBqwo+jxbFhyjYM/cbnXXeMHQcyS8qRJcF7pCzJdo2BbgmsM46blUM0RbFBukk4JIM59AiT4iCtSTvdNaq4aHliArR5YE7lBGiYM/LinrhUJWtqiHaopggnQj8PFP9LfKFKMCOwMPOejU8NL8sIbpjrrPpYA7wt1HqasJW5RBtkfYZ6UTgZxlrb5E3RAH2IfzF7cjtK5lr7nXBIdpPeD/RMvuVLgQOx4JD8puMzauZIkjXYt3rmuwvWJ/bVY5j/AvwiTTlSFFWEpa8ZbZE2zYHbqH8lmPqreot0faW6tZ+APh+xrpzt0TbjsN+aMTWreGh+UTdzoeG6E65zmYcz6CcAClyq0uItkgbpOdnqrmsEAV41xh1dbOtBV6VvereExWiKwJ32DnX2XRhS/xvQau01SlEW6R7RjoIXJSh3jJDFPyL3q0ADspedW/J0hKtUoiCrVvjnW28KlvdQrRFuhbpRPzrGI23lR2iAF/Fdw5PYC+spBhZWqK75DobyWIK/lE2KVuknYJ0HTbg4gPAIdiEK5tTz36UA/hb3Q9RXlfDplOISpSqBel5w477FHBEguNWyRTgt/iu91zsvYCkleV2XiHaTFUK0j7sRcxlNPcZ4CzgZnzXW8ND01OIikuKIM0x1r4ptgbuw3e9r6KejzWqKkuIxrz8kPpQkOa1M7AA3/X+KeWuyNAkClFJYhLwCxSkuewHLMV3vc/JXnUzKUQlGQVpXodh18tzvf9n9qqbJ0uI7pbrbKR0CtK8Xod15/Jc7/dkr7pZFKKSnII0r/fgu9bt1UMlTlSIht5C7J7rbKQyFKR5fRH/tT48e9XNoBCVwihI8+kDvoPvWmt4aByFqBRKQZrPIP5lUxagft2hsoToHrnORipJQZrPVOAP+K713dgkPdIdhahkoSDNZzPgDnzX+m/YMFMZX5a383vmOhuptCnA5fj+ca8EjspdeA1tB8zHd62vxKYblLFlCdFn5zobqTwFaT57A4vxXWutHjq+LLfzaonKcKlu7Y/NXXgN7Q8sw3etv5a96nrJEqJqicpICtJ8jgHW4LvWp2evuj4UolIaBWk+/4zvOq8H3pK96nrIEqJ75TobqR0FaT7/C991Xk2aCbSbRiEqpVOQ5nM2vuu8DDgge9XVphCVSlCQ5tEPXIjvOi9EoxCHyxKie+c6G8lqAnAGNvnFjATHU/enPCYBV+O7zvcBW+UuvKKyhOhzcp2NZLMH8Hs2fI/vJc33WUGax0zgr/iu81+HjtPrFKLS0SAwe2jbGngB8ErgQ9iKmp3+DjwO7JvgsxWkeWyF/fDzXGctepcpRJ+b4UQ2A/4ScTJ132KWXrm1wHqWkObFQxWD9J+AM4FvAz/BAuTGoe124J5h2wJg0bDNO/v88O2khOe0C/Cos54L6e1RTY0JUbAg9d6i1G2rWoi2gCeBl0TUNVLVgvQlWDefsr/nKUMU0ix699XENdVJo0IUYA5wc2B9dd6qGKItmhuk73LWkmJLHaIAL8O/6N3HC6irDqJCNPSncc4QBdic3gnSqoZoC3gKODiivpGq1v3pU85avFsRIQrwGnyPHdYDbyuotirL0hJ9Xq6zGeYZwG2BddZxq3KItmhui9Tbad2zFRWiAB9w1rYGOLrA+qooS0u0jBAFC9KcgVHGVvUQXYy92U+hSi3SPuCbzlpityJDFOzlmae+5aT5wVkXWUK0zMWvtsQ/y3eVtyqH6BLspUVKVWqRTgB+7KwlZis6RPuA/3bW2EujmhofomDrxTT11r6qIboMOCiitm5UqUU6CFzsrCV0KzpEAQaAnzrrnAc8M0OtZeuJEAUL0tvJ+5c9x1bFEF0GHBJRV4gqBelE4GfOWkK2HCEK1uofPiotZrsVG7DRZFlC9Pm5zmYc2wJ3ke8ve46taiG6inzTpVUtSH/urKXbLVeIgvW99jY+fgNMzlhzbj0VomBBejf5w66orUohWsZqnFULUm8t3Ww5QxTs38z9zpovxh4RNFFUiIYuNVClEAV7TnMP5QVfyq0qIboWODmilhSqFKRTgCuctYy35Q5RsNUpHo+st739Z/aq88jSEk3VxUVkNFV6a99UB2LdlzzX+JPZqy5elpaoQlRyqFKLtKlSLHp3Wvaqi5UlRFNMjybSDQVp8U7FhnjGXt+1wInZqy6OQlQaR0FavE/iu77LsakFm0AhKo2kIC3el/Fd3yU0Y8L2LCGaeuifSDcUpMVKsejdg8CzcheemEJUGk1BWqyJ+HtF3AZsmrvwhLKE6AtznY1IBwrSYs0AbsJ3ff8ITM1deCIKUekJCtJibQ78Hd/1/Rk2M1bdKESlZyhIi7UT8Ai+6/v17FX7ZQnRF+U6G5FxKEiL9QJsNQPP9f3X3EU7KUSl5yhIi3UINoTWc33/JXvV8bKE6P65zkakSwrSYnkXvVsLvCp71XGiQnRt4A4KUakiBWmx3o3v2q7AJj2pOoWo9DQFabH+D75ru4T8S66HynI7/+JcZyM9ZQDYJcFxpgCX4fvHrmn0OusD/gvftZ2HTQxdVVlaogpRSW0A+B7WUklxp6MWaXEGgUvwXdsqr9WUJUQPyHU20hMGgPPY8PdrKXBwguMqSIszFbgW37W9BvseVY1CVGplkM5rvT9FmhVGFaTFmQPMxXdtz8ceEVSJQlRqYyJjr4W+DDgswedMwr9yp4K0sx3xj2r6bPaqx5blxdJLcp2NNFa3LcRlwOEJPk8vm4qzL/YIxnNt35m96tFlaYkqRMVjEjY5RUh4pVi6WS3S4hyKXZvY67oWOD571Z0pRKXSYlfxXAUcl+DzFaTFeR2+tZqWU42eP1lCtClrqUheU/Gt4b4KOCFBHQrS4pyB77o+Rpq+wh5ZQrQOQ7ekWjbBurR4/oG1gCeAzRLUo2ekxfl3fNd1Lmm+x7GCQ7QPC9GBgA85CPhduppHdRz2U2lT7C/91KH/Tsb+UU7EukfMGmX/fmDmKH82gM3gXTX7AfcE7nMtsHsBtaQ0EfueeazEWqKX+ssB7O/SRcDLHMdYh00VV3XvBi7I9FkD2FpNnmWUr8VeKK5IUlGYQWB16E6hLdGDEhU7no8G1tWEbdeI63RrBeouelsJvCLi2ownRYu0DtubUl2wLk0Gfuus+cdYQyi34JZoGUV264tYZ1zpbauwVs2vCjj2Cuyt8OUFHLuXrcSu61zHMU7EMqDy+qneiIG2FvBm0t2+Sf2sBk7GxmoXZQX2kugXBX5GL1qE3T086jjGB7FHEZVW5ZYo2D+iV5HnGaxUSztAf5bhs1YBr0ZBmtp9wCux7kuxzgaOSFNOMfqxFl/oPjktx1oKf8v8uVKe1cBJwMUZP3MVFtq6tU/rBuCthOdM2wTgh8DOySpKrOot0bYl2FtUzzMWqYc1wCnkaYGOpGekxfgBcJ1j/5nAuYlqSS4mRMt6hvoo1qy/t6TPl+K1A/SiEmtQkKb3UXwTF7WArySqJbmYF0uxzfIU5mFzTSpIm2cdcCo2s1PZ9LIpnZcDn3Me41PkfbQTLHQVvxTzPHo9CwvSsvvfpd56tZ/oWuC1EedetBRDRKuwvSn1henS7tijOE/tF5L37jdLP9EqdIl6AJtr8oGyCxG3tdjkFVXsE7wKe8GlW/twm2Et+dFGDXbjWuzupJWkooLU5cVSJ/dhU3DNK7sQibYWeAPW2qiqldgQZAVp9yZjz7V3chzjHuzZ9MokFRWoziEKdqEPBeaXXYgEWwe8BXtzW3Ur0TPSbvVjiw56Znt7HDgam9Wp8iZE7FOF2/nh7sYmKplcdiEJxExmcQBhE8hURV0m72hrT8U3vexCIizL+FlnYQMXYq3AJuGuVXfG0BdLKda9EZHm+SC+l0jr8M3+lELUfKKhIZpizRsRaZaTCM+Skdt7s1e9sagQDZ3SXyEqIsMdiN2GewK0KjM2ZQnRSk8GICJZ7YG9CPIE6IVU5yW3QlREstkK62roCdDfUq2XwllC1LOcgog0w3Tgz/gC9HZs+Z8qUYiKSOEGsZUGPAH6ELB95rq7kSVEj8x1NiJSOX3At/AF6DLgRbkL71KWLk4vz3U2IlI5/4ovQNdQzKKDqWRpiSpERXrTO/AF6HpslvsqU4iKSCGOxVqRnhD9ePaqw2UJ0So3xUUkvf2x55ieAP2P7FXHUYiKSFLPxpY/9gToRdRnkpwsIXpUrrMRkVJti0187gnQa6hWZ/rxKERFJInNsM7wngC9BZidu3CnLCF6dK6zEZFSTAF+jy9A5wHPzF14AlEhGrqDQlSkuQaAn+AL0IXYInV1lCVEX5nrbEQkqz7gm/gCdDm+NebLphAVkWifwxega7HF5epMISoiUf4HvgCtw2ikbmQJ0WNynY2IZHE81or0hOgZ2asuhkJURIIcjC0J7QnQuoxG6kaWED0219mISKH2BhbjC9A6jUbqhkJURLqyAzYxsidAr6Feo5G6ERyiEyI+pC9JqWObA1wC7Jzhs6pkP+CewH2uJX2fvGXACcCNiY/bjSlYP8WqTtqb2luAizN/5ubApdgaSbFuBo7DHgX0vNCfPsdlqmtb4O6I+uq87RpxnW4tqJYlwAsj6vGYCPw8Qe112k5KcuW6NxX7weupua6jkboR3BKNWaY0R0sU4EHgEMJbZpLGTOBy8gXpIPBD1IWuSIPAj4EXO47xOLbi77wkFTVAlUMU7Bt1GPCPjJ8pG8zEbvv2LfhzJgDnoeftRWqvjeSZVH059kPuziQVNURMiOZ2P/BSbH1ryW82cCXFtUj7ge+Q/7a213wBeKNj/3XA64E/pimnOeoQomBzGh6MgrQsRd3a9wHnAG9IfFx5utOADzv2b2HrK12UppzmCX2ofGI5ZQKwE/5JYqu8VenFUqdtEfCCiBo76QO+lrH2qm5Ft8BfR/iKviO3OqyNlEqjXix1cg9wKDC/xBp62WzgCtIE6URgtwTHkdEdgT0q8dxx/js2MYmMoi6388Pdjb21V5CWYzbwa/y39quwF0lXuyuSTl6AvYmf6DjGxcD705TTXHUMUYC7sCB9qOxCelSqZ6Ttt73XeAuSp9kJ+CUw3XGM3wCvwR4FyBjqdjs/nIK0XDOBy0gXpL91VyRgo5EuAbZwHONWbMSaRiN1oc4hCvB34HBgQdmF9KhZWD9S7zPSZdit/fXuinrbdOz7EfOCsu0fwJHYxCTShT7sDVOIk7GRJVUyhWZMhPAk4bdPM4ifRWca9txrn8j92xZjLzH+7DzOLKxP6mihvBy4ARu3/RDwKLB0WA2w4Roux567dms1Fua5LRv6bK+J2C384Y5jLAT+CZiboJ66GiTi+xG62ufJiYqVatgUuInqdH/aFPjLiGOvAz6D/cCQjfUD5+P7/i0D9s9deAVlWTJZIdo8m1GtIJ2DtTZbWGvylATHbLIv4fu+rUGr+LZlmU9UIdpMs7BbZW+QLsam9PPaHJuKr+4LnxXtdHzfr6asjZRKlpaoWgXNtRkb30qX2SKt0kvMKjqV8H+/I7emrI2USpaWqEK02arWIpXODscedXi+R+dkr7r6soToa3KdjZRGQVpt+2G9Ejzfm6atjZSKQlSSUZBW085Yv2jP9+RqmtElsAhZnom+NtfZSOkUpNWyNTYdpOd7cQv2fZXOsoTo63KdjVRCqpdNjwPPz1x7k8wE/orve3AfFsQyOoWoFEJBWq7J2CQtnmv/GJp6sBsKUSmMbu3LMYANs/Zc82XAAbkLr6ksIfr6XGcjlTMbBWluX8F3rVfjW5yu1yhEpXAK0nw+he8arwfelL3qelOIShYK0uK9E//1/WD2qusvS4hqZUYBBWmRjgPW4ruun89edTMoRCWr2dgkIQrSdA4GVuC7nt9D8w7EyhKib8x1NlILCtJ09saug+c6/hyYkLvwBlGISikUpH47Ag/ju35/BDbJXXjDRIXousAdTs11NlIrc/CPqGlhHfK9y5XUzTOwhRc91+1W7IeZ+GRpiSpEZTRqkYabjv+azQOelbvwhsoSom/KdTZSSwrS7k3EVuf0XKeFwB65C2+wLLfzb850MpLfKcA78M8zOQf4G/4gXUhzb+37gQvwXZ+ngBflLrzhFKISZXOevlrkdcA2zmMqSMem4ZzVlCVE35LrbKQwz8C605wMfB17mTPy+3wvsJPzc1IG6fOctVTJJ/Bdj/Wov3ZRgkO0yv3JXgpsh03DNhGbT7Efe+bWx9Mnlu0f+vNOBoFpo/zZZGBKimITORyb8zHEpcAu43zNDDbcok+nu36EOwC/Aw4D7gisqW3h0P6/Bp4TeQywvwO/x2Z093gzdk5lehvwaecxPgx8P0EtkkhoSzTX8qqfDayrCduuEdfp1oJrmof9MPNI1SL1bkc6z8PrWPzDOc/MXnVvyXI7nytE+7HRF2X/w8u5VTFEW1gfxi0iahsu1Vt7z1ZmiO6PvQjy1K/hnMULDtH+iA/J9U1cj00AfX2mz5PR7Qz8At9omMXAK4Cbk1RUL3sBl+C7fr/A3ke0klQkyfRT7W/KUuwf3i1lFyLsC3zZeYzHsOe+vRSk22HPrT2jia7Fup+tTVKRJFXllmjbIuw27O7Mnysbexv+hc56KUjnYAHq6S52G3AMsDxJRZJcTIiW4WHgCODBsgvpcX/Gvhde7SBt8h3GJtgt+O6OYzyA9QVdlKQiKUQdWqJt/8D+4T1S0uf3ukVY38RUj38ew7o/NTFIB4Ef4RtN9DgWoGo4VFw/9XrbNxebtDZFa0i6twKbbX1u4uO2g7RJt/Z92AAGz2ii5dj1ju2fKxnFvFgqO3TnYrf2j5ZcR69YB7wW6+xehKbd2n8R39DoNcCrgT8kqUayCO0n+o5yytzI7vgnsa3aVrV+oiuwf9A5bI61SIu8vkX3E/2os771aG6KskV1tg8dQfHOXGfThedgLZmywy/VVqUQfRjrIJ5T0UFaZIieSvi0kiO3DxVYn3Sn50IUbGKKhZQfgCm2MkN0PTAfG+f+IWy8fRmKDNKiQvQobFYlT21fKKg2CZNlApKyn4mO9FdgN0afgKRO5kXs83JsgpZQq4FlQ79eBzwZcYwiPAa8GP8w006KeCG5P3Ah9o8v1neB09OUI2UIbYm+q5wyRSpnF2xmKU8L9Bdodc4qyTJ2XkRsFNIV2Nyssa5Hwzlrr06d7UWqYibwS3xTBN6OzQuxbLwvlGpTS1QkzBTsFvy5jmPMx15GaThnA6glKtK9AWxG+X9yHONxbLDI/UkqktKpJSrSnT7gXOBExzHaw2c1nLNhQt/On1ZOmSKl+jy+t/CrsVt4qbaozvZrAnd4T66zEamI9+IL0PXYiCapviwjltQSlV5yHP7F5T6cvWqJlSVE1RKVXnEQ9hzTE6AazlkvClGRRPbEuiB5AvT76OVt3USNWGoFfoi6OEnTbQ38Ct/icldiy4uvT1KRVJZ+Soo83QxseeNnOY5xPXAC9kZeGk6d7UU2mAj8BN9opLuw1TmfSlKRVJ5aoiKmH3uGeZjjGPPR0jU9Ry1REXMWcJJj/yewzvQaztmDQjvbv6+cMkUK8xF8b+GX4xtPL9WRZcTS+3OdjUgGryF8scbh21rsJZI0g0JUJMDBwEriA3Q91o1JmiNLiH4g19mIFGgvYDG+2/iPZK9aiqYQFenCtsAD+AL0q9mrlhyyhOgHc52NSAE2xZbm8AToeah7YFNpoTqRMUwBLgb2cBzjSuAtaDinDNHYeeklL8buvB4ibkTRn4Dj0XBOGSZmvWuFqNTVVUPbcNOByUP/Hc8CtDqnjBAToiJNsnRoe6zsQqSe9ExURMRBY+dFRBzUEhURcVBLVETEQS1REREHtURFRBzUEhURcVBLVETEQS1REREHtURFRBzUEhURcVBLVETEQS1RERGHmPlERURkiG7nRUQcdDsvIuKglqiIiINaoiIiDmqJiog4qCUqIuKglqiIiINaoiIiDmqJiog4qCUqIuKglqiIiINaoiIiDpqARETEQbfzIiIOup0XEXFQS1RExEEtURERB7VERUQ2GAzdQS1REZEN3hC6Q0wXp0mhHyIiUgMDwIdjdlyJBWm320PAJv56RUQq5WTCsrC9BYdoC/hYnnMSEcmS+ufvAAAKD0lEQVTmRjKG6GJg0yynJSJSvJcRF6AtgBWRO34ux5mJiGRwNSWE6FPAVhlOTkSkSIcQH6CuEG0B3yv+/ERECvU7SgzRFnBo4acoIlKMV+PLvxbAsoAvXgesH/F7dwMzCj5REZHUpgL/IEGIPhXwxUuBf+vw+xcUeqoiIul9gY2z7L86/N64Ibo04IuXAROB6zv82TuLPFsRkYReit1ZD8+wO4HpRITokwFfvGKogJ2AJSP+bBX2lktEpMrmAPezcX49f+jPg0P0iYAvXjWskFM6/PkiYPfUZywikshE4DdsnF3Dx8yPbKGOG6IjW5RjbWtGFPSlDl9zH7BdqjMWEUmkn87PPH/F02e0W9Pha5KF6NoRRU0ArurwdfcDOyY5bRERvz7gHDbOqrnA7BFfu7rD140ZoosCvnh9h+I2Z+PnC+0W6Q6+8xYRcZuEDQwamVGP0fnxY2jfeR4P3KHTzPb70DmM5wG7RZ+6iIjPHDqPSFrMhhdJIy3v8PVjhujCwB0GRvng59M5kB8G9go+dRERnyOA+XQO0P3H2C+k73wLrEkbssNYa5A8d5TjPT50QiIiRZsJfIWNR1e2747Ha9SFdPtsATwauMN4y4PsBvy1w35rsLf5modURIrQh62R9DCds+svwDO7OE7Iy/YWwILAHaZ0UcQk4Gw6/yRYAnwba5lO7uJYIiLjOYjOIynb27l0nzchL9tbAI8E7jA14MSOpvOb+/a2Gvvp8A3gQ8BJ2LOKrdDSzCIyvt2AnzJ6xjyGzdQUIug9UR/W9N0y4AOmYw9euzUFeD9wxtC+IRZhD4EXDW1PYiOs1mPdEFZifVeXDn19N3/WtpSN+72ONHz/sXRzrCJMI2Kd7AaaSb2X/55Cve/KBihnJrfjgXcw+r+Bi7E5PRYEHvdRrOtm1x4irCUae7G2AP6T8NEA2rRp0xay3YsNS48VdHces+587E/8BcC7sDdj59O5476ISIzVwJXAa7EO9D9wHCsom/qAB4FtAvbZDLu19toL+BRwAnr+KSLdewxrbd6JDdu8HrgO6ySfQlAmTiBfS3SkW4FXYZ30P4KNLPDqA2YlOI5XP/acrmxlPasaaRB7fivNNvwdwho2vDsJ+fUK7N3HUuw9xhNDv34Yu5t9jI0nQkotqCUaE6KpW403YU1wkbLNop53RSF1Dw+ubpX14rQsQZk4IeID6vwWVGQsS8ouINLisgtomKCWaM4XSyIidVB4iNbxdkdEpFtqiYqIOChERUQcFKIiIg4KURERh6BMVIiKiDyd3s6LiDjodl5ExEEhKiLioBAVEXFQiIqIOChERUQcFKIiIg7q4iQi4hAcoqFrHQ0Efr2ISJ0Eh2gotURFpMk07FNEJBeFqIjI06klKiKSi97Oi4g8nVqiIiIOClERkVwmEN5PtGohOg3YFhgEFgHzyy1HRGquJ1qi+wJnA7cBTwJ3ADcDDwKPAN8FXlhadSJSZ6GZyHVDO3W7HZmq0ghHATeMUlen7cfANqVUKiJ1dTlhmci1gTu8ItupbDAL+EFgne1tIfDS/CWLSE1dRkDG1OF2/pnAH4CTI/ffDLgCODZZRSLSZI16JjoLuBTY03mcQeB84EXuikREhql6Z/tz8Qdo21TgImBGouOJSDMFt0RD5WqJHkn8LfxotgQ+kfiYItLDYuYTzRWiHy/ouO8Dtijo2CLSYyZQzWeiOwEHjvM19wMXAndj/UMnA7sCR2Bv40ebPHoScBzw9SSVikjTBE88fzVhXYZS32J38q4xPv9h4HjGDvM9GLuv1y+LKlxEau9KGtDFae9Rfv8G4HnYC6KxHkPcgT1T/bdR/nzX+NJEpOGCWqIxz0RzvJ3fusPvLQBOGPpvN1rAR+nc6twqsi4Rab6ghmI/sK7ID4jU6SfBRwmfXKQFvA14osPvi4h0EtwSXRP4ATlCdOGI/38YuCDyWAuwF1DDPRB5LBFpvuAQXRv4ATlC9LYR/38VsNpxvJEBfIfjWCLSbMG381UM0atH/P+dzuPdPOL/f+o8nog0VyNaojfx9OAMfeQw0rIRv/6Z83gi0lyFt0RzjZ0/c9ivt3Qea86wX38eWOo8nog0VyNaogDfA/409Ov9nMfad+i/dwNnOY8lIs3WmBBdB5wKLAYOAHZwHOskYAnWz3SlvzQRabBGdHFq+zsWfMux/p4xdgZeOXScWxPVJSLNNSnki6vcEm37DbYkyeuxlT1DfRJbm+mahDWJSHNNDvniOoQowO+AU4BjAvfbG/gM8PvkFYlIU00J+eIJVPft/EjXs3F/z/HcUkQhItJojWyJtumlkIgUqY8GPhMVEcllMoF32/2Et+4UoiLSVEGtULBAXB6xj4hIEwW9VAILxKci9hERaaLgbpT9PH1yjm6U9XZeRKRowSsBx4SoWqIi0lRRIarbeRERo5aoiIhDlhDVM1ERaargaTf7sSniQgRNEyUiUhOTgJfG7DiALQLX6nK7DZjor1dEpFKOp/scHL4BcF/gTmdkOCERkZx+RXiArmvvfE3gjsuBHQs/JRGRPPbEAjE0RH/YPsC5ETtfUvhpiYjkcRFxt/Lt9ds4IfIAJxd9ZiIiBTuUuPy7YvhBpmFdnUIP8ij+5YxFRMoyg/B3Qu3t8JEH+1rkgS5BfUdFpH76gPOIy73rOx1wZ2yC5pgDfjr9+YmIFOp/E5d3LewRaEc/dhz0tLTnJyJSmPcC64nLuj8xxt33PsS3RtcBp6c8SxGRAnyC+MZix2ehI33Z+QHfATZJcKIiIinNBH6EL98u6uaDpgPznB/0D+Boz9mKiCR0HPFv4dvbEmCbkA/0fFh7uxR4QeRJi4h4DGJZdgVp8uztnT5krK5JXwQ+7D8PWlgT+pPA3ATHE5HeMJMN8xfPYMMMctOBCUN/PmPEtimwA7AbsAvpJkv6PvDGTn8wVogOAL8EjkxUxFrgMsJXFxXJof0Ps9dMwdZa71YfMKvAz5hF9fqd3wLszyjZNV6xs7HX+bskLkpEpA7mAy8B7h/tC8Zb6mMxcBhwV8KiRETq4AnsBfmoAQrdrZc0DzgEPc8Ukd7xOPAy4G/jfWG3i87NBw4Gbo6vSUSkFuYBBzLK+PiRQlbufAQ4ABuwLyLSRDdiz0Dv6HaH0OWPlwFvAN4ErAjcV0Skyr4HHIS1RLsWu4b8d7G07qq5KyJSYQuAU4BTiWgcepY/fgT4NvAgdps/1XEsEZHc1gP/jY1qujH2IN415FvATcC3hn79bKxjrYhIlV2CtT7PxfloMvXIgGnAW4H3odVARaRaWtgozM8D16Y6aFHDqwawW/xjsaayRjyJSFnWAhcAZwK3pj54rjGquwPbYRMEzMQmBZg+7M+nApOG/f/sUY7Tzbjd8cZAjzeOdxBrUac28hxTmYjmb+3GWmBp2UVktrjsAjJbin2fh7sOOAubnrMQ/w/UCK+FKEWA0AAAAABJRU5ErkJggg==" vertex="1" parent="1">
          <mxGeometry x="240" y="590" width="70" height="90" as="geometry" />
        </mxCell>
        <mxCell id="4slyxXOM6MHCRde4LKaO-10" value="" style="shape=image;verticalLabelPosition=bottom;verticalAlign=top;imageAspect=0;image=data:image/png,iVBORw0KGgoAAAANSUhEUgAAAVAAAAG0CAYAAABkPX9NAAAACXBIWXMAAA7DAAAOwwHHb6hkAAAAGXRFWHRTb2Z0d2FyZQB3d3cuaW5rc2NhcGUub3Jnm+48GgAAHzpJREFUeJzt3XuUZWV9p/GHrupuLn3h3oAoGDGaFhACqJmICggOJiqaFdeI4qgxXgiCJnECajQJqJDoxAuBEGeMoAKCw0QkoggiumDpjDpBohBBbUUu0kjfaOhbVc0f7zlSVJ+qOu+79z7vvjyftc6iumrvfX6n6f72e917B6rzG8AZwB8DO1X4PpI0yK3A+4HPA1NVvMEOFVzzcOAdwMnAWAXXl6QY3wfOoYIgLTNAn00o8oUlXlOSynIrcDbwv4HJMi5YRoA+EfgocFJJ15OkKt0GvAe4uuiFigTeDsBbgHOBZUULkaQRuwV4Z++/SVIDdDnwz8DLU99YkmpgCvgM8HbgodiTUwL0KOBK4ICEcyWpju4BXg3cFHNS7Cz5S4FrgL0iz5OkOlsGvAbYTESXPiZA3wxcAiyOq0uSGmEBcDxhYvxfGWLJ07AB+jbg/N4bSFKbHQ6sBP6FeZY7DROgbwQuwCVKkrpjJXAQcNVcB80Xiq8ELh/iuCptAh7N+P7TrcldQM+jhN+X3KaAtbmLSFSX/5dlGaP65YSLgZ3nOWZnBg/zLWNwg223okVV7GzgvbP9cK5gfA7wNcrZx74B+CDwEeoThpLqaRxYOuN7ywlDiP0gXjrtuH2AvYEnAScA+5dYyxTw+8CXYk7aF7i/d3KR1zbgImBF8c8hSUN5JmGDz1qKZ9gU8AAhE4eyALi+hDe9CTg45dNLUgmWA2cC6yieZ/8y7Jv+RcE3eoQwa++MvaQ62J/HliUVeb14vjc6kBCAqW9wD3Bk0U8rSRV4C7CV9Hy7C1g01xtcVeDitwJPKOmDSlIVXkSxLv2ps1346AIX/TdgzzI/pSRV5AhgPWlZdzew46CLfjPxgrcDe5T+ESWpOscDW0jLvNNmXuz3Ei+0BvjNaj6fJFXqjaTl3ipgYf8iCwhd8NiLTAIvqfTjSVK1vkBaiJ7Sv8CrEi9wYdWfTJIqti/wK+Lz7zZ6Ozk/kXDyXcCSEXw4SaraO0lrRL4E4gN0K+EJnJLUBrsAq4kP0G+l7Bb6MPDt4jVLUi1sJNyyM9azFxB/q7o7Et5IkursypSTUlqgUylvJEk19u+EuZ0oKQHqnekltdE3Yk9I6cLbApXURg/GnmAXXpKCdbEnpLRAJamNop/vtQBblJIEI2qBGriS2ij6SbcGqCQFW2JP8LlFkhSMJEBtgUpqo6QAdRZekuzCS1Iyu/CSlMguvCQlsgUqSYkcA5WkRCPpwtsCldRGE7En2AKVpGAkAWoLVFIbTcae4Cy8JAW2QCUpUVKA2gKVpIQAHccWpZTLYuCJwApgCbAMWM5jPcMdgZ2mHb9mwDUmgPUDvr+R7ZflDPrew8DWxO+1TVKA2gKVqjcGvAA4uvf6LWAfmvP3bxNwIvD1zHVUKSlAY9lilYa3E3A68FbggMy1FLEj8AXCPwL/L28plYmehU8JUEnDeTrwOeDQ3IWUZBlwLfBc4K7MtVRhJJNItkCl+T0RuIn2hGffCuA6YN/chVRgish8cyeSVL4FwP8C9s5dSEWeDHwZ2DV3IRXYFnOwLVCpfCcBR+UuomKHErrzu+QupGRR46C2QKXy/VnuAkbkOcBltGsuJWoc1ACVyrUXIVi64iXAmbmLKFF0gNqFl8pzHN1rmLRprNcuvJRRl1qfbeQkkpTRU3MXoEKiWqDuhZfK9ZTI42fuMR+0t/0RYPOM783cF78JeHTG99bx+EDYQtgPP90GHt/qmgAOB06es+r2ihoDTdkLb+BKs4vdrnkIsKqCOoo4FQN0KHbhpfIsIewZjxE15qbKOYkkZbJbwjkGaL24DlTKJCVAo29goUrZhZcyWZJwTttvUtw0lXfhDVBpsMUJ59gCrRe78FImixLOcQy0XirvwksaLKUFaoDWiy1QKZOUuxLZha+XygPUMVBpsNi/T5MkPIdHlYqeRHIWXipH7N8lu+/1Yxdeagi77/XjOlApE1ugzRcdoAailIcBWj+2QKVMbIE2X/RjjV0HKpUj9u+SY6D143PhpUxsgTZf5QFqF14qhwFaP7ZApYawC18/LqSXMoltkNgCrR9boFJDGKD1U/ksvC1QqRwGaP3YApUawgCtH+9ILzWEk0j140J6qSFsgdaP60ClhjBA68cxUKkh7MLXT+XrQCWVwxZo/diFlxrCAK0fu/BSQxig9eNCeqkhHAOtn8rXgUoqhy3Q+nEMVGoIA7R+XEgvNYQBWj+2QKWGcAy0fhwDlRrCFmj92IWXGsIArZ+oAB2vqgpJ83oWcG7uIgY4PHcBGUV14cdxHaiUy+F0O6zqyEkkSUrkVk5JSuRTOaUM9gbOyl2ECotugRqIUjErgBuBZ+QuJJO1uQsokTcTkUZob+B6YGXuQjK5Fnh/7iJK5DpQaUT2Bm4ADs5dSCbXAi8HNucupETOwksjYHi2LzxhBFs5bbGq6/YGvkZ3w/Nq4CTaF57gGKhUqX7Ls6sTRtcCrwS25C6kInbhpYrshd32Nnbbp3MvvFSBssY87wM+RvMaIpuAC2lvy7PPvfBSyfYiLFUqGp6/BF4I/LBwRaqKWzmlEvW77YcUvM4vgWMxPOvOMVCpJIZn97iQXiqB4dlNla8DtQWqtiszPI/D8GwSx0ClAsoKzwcI4fmDwhVplOzCS4nKDM9jMTybyEkkKYHhKUhYByp13Z6EdZ5ljHkeA9xeuCLl4l54KcJuwJeBQwtepz/maXg2m5NI0pB2A74KHFHwOnbbO8oxUHVVmeHpbHtHOQuvLio7PP+9cEWqC2fhpTkYniqNLVB1yW7AdRiemp0tUGmAXQnheWTB6xie+jVn4dUFuxK67YanSmUXXm1XVniuxvDsguguvF1ytdXuhKdnltHyPBbDswvciSQRWp5fAQ4veJ3VhMdwGJ7ajgGqNiq7235b4YrUSk4iqW3Kmm03PDUvlzGpTfrheVTB6xie3eUNldVJhqdGzhao2sDwVFmi8i3lhsp1bbEeAbwpdxHK4j8BBxe8Rn+23fDstugAbcss/HeBB4F35S5EjdMPz+/nLkTN0rYu/LuBc3MXoUZZA5yI4akEbVzGdBZwXu4i1AhrgOMJvRcpWlsX0p8FfCx3Eao1w1OFtbEFCiHk3w6cn7sQ1ZLhqdn4ULmeKeB04B9zF6Ja+RXh0cOGpwpraxe+bwo4FbggdyGqhTXAi4BbcxeidmjbLPwgU8Bp2BLtujXACdjy1Nzswg/Qb4lelLsQZbGWEJ7fyV2I2qXtXfjp+iF6Se5CNFJrCRNGhqeGYQt0DpPAG4BP5y5EI2F4qlIpe+GbbgJ4PXADsDhzLarWzcAPchcxhz2A/QmPHtkJ2AVYTvGGzaPAphnfewTYXOB7G4ENBetqgspvJtIGE8DFuYtQpywljMO+GPht4MmEsGyKrcBJwJdyF1InbbqZiFRHS4C/Ad4K7Ji5liIWAlcShkRuyVxLlWyBSjWxJ3AjxW+1Vxc7A18Enke9h0ZGpgvrQKUclhCeCtqW8OzbnfC5DshdSB10aRmTNEp/RxjrbKMnANcDK3IXkltKC7Sud6SX6uIFwJtzF1Gxg4BrCJNjbVL5Q+UmI4+XuuYcutHQOBL4Ah1eDmgLVCrXccDv5i5ihI6hXY/RqbwF6hioNLuX5i4gg91yF5DLAgxEqUzH5S5AhdgClTIZB56euwiNjgvppfLsC4xFnrOOcK/S6ZOzWwh7z6fbAGyb9uttbL83fWPv3OnWzPj1MNd+PnDynFW3V+U7kWyBSoPtn3DOYcCqkusoapzuBmgUu/BSeZYlnLO19Co0MikBKmmwRQnnTJRehUbGvfBSeVICdNv8h2iEKr8jvS1WabCFCefYAq0Xt3JKmcTOwIMt0Ebr2jORpLoxQBvMAJXyMkDrxZ1IUoMYoA1mC1TKZxIbJI1mgEr52PqsH7vwUkMYoPUTlYdtuZnIYYTHxko5HRR5vGtA6yf6ZiJtaIH+G/AA8J7chUgRbIHWT1QetmkM9C+B9+cuQopggNZPZwMUQgv0g7mLkIZkgDZcGyeR3gWcm7sIaQiOgTZc21qgfWcB5+UuQpqHLdCGa2uAQgjRj+cuQpqDLdCGa2MXvm8KOAM4P3ch0iy8G339dHoSaaYp4HTggtyFSAPYAm24LtyRfgo4DbgwdyHSDI6B1k90C7QLd5ifAv4E+MfchUjTGKAN1/Yu/HRTwKnARbkLkXrswjdcW/bCD6sfojcDO2WuRe3zLOCPIo63BdpwbdkLH2MS+HTuItRKGzFAm85ZeKkhDNCG68IsvFRXjoE2XFdm4aU6sgVaP3bhpYYwQBvOLryUjwHacHbhpXwcA204W6BSeWID0RZo/TgGKmWyJfJ4A7Th7MJL5TFAO8YWqFSedZHHT1ZShUbGMVCpPL+MPN4bKtdPVI+8azcTkap0f+TxR1PPu4OtzF1AU3TxZiJSVdYD9wH7Dnn8SgyrRnMSSSrXbbkLUCHRy5hsUUrluTl3ARqdNj+VU8rhS7kL0OikzMLb5Zdm913g9txFjNjq3AXk4jImqVxTwH/PXcQIXQZ8IHcRudiFl8r3SboxFnoF8FradVMU98JLmU0CrwceyF1IhS4DTqbj21ENUKkadwInAPfkLqQClwGn0K6WZxLXgUrVuRU4DPg87Rn6ant4Vr6Vsy1/EKRReBD4Q+DpwMuAI3pfrwD2zlhXistpd3hGcy+8NBp39F7TLQSWDPjvOLB0xrHLSR9yWwTsknhu32bgMxiej5OyF76uDgFOy12EhvYV4KrcRWS2FVjT+7rNE06t1aabidxGuJHD+3IXoqH8EfA6QqtGqovKlzHVNUAB/go4O3cRGsoY8CngNZnrkKbr/DrQ9wLn5C5CQzFE1WhtDFCAvwTOy12EhtIP0f+SuQ4pWpu3cp4JfDB3ERrKGGEs1JaoGqWtLdC+dwHn5i5CQ7E7r8bpwk6ks4C/zV2EhmKIqlHaNgs/mzOBj+cuQkPph+irM9ehbur8LPwgU8AZwD/kLkRDGQMuxhBVzXWlBQqh7rcBF+QuREMxRFV7XRgDnW6KsN3zwtyFaCiGqGptnOa2KFP1Q/QWYOfMtXTF7wEvTTy3Pya6lXAHdKlK0Q3KVYRQGfZV9K4u6p4x4LPE/Tmb+dpGuAO6VKWzifhz2bUuvPKYIDw759IC1xgDLsEQVbWchVctGaJqgqhM7NIsvPIzRFV3tkBVa2WG6KtKqUh6jAGq2psA/itwZYFr9Jc4/UEpFUkJ2nw3JtXbNkILskhLdCHwOWyJqjyVj4FKZel35z9b4BpjwKcxRFWO6C68y5iUU787b4iqDjr9TCQ1U5kh6p3tVYSTSGqkskL0MxiiShfdI7+buC11O5ZVqTRAPwSLbvs0RJXiI8T9WeMXkScsHtlHUVeVEaJbgJePunA13keJ3Asv1U0Z3fn+EidDVDGiu/CxLdBFZVUqzcOWqEbt40R24e+JPMEA1SgZohql8zFA1TJlhehJoy5cjfMPVBygC0f2UaTHGKIahQuIDNB7I08wQJVLf7G8IaqqXIgBqhYzRFWli6g4QMdH9lGkwQxRVeWfMEDVAWWE6GYMUT3eJ4gM0PsiTzBAVReGqMr2P6g4QMdG9lGk+ZUVoi8bdeGqpf9JxJ+dlNak9w9VnUwAryf0jFJvILIIuAL4Ru/XW4GHZxwzCawbcO5aei2RaTYQbmgy3SOEoJ5uc+/7023rnT/dVO99ZlrXq2sLYUehiovOt/uxBarmK6Ml2tTXJOHeASrun4n4vfeGymqLCeB1hMX2XbMDYfLjxNyFtIA3VFZndTlEFwKfB343dyENZ4Cq0/ohennmOnLYGfgCsDJ3IQ1W+UPl7MKr7iaA19DNlugewHXAgZnraCofayzR7e78E4CvAityF9JAduGlnn6IXpa5jhwOAr4ILMldSJulBKjrQNUkE8AphHWeXXMU8Ne5i2iYysdApaaZoJsBCrZAY1U+BmrgSmorx0AlKVFUgKbshV9A6BJJbXc3YZ/5zH3og/awz9z/Pmjv/KPAphnfm7mXftC11/PY37ljgLfOV7iSRQeoXXJpsBcCP8pdxAxLcxfQco6BSiWZeUcltV/ls/AGqLrCoaruqXwSyQBVV9gC7R4DVCqJAdo9LqSXSmKAdo8tUKkkjoF2jwEqlcQWaPcYoFJJDNDuiV4H6jImaTADtHuiHpppC1SanWOg3eNOJKkEE/j4mi6KboEaiNL27L53k114qQR237vJLrxUAlug3WQLVCqBAdpNlY+BGqDqAgO0m6K78LEzjT4GRF3gGGg3Vb6QXmqi2EA0QLvJZUzSAJORx2+tpArVnZNI0gC2QDUMA1QaIDYQnUTqJteBSgMYoBqGy5ikAezCaxh24aUBYieRbIF2k114aQC78BqGy5ikAezCaxh24aUBbIFqGHbhpQEMUA3DFqg0gF14DcNlTNIAtkA1DLvw0gAGqIZhF14aYFPk8QZoN3k7O2mAdZHHOwbaTbZApQHWRx5vC7SbDFBpgC3EdeMN0G6qfBLJR3qoqdZGHBu7d17tEJVv4wlvYAtUTfULYJ8hj30ecEWFtaR6cu4CWiyq+w4GqLrlJ8CRQx57YO+l7ojuXafMwtuFV1P9JHcBqrXoFmhKGC5MOEeqg9tzF6BaM0ClOdyQuwDVWlKAxnbhDVA11T3AD3IXMWL35C6gQaKzLSVAUyaepLq4KHcBI3Q58P7cRTTI4pSTHgWmIl7HllGplMki4MfE/Zlv4utinPCNdQCRv8+2QNU1W4CTgIdyF1Khy4E34GaAWItiT0j5Fyr6TaSauQ14EfDT3IVU4BLg1XgzlBRJY6CVv4lUQ98BDgP+ifbse78EeD22PFMlNQ43Edfvf2UZlUo1sh/wZkKYfhO4C9hI/nFMxzxH61lE/r6P4xiodC+zz84vJfyZX0LoffX/uwjYZcjrL6facNsKXI0tz6Kie9cpYZg01S811Ibef9dkrUKjMJJJpKUJ50hS3UU3DlOWMRmgktpoWewJtkAlKUgK0NgWaPSbSFID2AKVpEQjCVBboJLaaL/YE1K68PvGvokkNcCzU07aRtzqe9fDSWqbXQgbEqLvxhRrV2CPEgqWpLp4Fgkbi1K3lz0j8TxJqqPnpZyUMgYK8OKUN5Okmkq+SVLsGOgU8CN8PrykdngGiXfBSm2BPhU4vnDZkpRfoVt0TpKWvtcWeVNJqoGFwCrS78OaHKCTwMrKP54kVeeNFLuRdXKATgFXVP/5JKkSY4T5nGwBOgUcU/WnlKQKvJZi2VdKgN6Gj/mQ1Cx7Ag+wfZ7FrkqKCtBfAF8f8P13VfpRJalcn2X7HLsX+KsB358zQGMOXkW4mch9M76/FXh+hR9WksryMrbPtnWEx1y/YcDPSg1QgBewfVP3XmBFNZ9XkkpxKLCex2fXZuC43s9jZ+WTAhRCt33mz29m+Ee9StIo7Qf8nMdn1iRw8rRj3sSIAnQB4VnUM4+5HtixvM8sSYXtCXyP7fPqz2Yc95YBx1QSoBDuTv/DAcddQ8IzliWpAgcCd7B9Tn1owLGnDjiusgAFeAph/HPmsd8E9k7+yJJU3KHAPWyfT+cz+D4gpw04ttIABTgYeHCW4w9L+dSSVNCbgA1sn0sXMftNlE4fcPycARqzDnTVHMUezOCkfxh4G+k3b5akGCuALzI4wz7C3Fn09lnOmzVAJyIOXjVP4b8B3D7LubfgnewlVWecMAk0aIfRVuCtQ1zjTwecO2eAxmxdWjVEAcsJk0iDzt9MGHs4YIjrSNIwdgBeweCJoilgNXDCkNf681muMWuAxjyJbtWQRSwAzgA2znKdLcAnsUUqKd0OwEuBbzF7Zl0D7BNxzf82x7UGBuiWiINXRX7ApxIW1891ze8D7+4dK0nzGSMsfv8+s+fKQ4RdRbHOnOOa273Ge19U5U7C0+7eDrwPWDrgmEN6r3MILdafESaj1vZ+/QhhJm0DYbhhK2FiarqZz6p/uHdc3ybg0Wm/niBs55ppI+EflDIMqlP1thjYOXcRCXYgPG68iZYQ7go/rCMIrcSnzPLzLcAFwNmEEI0VPdm9iepaoNPtCfwts3frfc39WkP4A9F/xfQcfPlq+2sCuJTZg3VY74l531EuLXqQ8C/HgcB5hODW8HYFdpv2ivlXW2qrSeBKwnzKycCPC15vLObgBYQkHaXVhHGG/YHXESaTbgR+wuO73ZI0m63Ap4CnEZ6qeUdJ1416SnHVY6Bz+RVwce813XLCONQuva+X9H69pPfz6WMm08esxgh782caZ/DY61yWEzcWsnOvlljLiPwXTxLfAz4I/LSCa0f1yuv4KI51vZckjVpUgObowktSXRmgkpTIAJWkRAaoJCWKDlBJUlD7daCSVFd24SUpkQEqSYkMUElKZIBKUiIDVJISGaCSlMh1oJKUyBaoJCUyQCUpkQEqSYkMUElKZIBKUiIDVJISGaCSlKjSdaBRj/yUpIaptAVqgEpqs+gAnajq4pLUMJUGqC1QSW0WFaDjwLaI4+sSoAuAY4HfAQ4EdgTuAe4Crgbuz1aZpCaL7mX/gDAOOszrvtLKTLMj8C7gF8xe4zbgOuC5mWqU1FxfYfg8nAK4NeLgnC27Y4A7Z6lr0GsSuBzYM0exkhrpq0QG6PciDv7l6D7H47wB2DJkjTNfPwaeMfqSJTXQDUQG6LcjDn5gdJ/j194RUd9sr7XAoaMuXFLj3EhkgN4ScfDq0X0OAE4kjGkWDdApwiTT/qMtX1LD3EREriwAtkZcfJSz8PsSxjDHSrrefsAnS7qWpHZqzTrQc4FlJV/zeOAVJV9TUnu0Yh3o04BT5jnmIeBfgVXAPsAzgSOZ/zfgbOCqgvVJaqfodaBfYvg+/5rSypzb2fPUcSmDlyftD3yE+WfsD6+2fEkNFTOpPgVh507MbPYo/HCOGs5j/pbwbwM/muMaf11J1ZKa7v8SGaBXRRy8fgQfYIzZW5AfiLjOXsB3ZrnOZSXWK6k9vkvkLHzdxkD3BRYO+P7lwLsjrrMa+H3g5wN+9qSEuiS1X/QsfN0CdNCyqvuBU+k1mSPcD7xxwPc3xRYlqRMaH6Cr2X6o4KOkT2B9tfea7s7Ea0lqt8YH6CRhd9R0ny94zUtn/PrGgteT1E6ND1B4fGBuJdwQpIg7pn29Hrim4PUktVMrAvRy4Fe9r8covp1zr2lffwrYWPB6ktqpFVs5NwIf6n29ADiq4PVO7P33EcIWUUkaJHon0t8z/LqnmBuPFLUY+I/e+15U4DrLCRNQU8Cfl1CXpPb6MZEL6f8u8oSy7o40jCMIS442AU9PvMY5hLq/xmhrl9Q8PyUyQD8QecLOI/sowR8QWr7/h8EL7OfyTGAzYRJpr3mOlaSfERmg7408YfeRfZTHnAA8SGgtD2s5YQjgW8CKKoqS1Dp3E7mV89HIN1hcWqnDu47wXKMDgaOHOH4Hwl2ZPkF4OmeuZzlJapboSaQ/Ia4FemBJhaZaNMQx+wC7VV2IpNa5l4g8HCd+X3iOFuh0W4Y4JufjlyU1V9RE8wLC2sgYuQNUkqoSvZA+NkCXRB4vSU0RtVloAfFd+EGP0pCkNojuwsfuCzdAJbVVdAs09jlHBqiktopugcbeqNgAldRW0ZNIsS1Qt0RKaqvoAN1I2C8+rKdFlSNJzREdoADrIs45mNHdF1SSRmWMxABdHXHOUuDJMW8iSQ3wx8B4yolfJm4//CtKKFaS6mJ3wh3fYnJwqt8CvTvyzV5cQsGSVBd/A+wRec6vH4cUe0/QNbilU1I7PJPwcM2o1ifw2f4FTkk4+S8q/1iSVK0FwDeIz78JYGX/IgcnXGAT8FsVfzhJqtI7iM++KeBz0y8yBjyccJGbGe4Gx5JUNwcT7kYXm3uTwCEzL3Z9woX64wCuC5XUJHsR/wjj/uuqQRd8U+LFpoAPl//5JKkSOwHfJC3rJoDDBl10N8K++NQQPZ+EBzJJ0gjtRHhIZWrOXTzXxd9Z4MJThAX53q1JUh0tB24gPd82AvvP9QbjhImhIiF6N/CfS/m4klSOlcB/UCzbTh/mjZ4EPFTwjaaAS4AnFvnEklTQAuBtpK0ymv76OhFDlCcRpuqLhugjhLHR58a8uSSV4CDSFsnPfD1AaFhuZ67lRx8G/rSED9G3GVgF/BT4GWHCaj0hZB8hbA/dSHju+1bCvxh9GwhbrSDMgq2f430eIe7+phKESdQ625V6LxdcRuTjMCr2fOBsYOeC19kGnADcOOiHc/0PWUhYG/q8ggU02Sbg0dxFNMQ44VaHUpucClw42w/n+xdtGaHvf3iJBUlSE7yPcJemWQ3TJdiX0BJdOd+BktQSf88QQ5jDTOzcBxwNfLtoRZLUAOcx5PzPsDPjDwHHA1enViRJNTcBnAGcOewJMbNmW4ArCJMFR1PvGUFJirGW8KiiS2NOSg3BFxL2hO6XeL4k1cV3gVcBd8aemLq4/XrgUMJuo6nEa0hSThPAB4DfISE8oZxu+POBjxECVZKa4BbCFs/vFblIGdsrbyKsEz2ZsFlfkurq58BrCdvLC4UnlD8RtICw7ektwHOAFSVfX5JSPEjorl9AiVu9q55J351w/7zlhF1Ny6d9DY/t710E7NL73lLCTD8zvj/doH23sx0baxfKfc7T9M/TNtsI9ynouinCLG5brCPcTKgNNhDuPv8h5r6HRpL/D8EZscV98D5eAAAAAElFTkSuQmCC" vertex="1" parent="1">
          <mxGeometry x="889.36" y="240" width="70" height="90" as="geometry" />
        </mxCell>
        <mxCell id="4slyxXOM6MHCRde4LKaO-17" style="edgeStyle=orthogonalEdgeStyle;rounded=0;orthogonalLoop=1;jettySize=auto;html=1;entryX=1;entryY=0.5;entryDx=0;entryDy=0;" edge="1" parent="1" source="4slyxXOM6MHCRde4LKaO-11" target="4slyxXOM6MHCRde4LKaO-12">
          <mxGeometry relative="1" as="geometry" />
        </mxCell>
        <mxCell id="4slyxXOM6MHCRde4LKaO-18" style="edgeStyle=orthogonalEdgeStyle;rounded=0;orthogonalLoop=1;jettySize=auto;html=1;entryX=1;entryY=0.5;entryDx=0;entryDy=0;" edge="1" parent="1" source="4slyxXOM6MHCRde4LKaO-11" target="4slyxXOM6MHCRde4LKaO-14">
          <mxGeometry relative="1" as="geometry" />
        </mxCell>
        <mxCell id="4slyxXOM6MHCRde4LKaO-19" style="edgeStyle=orthogonalEdgeStyle;rounded=0;orthogonalLoop=1;jettySize=auto;html=1;entryX=0;entryY=0.5;entryDx=0;entryDy=0;" edge="1" parent="1" source="4slyxXOM6MHCRde4LKaO-11" target="4slyxXOM6MHCRde4LKaO-10">
          <mxGeometry relative="1" as="geometry" />
        </mxCell>
        <mxCell id="4slyxXOM6MHCRde4LKaO-21" style="edgeStyle=orthogonalEdgeStyle;rounded=0;orthogonalLoop=1;jettySize=auto;html=1;entryX=1;entryY=0.5;entryDx=0;entryDy=0;exitX=0.5;exitY=1;exitDx=0;exitDy=0;" edge="1" parent="1" source="4slyxXOM6MHCRde4LKaO-11" target="4slyxXOM6MHCRde4LKaO-9">
          <mxGeometry relative="1" as="geometry" />
        </mxCell>
        <mxCell id="4slyxXOM6MHCRde4LKaO-11" value="" style="shape=image;verticalLabelPosition=bottom;verticalAlign=top;imageAspect=0;image=data:image/png,iVBORw0KGgoAAAANSUhEUgAAAVAAAAG0CAYAAABkPX9NAAAACXBIWXMAAA7DAAAOwwHHb6hkAAAAGXRFWHRTb2Z0d2FyZQB3d3cuaW5rc2NhcGUub3Jnm+48GgAAIABJREFUeJzt3Xm4JUV98PHvXGYGZhhwZBMFF1BE4oJojAsiICpREXcSoyhqYtxF87rEPS5xfVU0McZojEtcEVQw7uD2CqLgyuqCigjKDsMsDDM3f9S9L+f2Pfferjpdfep0fz/Pc55n+kx3VXVPz+/8qru6axn57AI8F3gBsDZjPZK0kNOANwEnA9NNF76s6QKBXYHnAC8EdsxQviTF+gnwRuB4GgykTQbQWwIvAZ4BrG6wXElqylnA64HP00AgbSKArgaeB7wcM05Jk+EM4B+A745SyKgB9GHA+4E9RixHkto2Dfwn8CLg2pQCUgPoKuDtwLNGKEOSSvAb4BjgW7EbbpNQ2W2BU4AjMHhKmnxrgScB1wGnx2wYG0DvA3wD2DtyO0kq2RTwl8DtgC8BW+psFJNBHg6cSOi+S1JXfRF4PLBhqRXrBtAHA18AthuhUZI0KU4FHgFcv9hKdQLowYSU1sxTUp98GTgS2LzQCksF0H0IF1V3arBRTdkAbGz476o2Aesj25WirXpyWQ1sO+5GjGB7YOW4GzFjR9Ju7jZtGeU8gr0c2GFMdX8MeDILDLpfLIDuRHiO9I4NNeRKwvOoZwJXDHy2EiL8upn11nFTxI8JdpIE8EDg3cCdGyrvVcAbYjeafdRplM9W4KuEawnLR9wJSaprOeFFRlcxehzbAjwkpvJnNFDpt4E/j99vSWrMbsAHCMncKPHsMmD3OhXentCNTq3oeuBvR9ljSWrYg4HfMVoQPb5ORaN03X9Dc9cdJKlJNyOMKBoliD52sQoePELBZwN7NrSjkpTDckKXPjXO/ZpFRmz8KLHQi4FbN7mXkpTRKEH0OcMKPCyxsI3APZvfP0nKZjnwP6TFvD8w5KnMkxILe0me/ZOkrG4G/Ja0uPd3gwXdgjDWKbaQMyjjqQlJSvEg0oY4nUd4gxMQhh2lROH7Z945Scot9XroY2YL+HjCxidm3y1Jym830p5YOm22gNMjN9wK7J99tySpHS8gLQsF4NLIjT7Vwg5JUluWE+aOjw6gq4i7iLoFuGs7+yRJrXkgCQH0DpEbfKKtvZGklt1AZAC9e8TKW4D9WtsVSWpXVACdAtZEFL4BOLfJ1krSpIoNoJKkGVOE+WDqipkGWZI6zQxUkhKZgUpSIjNQSUo0RZjTuy4zUEmaMQWsGHcjJGkSTRE3X7sZqCTNiA2gkqQZZqCSlMhroJKUyAxUkhJ5DVSSEhlAJSmRXXhJSuRNJElKZAYqSYm8BipJicxAJSmRGagkJZoCtolY3wxUkmZMYVCUpCSxAdRgK0kzzEAlKZEBVJISTc18JEmRUjJQM1ZJwi68JCUzA5WkRGagkpTIDFSSEpmBSlIiM1BJSmQGKkmJzEAlKZEZqCQlMgOVpERmoJKUyAAqSYnswktSIjNQSUpkBipJicxAJSmRGagkJVqesI0BNN2fAYcCtwauB74LnDrWFpXrnsBBwO7AtcDXgTPG2qIyLQMOBO4H7ARcDnwZ+Pk4G9Un5wLTEZ/V42nmRNsP+AbDj+c3CCe+gnsDP2D4sfoEsN34mlacw4HzmH+ctgL/QlqC1Hc3EBcPh/4DLPbZvrVd6YYDgWtY/Jh+fWytK8sjgI0sfqw+PLbWleXZwBYWP1ZvHlvrJld0AD0/cgMDaH0rgIuod1wfMqY2lmIVcBVLH6ctwG3G1MZS3JOlg+c0cCPhcpHqiwqg3kTK68HAnjXXPTJnQybAQ4C1NdabAg7J25TiPZt605FvAxyduS295jCmvP48Yt3DsrViMtw1Yt17ZGvFZHhAxLoHZ2uFHMaU2b4R696Bfl/03yti3QOytaJ8K4DbRaz/F5naIcxAc9slYt3l1O/ud1HMdc2YYNs1a4n7oV1L3HmoCFPUu5aiNLtFrn+7HI2YEDeLWHfXbK0o35qEbbyRlElK8DRjrW+HyPV3z9KKyRATGLaLXL9LUkbB3KrxVggwA81tZeT6O2ZpxWSI3fe+ZqGxP8oQl90rgtdA8zKA1hebUfY1gKZk3gbQTOzC57Uicv0+n+irItfv67FKeZS1r8cqO4cx5RUbQPucgcYO4errM/EpSU9fj1V2XgPNK7YLH5uFdcUy4s/DvgaFlP+v2zTeCgFeA80tNgONDbhdkfIAQZ9/bGL1+QGNrOzC57Oc+GyhrwE0JUMygNZnAM3EDDSf2OwTDKAx7MLXZxc+EwNoPinB0ABanxlofWagmaT8mnnTqZ6UDHTbxlsxGcxA60sJoCnnomowA80nJSj0NQNNyZD6eqzMQAviTaR8Uo5TX7P7lB+bvl7XSzmv+nqssjMDLYsBNO82XZByjpiBZuJA+nz8YarPAFpfX/e7SGagZenrj1lKhtTXQNLX/S6S10DzSTlOfT22KUGhr91SA2hBzEDL0td/C7vw9fW1l1IkM9B8zEDrM4DW19f9LpIZaFn6+m9hAK2vr/tdJF+onI/jQOvzGmh9fd3vItmFL0tfj60BtL6UdwD09bzKLmUc6HSOhnSQ10DrsydUX0oA9f9sJmagZfHY1tfXY9XXt1AVyV/+fLwGmldfz0O78AUxgJbFY6ulrB53A3STlC6811Pq8RpofX3d7xS7JGzj/9lMzEDL4rGtr6/HardxN0A38ZpbPmagysEAWpAp4tN7/5Pn4w9afX08D1cCt0rYzik9MrELn48ZaF59O1Z3Ad5P2rxZfwV8BNiz0RbJZ+EL09d/C39sFvdy4CzgKYnbLwOOBs4DXkF/n+JqnBloWTy2GrQc+CDwRprphm8PvAH4DmmXAlThL5EmVdd/bNYAnwYeOuTvtgCnA18FvgdcAlwObAV2Jdxo+gvgcOBA5nf77wOcNlP2ORna3isbCTeS6n5uPZ5mTpy9iDuu08D5Y2np+N2X+GN14lha2o6VwNeYv8+bCNcy94koaxfgtcBVQ8r7E3DnphrdETcQdx5GB9DbtLYrk80AWl9KAP3cWFqa3xTwCebv71nAviOUuwtw0pBy/wDcdoRyuyZ7APVg12MArc8AepO3M39fP0za3feqZcCLCV39wfJ/CuzQQPldYAAthAG0vpQA+vmxtDSvpzF/Pz9G8+OD/2FIPf/ZcB2TygBaCANofSkB9AtjaWk+dwDWMXcfTyPfjd53Mv+YHpmprkkSFUAdxqQSeE7BWwnDjGatJ4z7vDFTfS8HflX57jiccymKjw5qUnUp6N4eeFTlu+OACzLWuQF4buW72wGPyFhn55iBSuP318z9f7UeeFcL9X4ZOLvy3VEt1NsZZqCaVF36IT+0snwiYYxmG/6jsvxnLdXbCWagKkGfz6llwL0q353cYv0nVJbvSL//PaKYgWpSdeU/+W7AjpXvvtFi/RcBlw4sr6KZMae94KycmlRdOQ+rj0ZfCVzWchvOrCxv13L9E8sMVBqv7SvLF46hDZdUls1Aa/IaqErQ5/eBrqwsbx5DG9ZXln1LW01moNJ4bagsjyN4VbPgG8bQholkBqpJ1ZXz8JrK8i3H0IbdK8ubxtCGiWQGKo3XbyrLewA3b7kN+1eWN7Zc/8QygKoEfb4Geh3w+8p392mx/r2YO9ncFdiFr81J5aTxO72y/Nct1l19dPO8FuueeM4Lr0nVpfPwS5XlR9NON36K8A7SQT9uod7O8CaSJlWXzsMTmDuUaAfC6+Zyewrh0c1BH2ih3s7wGqhK0KVgmOJq5r996XnAfhnr3IUwXfKgUzADjWIGqknVtfPwn5k7I8G2hHmf1maoa4owu+fgkKn1wDMz1NVpZqBSGa4H/oa5Xfk7Ap+l2QnfpoAPMn+++ZcCv2iwnt7YRNxcNDm7FV3inEj1PYD4Y/X1sbQ0v0cQpvEY3Nef0Mx04msJ7xqtHsv/aqDsroieVC52AwNoPQbQ+gygc/098/f3MkIXO3XOoiMJLyqplvs15j+P32fZA6hvrK7HAFqfAXS+1zJ8v38CPB5YUaOMKeAI4NsLlHUqsLrhdk+6qHjoW1ekMr0WuAp4B3PvVdwN+DRhyo+TCXfOzye8FHklsAbYFziEEDwX6vp/Dngi89/EpEhmoHmYgdZnBrqwxxHe2BR7fBb63Ai8HqcvXojzwksdcjwhmzy3gbLOAA4EXgVsaaC83nMYk1S+7xPemPSCxO0vA55MeEnJ95tqlBxIL02KzYTrlim+DXyUmbvGao5vY5Imx1WJ221ttBX6/3wbUx77AB9K2G5vwt3XOkNU1D/r8NplUbwG2qzlwIsJY/UOTtz+NcAPgAMabJe6YRq4NnE7ZeA10ObsC5wGvBVYNWJZ+xMu9r8OZ0jUXNVJ6OowgGbif85mPBF4H2EQ8zAbCVnlLwh3RCG8bWdv4B7MnVJh1grCcJODgL8iDJyWUqY99hpoRrED6asTUPXdiwgnaPU4bQW+ADwS2G6JMu4MvAm4fEg504RpFqozJ3aJA+nru4D4Y/XfY2npZMr+LLwB9CbPZ/gx+g5wz4TyVhOugV4/pMyfAzcbvclFMoDW93Pij9XHxtLSyRQdQDdHbnD31nalbIcy/9jdSHiv4qg35/YBfsT8Y/9ZunkN2gBa31nEH6uPjqWlkyn7o5wKE359grnXkDcRZjh8C6Nfc/oFcD/gfyrfPwZ4xohla7KlTDk83XgrBDiMKdXrgFsMLE8TZjc8ocE6NhAC5qmV798E7NpgPZosBtCCOIwp3u2ZP3fMO4GPZ6hrE/AE4JKB725OGGyvfjKAFsQMNN7zmdt1/yXwyoz1/ZFwXXXQU4HdMtapchlAC2IGGmdb4JjKd/9E2uDmGP8NnDOwvApnUOwrA2hBzEDjHAzsOLD8e8LNpNy2Ah+ofPeEFupVeQygBTEDjXN4ZfkztPdyh+Mry3ciDMBXv6Q8iWQAzcQMNE51DOzXWqz7IsL11kEHtli/ymAGWhAz0DjV+aDObLn+H1eW79Vy/Ro/M9CCpLxQuc//GDsP/HkT7b/g41eV5YVmXFR3pTyk0ef/s1mlvFC5r93+Vcx90fE1Y2jD5ZXlnYeupS4zgBbEDLS+GyvLK8fQhmr3LaU7p8lmAC2IU3rUtxlYP7C8I+2/T3XbyvJlQ9dSl6WM+jCAZuKkcnF+P/DnKWC/luuvvni5ibnCNVnMQAviXfg4P60s37fl+u9aWXaO7/4xgBbEABrnjMryY1usexVzA/Zm4Fst1q8yGEAL0tc76qlOriwfBtyupbofx9xroF8FrmipbpXDa6AFMQONcy5w9sDyNoQpOHJbBryg8t2HW6hX5TEDLYgZaLx3V5aPJrw9PqenMXeOpV/R7MubNTkMoAUxA433UeDigeVtZr5bm6m+fYC3Vb57M+29xERlsQtfEDPQeBuAF1e+25twfXR1w3XtApxEeAv9rLOADzVcjyaHGWhBzEDTfBL4UuW7A4GvEIJeE/YCvgvsO/DdjcCzMfvsMwNoQcxA00wDTwIurHx/f8JQp4NHLP9RhDGe+1a+fzWO/ew7A2hBzEDTXQkcAVxa+X4vwkyaHyJMQBfjDoTJ6U5k/sybnyVMmax+M4AWxAx0NOcAhzL3EU8IPzLHAOcRro0+EdhjgTJ2Ah5PCJDnMnyqjq8Af8Po881r8nkTqSBtvwyji84D7kG4E1+d8mM58PCZD4Rs9Q+E7HUtYW75Wy9R/nuBY/HNSwrMQAuynPguuV34+S4DHkaY8vgNwPYLrLf7zKdumc8FPj1y69QlBtCC2IVvzlbgXYQXfow6V9LJhPmXDJ6qSgmgXvrJxJtIzbuQ0JWvPnpZ16uBRxC6+lKVQ9gKYgaaxzRhAHyKC5psiDonpTtuFz4TA2h5zDC0mJRgaBc+E7vw5TGAqmlmoJmYgZbHbEGLsQtfEOdEKo8ZqBZjAC2IXfjyGEDVNANoJnbhy2MXXosxAy2IGWh5zEDVNANoJmag5TGAajFmoAUxAy2PXXgtxgBaEDPQ8piBqmkG0EzMQMtjBqrFmIEWxAy0PGagWowBtCBmoOUxA9ViDKAFMQMtT98y0AOBf0/Y7gHAm4GVzTankwygmZiBlqcvAXQ1IQB+G7hTwvYrgJcCPyBMqaKFGUAzMYCWpw9d+EMIc0m9lNF7QXcDTgNe2UBZk8ApPQripHLl6XIAXUZ44/6rgG0WWOdC4Ezg58DGme+2Be5CyDSHTRW9Eng9cH/C7KVXNtfkTjCAZrSVcIDrfh4ynmZOnL2IO66zn5Tu7CSYAt7P8H2+BvgXwjxQS7kT8A7gigXK+jFhquiuOob4c+pF42johLqBuGNrAM0kNYDuM47GtuC9DN/fT1F/ptJB2wOvA9YPKfMMYNXoTS7SMcSfUy8cR0MnlAG0EKkBdFgXddL9HfP3cwPwuAbK3o/Q3a+W/4EGyi7RU4g/p44dS0snU1QA9SZSebp2F35f4D2V764DHgYc30D55wL3Ab5Z+f7pNBOgSzPd0jaqoQ93LSdN124iHUe4CTRrC/BI4NQG61gHPJwwpGnQO4E1DdYzqQygmZiBlqdLGehhwOGV795As8Fz1nrgKODqge/2BP5PhrrGyQy0IGag5elSAK3evDidMNwol98MKf+5hBtOXWEALUjKpHJmoHl1pQu/J/DQyncvI/8PxL8Clw4s7ww8KXOdpTOAZmIGWp6uZKAPZ+75dRrwrRbq3QR8uPLdE1qoty1moAXxGmh5upKBVoe7faLFuk+oLB8E7NZi/aUxgGZiBlqermSg+1eWv9Ji3WcB1w4sTwH3brH+nMxAC2IGWp4uBNDtCA8SzFoH/LLF+m8Ezq58d68W6y+NATQTM9DydKELf3Pmnlt/oP39qgbsPVuuvyRdOKeKZAZani5koDtUlq8fQxuuqCzvPIY25GAXviApAdR/jLy6EEA3V5bH8TRQtQ2bxtCGHFISGDPQTMxAy9OFk/3ayvLutH/erK4sX9Zy/bmYgRbEa6BlmX0z1qS7krlBdAfgDi23oXrN85yW6y9JF86pIpmBlqUL2SeE/7DVu+AHtdyGu1WWT2+5/pIYQDMxgJalC9c/Z1UD1lEt1r03c4dR/Qn4SYv152QXviB24cvSlQwU4OTK8mG097LooyvLnyGMDe2rLp1XRTEDLUuXMtDvAJcMLC8nzJyZ22rg7yvffaiFektmBpqJGWhZuhRANwP/VvnuyeS/Fvpq4JYDy98gzPLZZ2agmZiBlqVrJ/q/MfcFx1PAB4G1meo7hPkzUL4xU13j4jXQgpiBlqVLGSjA5cBrKt/tQ7gmubLhuvYDPgusGPjuePK8/X7SGEAzMQMtS9cCKITpjL9X+e5BwBdo7k3x9yVccx2cD/4qnA99lgE0EzPQsnStCw/h7vfjmfuWeAhzJZ0G3HmEsqcIQfIU5j/r/rfARSOU3SVdPK+KYAAtSxczUAhvYzqC8ITSoLsCPwTezNzssY4HEbLO/0t4fd6gNzL/pcp9ZgaaUe1J5Gc+jxlPMyfOXsQf29+OpaXtuTshEx2279cB/0WYCmRYMF0FHAi8lvBY5kLH8N0Z21+Co/D/bE43EHds/cfIJCWA/nosLW3XLQld7sWOw1ZC9/vHwBnAhSx9Ym8Gjm1xP8YlJYA+eiwtnUxRAXR5QgXeRMqnq134QZcADyZMefw6QmZZtYzwMpC6L0E+F3ga/X7efTFeA83Ea6Bl6cuJvgV4O+GFH6PM1LkFeCtwDwyei/EaaCYOY8on5aTtQwY66JfAoYSnh1I8EXgpsLGxFnWTATQTM9Cy9C2AQvjPnZqFXthkQzqsLz2b1hlAy9LnNwalqE7boeHMQDOxC1+WPmago7hh3A0Yg5RgaAaaiRloPl4Dzc8MtB4z0EwMoGUxgMYxgNZjAM3ELnxZDKBx+tiFT2EXPhMz0LIYQOOYgdZjBpqJGWg+XgPNr48BNOW8MoBmYgZaFgNoHLvw9diFz8QMtCwG0Dh9zEBTmIFmYgaaj134/HzwoB4DaCZmoGUxgNZ3I3ZN6zKAZmIGWhYDaH197b77JFJBzEDzsQuflzeQ6jMDzcQMtCwG0Pr6moGmMIBmYgZaFgNofQbQ+uzCZ2IGmo9d+LzswtdnBpqJGWhZDKD19TUDTckmDaCZmIGWxQBaX18DaMo54nmViQE0H7vwefW1C59yjvjAQSZ24cviiV5fXzPQlC68P8yZmIGWxRO9vr4GUDPQgpiB5uMTI3n1NYCmBEMDaCYG0LL0NQNN+bHp6zVQu/AFsQtfFjOF+jaNuwFjkhIM+5qtZ2cGmk9KptDXLnxKBtrXoOAwpoKYgeaTctL2tVuaEkDNQOuzZ5OJATSflJPWAFpfX4+VAbQgBtB8Uk7avmZVZqD1GUAL4jXQfMxA6zMDrc8AWhAz0HxSbnL0NatKYQCtzwCaiRloPluIz6z6GhTswtfnONCCmIHmFfvL39egYBe+vthgmPJDrprMQPOKDaB9DQoG0PpiA6jd94zMQPMyA63HAFqfAbQgZqB5mYHWYwCtL6ULr0wMoHkZQOtJ2e++ZutmoAWxC5+XAbSeDQnbXNd4KyZD7DllAM3IDDQvr4HWYwCtb33k+n39UW6FGWheZqD1bEzY5trGWzEZ1hN3zXhdrobIDDS36yPXNwOtr68Z6FbislADaEYpAdRBufVdHbn+VVlaUb6NxJ9X1+RoyISI+WHu6w9NK8xA84r9Tx4bcLtiK/HZd58DQ0xW2efjlJ0BNK+YgHgd/b0GCnBl5Pp9DgyXRKzb12vFrfAmUl6/iVj38lyNmBC/i1j3GuKvL3dJzLG6OFsrZAaa2fkR6/4qWysmw9kR6/b9WMUE0IuytUJmoJl9h/qvHzs3Z0MmwJcj1j0zWysmw6kR616YrRUCwt3PmM+zx9PMifVJ6h3Xw8fVwEJsA5yOx6qOlYQf3KWO0/XA9mNq46S6gbh4aADNbA1wMosf049hbwBgN+A0Fj9W7xpb68qyN4sH0RuB546tdZMrewB9Tmu70h3LgKOB7xNO7GnC2MevA0eOsV0lWkH4j/9TwuWP2UzqJODgMbarRKuBlwMXcNP/z2sIvZ57jLFdk8wAWrjtgJ0IgUKLWw3cnNC91+LWEI6VPZnRRAXQ5WNqZJ9tJO3Z7z5aT/zLM/rKRzbHwGFMkpTIdF+SEhlAJSmRXXhJSmQGKkmJzEAlKZEZqCQlMgOVpERmoJKUyAxUkhKZgUpSIjNQSUpkBipJiQygkpTILrwkJTIDlaREZqCSlMgMVJISmYFKUiIzUElKZAYqSYnMQCUpkRmoJCUyA5WkRGagkpTIDFSSEhlAJSmRXXhJSmQGKkmJzEAlKZEZqCQlMgOVpEQpAXS7xlshSeO3koSYOB35+TWwvJn2SlIxnk58PIzeYBp4Qks7JElt2AY4n5YC6E/wWqik7jiKtFiYtNE08NBWdkuS8vshLQfQb7axV5KU2UNJj4PJG04DB7ewc5KUyzLgNMYUQL+P10IlTa5HM1oMHGnj6ZkGSNKkWQ6czZgD6LnAtpl3VJKa9lJGj38jFzANvCXzjkpSk/YB1jM/ll095LvGAugNwLuHfH8jcGDW3ZWkZqxk+I2jM4AXDfm+0QA6BXxsyN/9ElibcaclqQnvYX78+gWwG/DMIX/XaAAFWAGcPOTvTyFEd0kq0VOZH7f+CNxh5u+fPeTvGw+gAKuAbw1Z5+M4tElSeY4ANjM3Xl0P3HdgnefRUgCF0GX/0ZD13oZBVFI5DmP+TaPNwMMq6z2fFgMowC0I1w+q636A8IYTSRqnxwEbmRuftgBPGbLusbQcQAFuTbiJVF3/eGB14k5L0qheSBglNBiXtgLPWGD97HfhF7InwzPRc4H9I3dakkaxBvgk8+PRVuC5i2z34iHbtBJAIWSiFwzZbj3wLLwuKim/QxiezG0i3IVfzEuGbNdaAAXYiTCcadj2pwP3qVGGJMXaBfgPQpZZjT1XEALrUl42ZNtWAyiEcaLvW6CMrYSB+PvVLEuSFrMGeDVwLcNjzo+AO9Ys6x8XKKPVADrrScCVC5S1Ffgq8Aicn15SvJsDrwIuY3iM2Qy8kbiHe16xQFljCaAAt2L4U0uDn0sJw54eBWyfUIek/tgdeCsLZ5yzWWfK5cJXLVLmvM+ymT/UtZn0RzUfCbwBuMsS690AXANcB1xFGIJw3cDfX0PIXgE2EMZ3DXMtYazXMJuBdYu0YbFtq+1pwnUz5TZlqf3rqpvR3d7MKmC7cTcikynCv10dBwDHsPCxuIgQBD/KTXEixmuA18ZskDsDHTQFHM3wO2R+/Pjxk/r5I2EI0ipG808x9bb9a72V8MuwL3Ak4a68JKW6jHDnfC/CI+QbRiwvKiaOq7uzFTiJ8BD/Qdx0jVSS6vgTIXDejvBC9/UNlRsVE5c3VOkovjvz2Z9wbcNHPyUt5ifABwkD45sWnVTGXGcY9RqoJJXsLRR8DVSSSjYR10AlqUQGUElKZACVpEQGUElKFPXKTQOoJN3EDFSSEhlAJSmRAVSSEhlAJSmRAVSSEhlAJSmRAVSSEhlAJSmRAVSSEhlAJSmRAVSSEhlAJSmRAVSSEmV9G1NU4ZI0YbJmoAZQSV1mAJWkRAZQSUpkAJWkRFExcXlCBcsIk8qP03Lg/sC9gX2BPYC1M591wBnAccB542qgpIkUPTJpOvIzzqFPtwXeCVwxpF3Vz0bgWeNppqQJ9TXi4mF0AN2mtV25yQrgFcCGhPa+egztlTSZvkHmAJrS7R/FWuJ/Faqft7XcZkmT6RQ6FEBXAd9LaOOwzxtabLekyfQtMgfQla3tCnwkoX2LfY5tse2SJs+3yRxAt21pR/4yoW1LfbYAh7TUfkmT57tkDqDbtbQjpye0rc7n18D2Le2DpMkSdckwZUhSG4Pp9yeM8VzM74HXEDLKuwIPIlzn/O0S2+0FPHbE9knqpuzjQFc31dJFvHyR+rcA/0y4wTTMCuA5wLWLlHFixrZLmlxnkLkL30b399ML1L0ROKJmGbcBfrZAOWc13F5J3fBDMgfQHVr4yUIuAAAE/ElEQVTYidOG1LsVeHRkObsC5wwp6zdNNVRSp5xF5mugbTyJNKxdHye+630Z8BRCt3/Q9SmNktR52af0aGMc6OVDvnt9Ylk/AL5Q+e7ixLIkdVv2ANrGk0jVtyj9CDh/hPI+U1k+c4SyJHVX9gC6ImGbWF+vLI960+dXS5QvSZB5UjloJwM9hXD9ctYlI5a3aeDPfwS+OWJ5krqpExnoJuDdDdZ5x4E/v5f5N5UkCVoYSH+Xplq6hDWExy6ngc+NWNb7Zsq5AthpxLIkddcvyDwO9IDWdgUOBTYT7sqnPoO/Izc9lfSMhtolqZt+ReYAeq/WdiV4xky9T03c/riZ7U/ASfEkLe5CMgfQ+7W2Kzc5FvgTcKvI7Q4iXO/8f4RMVJIW81syB9CDW9uVuZ5MmK+k7g2lWwJ/AD5GuJ4qSUu5iMwB9EGt7cp8DyC8aWkpK4D3EF7KLEl1XUzmAHpka7uSbg3jnX5Z0mS6hIh4mDIofhK6w+vG3QBJEyn7QPo2XmcnSeOQPYBOQgYqSSnMQCUpUfYA6oyWkrrKDFSSEmUPoDdL2EaSJkH294HeMmEbSZoEUXO+pQTQPRK2kaRJEP3CodgnkTYDqxtqrCSVYg1wIxHxcIr4+YaWA/duqMGSVIqXkjBt+/OJz0I/3Ex7JakIewDXEx8L2YUwB1HMRuuJfzenJJXqw8QHz2tnNz4hYeOP5N8nScruAMKL12Nj4JtmC3hkwsZbGd/LlSWpCVPAacTHv3XArrOFrCDMlx5byEXAznn3T5KyeR7xcW8aeHu1oNclFnQyCXeuJGnMDgA2EB/z1gO7Vwu7BbAxobBp4F/z7J8kZbE78GvS4t1xCxX6gcQCp4HXNLt/kpTFzsDPSItz61hkBNLuwDWJBU8Db2lyLyWpYXsB55Ae4161VAX/OELh08CHgO0a2FFJatJDSbtZPvu5iBqPsW8LnDdCJdPADwiRXpLGbWfg3wlDL1Nj2lZCAK7lANJvKM1+rgdeBqxM3GlJGsVawvPtVzJaLJsG3hNb+QsaqHSaMFH9KwmD7u8G3BonppOUxzbAAwkZ53U0E8N+DKwaVtli775bBnwSOGrEHVrKNYT0+EbCDkMYm7VxyDqDBtcftJ7wbH/V1YSDMUoZVVfVWGepuhZSPQZLuW6mjlzWEV5lmNvmmbpGtYLu/FBvT3M9uVWk3aO4+QLfT7HwLBXLWXgKoMX+fbZl7rXG1TPfwdxjsWamnB0I2ebsZ1uacynh7XO/G/aXS708dDvgK8ADGmyQJE2CDcAhwBkLrbDUG+k3Ep6T/3lzbZKk4m0AHsUiwRPqTelxNXAY8KMGGiVJpdsEPB746lIr1p0T6U/AocB3RmiUJJXuKsJwpS/WWTnmJSCbgE8RxnfeNb5dklS0XxDu4J9Zd4PYtyhtJrx8+XLgQQnbS1KJTgKOAH4fs1HKtMYQ3r50EOGBfEmaVOuBZwJHEgbcRxklg7yY8Pam9cD9COOxJGlSfBF4NDVuFi0kehL5BdwGeDHwdBYYsS9JhfgZIV59ZdSCmgqgs24BHEsIpLsusa4ktWWakGm+A/ga859KTNJ0AJ21LfBYwrWFgzLVIUkL2US4q34BcArweSJvENWRK4AOugshkB4N7NhCfZLm20h4uiZGyvsPhr1zYjFbGJhffcDgux2unVkP5r4X4+qZv6t+LiPco6m+P6Nx/wvXLYnNdhfIgwAAAABJRU5ErkJggg==" vertex="1" parent="1">
          <mxGeometry x="620" y="240" width="70" height="90" as="geometry" />
        </mxCell>
        <mxCell id="4slyxXOM6MHCRde4LKaO-13" value="Search Head Cluster" style="text;html=1;align=center;verticalAlign=middle;resizable=0;points=[];autosize=1;strokeColor=none;fillColor=none;fontFamily=Georgia;fontStyle=2;fontSize=18;" vertex="1" parent="1">
          <mxGeometry x="180" y="70" width="190" height="40" as="geometry" />
        </mxCell>
        <mxCell id="4slyxXOM6MHCRde4LKaO-15" value="Indexer Cluster" style="text;html=1;align=center;verticalAlign=middle;resizable=0;points=[];autosize=1;strokeColor=none;fillColor=none;fontFamily=Georgia;fontStyle=2;fontSize=18;" vertex="1" parent="1">
          <mxGeometry x="200" y="330" width="150" height="40" as="geometry" />
        </mxCell>
        <mxCell id="4slyxXOM6MHCRde4LKaO-22" value="" style="shape=image;verticalLabelPosition=bottom;verticalAlign=top;imageAspect=0;aspect=fixed;image=data:image/png,iVBORw0KGgoAAAANSUhEUgAAAVAAAAG0CAYAAABkPX9NAAAACXBIWXMAAA7DAAAOwwHHb6hkAAAAGXRFWHRTb2Z0d2FyZQB3d3cuaW5rc2NhcGUub3Jnm+48GgAAIABJREFUeJzt3XmcXUWd9/FPdxKSECCgbAIOICKICOOouIIrgqCAoA6jqAjIojDzuKOOO64z8uiIojAKCi4oKIoCIjKIIgyODygiIqig7FsIS9Zenj/q9tB2bnffqjrrvZ/363VeJN3n1P2dkHy7zlJVQ5Tn0cDbgDcAC0v8HEmazi+AjwPnlNH4UAltbgm8BTgcWFBC+5IU61LgfcBFRTZaZIA+BngP8BpgXoHtSlJRLgTeT+iZZisiQDcA3gn8C/Y4JbXDD4A3AzfkNDIns4iDgHOB3YG5mW1JUlUeBxxJ6PT9HBhNaSS1B7oYOIEQoJLUZr8FXgtcGXtgSg90R+ASYLeEYyWpaTYGXgfcAlwVc2BsgL4YOA/YJPI4SWqyucB+hGc6FwJjvRwUcwn/WuDL5N83laQm+w7wT8Cq2XbsNUAPAk7F8JQ0GH4E7A8sm2mnXgL0lcDXMTwlDZbzgH2B1dPtMFsoPgU4G5hfYFGS1AbbAtsQMnA89uAtgds7B+Zu9wFHYy9WUvl2B35HMdk1Drw3toC5wOUFffg5hIlFJKkqcwmjI+8jP8NGgT1jPvxDBXzoDcAe8ectSYXZFDiF8FpSTp7dBTyqlw98OjCS8UFjhFFKa2ectCQVaU/gZvJC9MzZPmQY+J+MD7gTe52SmmkD4ALyQnT/mT7gkIyGbyUM85SkppoLnER6zv0ZWKtbw/MJIZjS6I3A3xV7npJUiiHCwKDUED2qW6MHJza2HHhywScoSWWaR/rl/M10eTf+qsTGDivn/CSpVOuT/mDp0MkNPSWxkYvLOzdJKt2epL3idC3hoTsAxyU0MALsVPLJSVLZTiWtA7nvRAMpo45OLPusJKkCmwJLic/ASycauCvywOXAFqWfliRV462k9UJZlHDQJ6s5J0mqxFzgahICdMfIAx4grCEiSf3khSQE6B6RB7y/qrORpIrFzgPCARE73wusV9mpSFK1ogJ0GFgnovFbgfuLrFaS2mqY8BCpVzGreEpSX4sNUElShwEqSYli74F6CS9JHfZAJSnRMHFrF9kDlaSOYcLEopKkSMPAnIj97YFKUscwYRC9JClSbIDaA5WkDnugkpTIHqgkJbIHKkmJ7IFKUiJ7oJKUyACVpES+SC9JieyBSlIiHyJJUiJ7oJKUaLiz9coeqCR1xAaoJKkjNjztgUpSxzCGoiQliQ1Qw1aSOrz/KUmJ7IFKUiLvgUpSIp/CS1Iie6CSlMgAlaREXsJLUiJ7oJKUyNeYJCmRL9JLUiJ7oJKUyHugkpTIp/CSlMgeqCQl8h6oJCXyKbwkJbIHKkmJvAcqSYm8hJekRHMj97e3qjbbANge2AKYD6wNrNf59bqzHHsdcEqp1al15uI9UA2GhcAvgW0y2lgAnFhMOeoXdwPjPW531lSjVITHAnfQ+9/3qdso8IrKq1aVRoj7O8E9ETsboGq7XYAHSQ/RlcDulVetqpQaoHdVdx5SaV4CrCY9RJcC/1B51apCdIDeG7GzAap+8QbSA3TiauxxlVetskUH6JKIne+u7jyk0n2YvBD9I7Bp5VWrTAao1KMh4MvkhehvgPWrLlyliQ7Q+yJ2vqe685AqMQ84j7wQ/S/CK05qv+gAXRqxswGqfrQ2cBl5IXo2MKfqwlW4UgP03urOQ6rURsAfyAtRX7Jvv+gAvT9iZwNU/Wwb4HbyQvR9lVetIkUH6AMROy+p7jykWjyVvBftx4FjKq9aRTFApUx7k/eivUM+2ys6QGN+2hqgGhSHkdcLdchnO0UH6EMRO99X3XlItfsAeSG6FHhS1UUriwEqFehz5IXoncC2lVetVNEBuixi56XVnYfUCHOAs8gL0RtwyGdbRAfo8oidDVANooXAz8gL0V/jkM82KDVA76/uPKRGWUwIwZwQvYiwfIiaKzpAV0TsbIBqkG0O3EheiH4Xh3w2WXSArozY+YHqzkNqpB2Im4S82/b5yqtWrwxQqWRPI3+00r9WXrV6ER2gqyJ2frC685AaLXe00jhwdOVVazbRARrzl8AAlR52EDBGeoCOAC+vvGrNJCpAhwg90Hk9Nr4MWFRwwW3xD8Ar6y5Cya4GvlZCu+8CPppx/ApgD+CSYspRphEiH/LFJO5DRVbaMkOEm/85l2xu9W3fWvN/aWGOz6zNIZ/NEX0JPxqx8yAHKIQQPZH6w8AtfiszQIeAr2TWdyuwdYk1qjelBuiy6s6jsYaAL1J/ILjFbWUGKITbYOdn1ngDsEnJdWpmUQE6TAgE9W4cOAr4at2FqFFWE+YA/VVGG9sAPwDWLaQilW44cn/DNhgDDgFOq7sQNcoDwIuB6zLaeAphgTqHfLaAAZpuFHg98I26C1Gj3EV4R/T2jDaeD5xK/L9P1SDmHs2KmmpssrnAGdR/j89t5q3se6BTPYm4FW+7bZ+puGYlPESK2dkA7W4O8HXqDwm36beqAxTgucRN1tNte3fVRQ+4UgN0ZXXn0TrzgO9Qf1C4dd/qCFAIgy9i3nSZuo0Bh1Ze9eAyQGs0jzBdWd1h4bbmVleAAhw5Q129bCPAAZVXPZhKDdBV1Z1Ha60FfI/6A8Ptb7c6AxTgw+TVvxzYtfKqB0/0WPjxiMZXEwJCM5tPeFfUV1Ga4/eEH2x1GQJOIiyXnGoJ8BzCuH6VI3osfMxPwdVFVioNmCIWqLsF2KriugdJqZfwBqiUZyFh5qWcEL0eh3yWpdQAHanuPKS+tRi4irwQ/SWwTtWFDwADVGqBzchfoO4neJ+9aNEBGjOjtgEqFWdb4A7yQvQbOOSzSKUG6Gh15yENhF0Ik5DkhOjnKq+6fxmgUsvsRdzijt22Yyuvuj+VOqHyWHXnIQ2UV5O3QJ1DPothgEot9U7yeqEjwP6VV91fSg3Q8erOQxpInyIvRJfhkM8cBqjUYkOEyZRzQvQ+YOeK6+4X0QEafYCkUs0DziMvRB3ymab0AHVZD6l8awO/IC9Erwc2rrrwljNApT6xIWEWqZwQvQKHfMYoPUAd9SBVZ2vgVvJC9EIc8tmr6ABdHXlA1Fx5krLtTHgwlBOip+HVYy8MUKkPPYcwK31OiP5b5VW3jwEq9al9iP8HPnV7a+VVt0t0gMaOwTVApfocQV6AjgGvq7zq9ig9QOdWdiqSuvkgeSG6Ctij8qrbwQCVBsBnyQvRh4CnV15185UeoPMqOxVJ05kDnEleiN4FbFd14Q0XHaArIw8wQKVmWAD8lLwQ/SOwadWFN1jpAeq68FJzrAdcSV6I/gZYv+rCGyoqQIeAFcSNUlhACN0qLSIE9zBhRcNu35tsLrBul3bWY+a3COZ09inKfMKY5qJ0O1c1x5XAGTV87ubApcCWGW38hIdnxh9kI0S+abSCuJ9WVQwJm09YtjW2d+zmVud2GvXZnnBPM6d+F6iL7IE29Q9rJfB/CEVKmt3vCT3IBzPaOJDwdF89GiY+pKoaT3spcBguIyL16pfAPxJGF6Z6I2FpEfVgmGZPMHA6cEzdRUgtci5wMHlXbx8DDimkmj7X5B7ohM8D7634M6U2+zp5yxwPAScB+xVTTn+LneFlYT1l8omIGt3c6tjqfIjUTREL1D2z8qrrFf0QaTzyA+q65D+W8FNRUm/eRuiNploIfA9HK02r6fdAJxsHjgS+UHchUkuME+6Hnp/RxoaEGe0fXURB/SalB1qnccJTQnuiUm9WAwcAl2W0sQXh4dQGhVTUR1LeA627xzoOHAV8teY6pLZYRpiM+bqMNnYEvksYiaiOpr5IP5sxwmsWTbtpLzXV3cCLgdsy2ngOYaiqk6p3tOkh0lSjwOsJ74pKmt2fgRcBSzLa2Af4XDHltF/K5MhNCVB4OET/mzDRhlSna+ouoAe/BfYnPFhKndfiCOBm4Liiimqzh4h7N6zbLEeS2qWIBereVHnV5YueD9QAlQZT7gJ1I4TebD+JDtAHIw8ocr5MSfXKXaBuGfDsyqsujwEqKUruAnX3ATtVXnU5Sg/QqTPCS2q3Ihaou5m8GfGbIjpAH4g8wACV+s8C4BLyQvQa4BFVF16w0gPUxaek/rSY/AXqLqfdrxQaoJKSbUZ44T4nRM8h7R3zJjBAJWV5LHAHeSF6cuVVFyM6QO+PPMAZWaT+91TiO1dTtw9WXnU+A1RSIV5I/tLi/1x51XlKD9C2P2WT1LtXE2Y/Sw3QUeDllVedzgCVVKh3kNcLXUnozbZBdIAujTzgkZWdiqSmyF2gbinw95VXHS86QO+LPGDDyk5FUlMMA18jL0RvofmjlUrvgRqg0mCaB1xAXoj+jmbfBrQHKqk065E/WukSmru2UukBulFlpyKpiTYDbiQvRL9HM9dWMkAllW4H4F7yQvTzlVc9u9IDdOPKTkVSk+0GLCcvRN9SedUziw7QJZEHGKCSJryC8LJ8aoCOAa+pvOrpGaCSKvVG8nqhTXrRvvQA3aSyU5HUFseTF6JLacayINEBGnsj2ACVNNUQcBp5IXoz8OiqC58iKkCHCAEaM8PSZsBtBRbcFs8ADq67CCnBJYRRRGVbAPyI8HAp1W86xy8tpKJ4I0S+XnUPcT8lHlVgsW0yBJxA3k9YN7c6ti9QnQ2A32bW+xNgrQprniyqBzqc8AFDxdTZOuPAMcCJdRciNdgSYC/CuPdUzwdOKqaccqUE6CAbB95EM18AlpriL8AehHfMU70OeGcx5ZTHAI03DhyNPVFpJtcALyO8opTqY8AriymnHF7Cp5noiVZ5b0lqm4sJD17HEo8fAk4lrM/USMOEMIhhgAYTIfqVuguRGuws4IaM4xcCX6ahuWMPNM8YcAjh/TdJa/o48LiM40eAtxLf0auE90DzjQGvB06vuxCpYQ4mf7KQNxMmcW4kA7QYo4S/LFW8rCy1wa7kPyP4EuHd68byHmhxJkL0WzXXIdVtW+BsYH5GGxcCRxZTTnm8B1qsEcI62mfWXYhUk42A88hb9+i3hGnyRgqpqERzsQdatBHgVcC5hEW4pLpdW9HnrA2cA2yT0cYthJFMOS/hV+ou4sapblVLlZKabBj4Dnlj4JcCO1dd+BTR09ndGXnAVlWdiaTW+Ax54bkK2L3yqtdUeoBuXdmpSGqDt5MXnmPAayuvujsDVFJlctdEGgeOrbzq6UUH6B2RBzymslOR1GS7kr8q5xcrr3pmpQdozhM2Sf3h8cRPxj51O4fwJlCTGKCSSrURcD154XkFsKjqwntQeoA+trJTkdQ0awOXkReeN9Dc5dGjA/T2yAO2rexUJDXJXOAH5IXnHTT7KjY6QG+LPCBnaipJ7TQE/Cd54fkgsEvVhUcqvQdqgEqD5zjywnME2LfyquMZoJIKdQR54Tkx8XgblH4Jv11lpyKpbvsQHypTtya9KD8bA1RSIXYj/0X5ti0BXnqAbl/ZqUiqyxOAe8kLz7OBOVUXnik6QG+NPODxlZ2KpDpsAdxEXnheDCyouO4iGKCSkj0S+B154Xk1sEHVhRek9ADdobJTkVSlhcDPyAvPvwKPrrrwAhmgkqLNAc4iLzzvpv3PSKID9JbIA55Q2alIqsoJ5IXnMuCZlVddvNIDdMfKTkVSFT5EXniOAPtVXnU5DFBJPTucvPAcAw6tvOryRAfozZEHPLGyU5FUppcCq8kL0PdUXnW5DFBJs3o68BB54fmFyqsuX1SAzu38IsZwYaWWZ+IdtGFg8ZTvrQ3Mn+a4hUz/8u+CzvcVbwR4oKS2lwMrSmr7AULtZVjS+e9SwmVwlZ4AnEv4t5DqLOBNxZTTXk1bjyTHWsCv8B6t2mV74LoKP+/RwPnkveh+CXAQYTXOgdaG3mSvVhFuiK+suxApwjoVftZiwozyW2S0cQ3hiXtZvf5WGSb+En6ojEIKchlwMNVfEkmpqgrQhYTw3Cmjjb8Ae/Dw7YeBN0yzAzHFN4HDiP/BINWhigCdA5wOPDujjXuAPQmvPaoj5RK+DYF7CvCWuouQelBFgH4a2D/j+OWEy/Zriymnf/TbJfxknwY+VncR0izWLbn99wNHZxw/ChwI/LyYcvpLPwcowLuBz9VdhDSDMnughwMfyGzjKOD7+aX0p356Cj+dY4CT6i5CmkZZAbov+ctpvB84uYBa+tYgBOg4cCRwYt2FSF2UEaBPA75G3nIaJxEmGdH0xvv1IdJU44RRE1+suxBpiqIDdAfCKKNFGW2cg6OMejIoAQohRI/Cy3k1S5EBujkhPB+R0cblhIdGZQ1h7SspD5HabCJEv1p3IVJHUU/hFwM/BLbMaON3wN6EyZHVg36dTGQmY8AhwE9o56qB6i9/LaCNBYTL7p0z69iDsJSxItxI3BRWu9RSpaRuhoEzyZuW7j7yhnj2k5jp7MYA/hxxwDjhCZ+kZvgP8sJzGXlDPPtN6QH69MpORdJM3k9eeI6QN8SzHxmg0gCYmDAnZ8sZ4tmvogP0TxEHjAPPqOxUJHXzEvLXMvpA1UW3REyAjoIBKrXJ04AHyQtP34WeXukB+szKTkXSZDsQ5uXMCc9z6K+lfIoWHaB/jDhgHHhWZaciacIWwE3khefPcWHE2UTdA+336eykfrABcB7wdxlt/A7YhzA5sgrSj0t6SP1kIfA98labvQXYC0cZFW180MbCS20ysZbRrhltLCWE502FVKQ13EDcfZSc/5mSejNEmMw4556no4ziRT9Eig3Q3So7FWlwHUdeeI4AL6u86vaLDtDrIw4wQKXyHUleeI4Bh1ZedX8oPUCfU9mpSINnP+L+EXfb3lV51f0jOkD/EHGAASqV57nACvLC01Vo88QE6AjEB+hzqzoTaYA8EVhCXnh+g/ZPeF630gP0eZWdijQYHgPcRl54XgTMr7rwPhQVoL4HKtVrQ8JCcJtmtPEbwhP3lYVUpJ4N0qqcUtOsC5wPbJfRxh8JaxktLaQiRfF+iVSPecC3gSdntHEXYZTR7YVUpGhOJiJVbwj4T0LPMdX9wJ6EZxiq0e+Ju1n9wnrKlPrG8eQ9MFoJ7F551YMh+im8ASpV513kheco8IrKqx4cUQE6l/hLeO+b9m4XHFLXFL+i/qUsDgY+ktnGPxPunaohriXuJ6CXDnE+Tl6Pw62Y7Vuz/Y8q2d7kLwT3ocqrHjzR74HG8iFSnGOBT9ZdhGq1C3AGeWsRnQy8r5hyVJCkCZUN0HjHAifUXYRqsS3wA2BRRhvnAG8sphwVyfuZ1Rgn3LtyoofBsjnwY2CjjDYuBw6k88RXzeIlfHXGgWOAz9ddiCqxGPghsGVGG9cQXpRfVkhFKlzKJby91nQTIfqlugtRqRYSwnPnjDZuIrxov6SQilSGIXug1RsD3gB8se5CVIqJheCeldHGPcCLCatpqrnGUwLUHmi+ccJDga/WXYgKNUT4wbh/RhvLCOu3X1tIRSqVT+HrMwYcApxWdyEqzHHkDZxYDbwc+EUx5ahs9kDrNQq8nnDJp3Y7Cnh3xvHjwBHAecWUoyoYoPUbJQzx+1rNdSjdfsBnM9t4B3BKAbWoQo6Fb4aJEL0QWKveUvrWn0pq9/nANwkPj1IdD/x7MeWoalcTNx7XmWCkoIiF4L6OnZImiRkLv8r3QKU0jwEuANbPaOMnhHvgY4VUpMp5D1SKtxH5C8H9knDv1IXgWswX6aU46xKelOcsBHcD8FLgwUIqUm28hJd6V8RCcLcS5tS9o5CKVCsv4aXeFLUQ3N7AjUUUpPp5CS/15lPAazOOXwUcAFxVTDlqAi/hpdm9C3hzxvGjwKsJ7/mqz1xF3HtrLpKmQXIQ4TWjnHc9j6m8aqWKeg8U4gP0DZWdilSvIhaCcx2jdokO0CsjDhgHDq/sVKT67EJ4zSgnPL9QedXKFT0SKZb3QNXvdiC865mzENz3gTcVU44aygmVpSk2J4wyekRGGz8F/pHw8Eh9zAmVpYctJoTnlhltXA28DFhRSEVqNHugUrCQsH77Thlt/BkXghsoBqj08EJwz85o427CQnC3FVKRWsFLeA26IheCu66QitQa9kA16IpYCO4A4LJiylGbGKAaZEUsBPcG4PxiylHbOBZeg6qIheDeBnylgFrUUs7GpEH0PPIXgvsEYTE4DTAv4TVodgK+A8zPaONrhBmaNOC8hNcg2Zr8heDOJSwEF/vvRn3IANUgeS+wScbxlxOW9V5dTDlqu7kJx3gPVG11JPBJwqqaG7Lm3/8xYOkMx/+K8M6nBKQFqD1QtdUq4PedTcqVNBuTPVBJwnugkpTMHqgkJfI9UElK5CW8JCXyEl6SEnkJL0mJvISXpDS+BypJqbyEl6REXsJLUqKUAM2ZhFaS+sXQMPH3NA1QSeo8RIrtgc4roxJJapuU+5kGqCSRFqApc4hKUt/xEl6SEnkJL0mJDFBJSpP0FN57oJKEPVBJSmaASlIiL+ElKZGvMUlSopRL+AWFVyFJLZQSoGsXXoUktVBKgC4qvApJaqGUe6D2QCWJ9Et410WSNPBS10TyQZKkQZc0lBO8jJekpHugAOsVXYgktcxQ6gqbmxRahiTVL/rZTmqAPirxOElqqr2IWzRz3ACVpOCdsQek3gPdMuEYSWqqZwC7xh6U2gN9XuJxktREx6YeeCGhFxqzjQJb59UrSY2wAzBGfA4+lNoDHQY+mFezJDXCsWSMrkzpgU70QnfMqVqSarYDMEJaBj6U+hAJQi/0ozmVS1LNPkzcq0uTjUN6D3RiOyC9dkmqzXNIu/c5sT0A8OOMBsaBO4GNSj5RSSrSfOBa8rLv/pRL+Eum/H4j4NNJpyBJ9fgwsP2Ur60GvhvRxjjE90BfBZze5etHpZ2HJFVqb9a8dB8DDibkWK9ZeB/ABREHjAMHEmZj+sOUr68i3FOQpKbaBriXNXPt6M7339jle9NtS1Iu4ceA+4FXAismfX0ecCawbewZSVIFNgbOBzaY8vUPACd0fh3zbnzSZCJjnf9exZqX7RsC/wVsl9CuJJVlMXAe8NgpX/8sfzsoKCpAAX5E3CX8/lMaOb7LPrfjS/aSmmET4P+xZk6dzpqB+eYu+0233Q2hSxsToPtN+cA5wLenaXyP7FOXpHSPA25gzXz6NuG241Rv6bLvdNtdEB+g+3T50HnA97vsOwZ8nPRZnyQp1b7AEtbMpTPpHp4Ab++y/3TbnRAfoC+Z5oPnA2dMc8wFhKdfklS2dYHP0X2U0beAuTMc+44ux0y33QHhxmpMgO41w4cPA5+a5rhlwHuAtXr7M5CkaPsCf6V7Bh3P7OPej53m2G7b7RAfoHv2cBKvAR6c5vg/AUcQeqySVIRnARfTPXNWAof12M67p2mj23YbwLkRB4wDL+qxkCcAv56hnZsJN2w37LE9SZpqN2buBP4ReHZEe++Zoa2p260QH6AvjChmXqeg5TO0two4m/B61KKItiUNpiHgpcClTJ8rY4T7oOtEtv3eGdqcut0y083U6YzNvsv/Wg18hPBw6aPAy1lz5ud5hPsW+3Z+fzPhMv8ewoinie0Bwn3UlZOOvZ8wsTOEE7pv0vdGOsdMWEEI8gkPdurr1VLizl3qZuoomLZYRDOeXzyLsHrmE2bY5wrC0/SpEx/1IupF+rmE4ImREiI3EIZ+7kLokb6E6QvdorP1q9jg1prWwqsVrela4F8JMyrF5tqE6ACNldMLu4LQ09yOMHj/QAbvHmjsJYWkmV0BfJIQnLlXiZWNhc9xHXAMsBnhxfyTCb1USerFOOH5zXOBpwFnUUw2NfISfjqrgXM6G4TZUrYBtgS2AjYlXKotJrwcu86k30OYVm/iva6FwIICa5Pa5gHCvf+6rCQ8pyjbpcC/AVeX0Hbpl/Cp9xZ6cWdnuyyznTmEcJ3OOkw/lCvW5BDvNw8R3pJog6kPGKs2SnioqXYrPUBHZ9+ldqOEMbDTmel7kgZXK+6BSlITGaCSlCg6QOt8iCRJTWIPVJISGaCSlMhLeElKNHWujpnYA5WkSbyEl6REXsJLUiJ7oJKUyB6oJCWyBypJiQxQSUrkJbwkJbIHKkmJDFBJSlT6JXyZM9JLUp3sgUpSoqhMNEAl6WFewktSotIv4Q1QSf3KAJWkRDFLlHsJL0mTRK8L39ZA3Ax4MvAYYAFhrfcbgcuB++srS1KLRQdorDoDd23gcOAQ4InT7DMKXAR8EfgO7f0BIal6UZfwAN/u/KLXbVGBxcbYH7itxxontv8BdqqjWEmtdDG958ulbbgHOgz8O3AWsGnksU8GrgBeU3RRkvpS9EOkWFUH6GeAt2YcPx/4CnBkMeVI6mN99RrTIcDRBbQzBJwAHFBAW5L6V9+8xrQpcHyB7c0BTgO2LbBNSf2lb3qgbwcWF9zmQuB9BbcpqX9E9UCb+hrTAuDQHvZbTXhIdAPh3c+dgd1mOWaPvNIk9bGoHijAN4l7NSgldGPtO0sNNwBvpHsP9bnAn2c5fqsyi5fUWr+h9yy8qKmX8LtO8/UR4N3ADsDngaVd9rkYeBbhD2I6j8opTlLfKv0eaBV27PK1UWA/4GPAqlmOvxV4HnDdNN9fmF6apD5W+lP4KkJ3gy5f+xTww4g27gX2AZZ1+Z4BKqmbmHwbSQnDmIRONbWuVaS90vQH4CNdvj6a0Jak/heTb0kBWkUP9JYpv/9v4I7Etj5D6I1OtjyxLUn9LSZAV6dcwlfRA716yu+vzGjrIeCMLl+TpKliOoijTb2Ev2DK7+/ObO/8Sb8eB67PbE9Sfyr9HmgVl/CXEu5fTlgrs71rJ/36erq//iRJ0QHaxEv4MeATk36/eWZ7k197OjGzLUn9K2agUGOfwgOcCvy88+tnZrY1MXv9NcAXMtuS1L8WROyb1AOt6uX7MeAgwiz02wG7JLazPnBcp529gRWFVCepH82P2LfRPVCAmwihdw/hfc6hhDa+S3gx/wWd9iSpmyHinrc09iHSZFcCzybM4xk7M/3GhHdKn8rfPkiSpKnWIq6TlnQJX8VsTFP9nnAf9AWEiUJ6dSfhNsCdZRT/p/WKAAADxUlEQVQlqa/EXL5DYg907YRjinArsBfw15o+X1J/i3mABC0LUAi95b/U+PmS+ldSDzT2En6dyP0lqQ2SAjT2yXadPVBJKktsgC5P6YEuitxfktog9h7ospR7oAaopH4U2wNd5j1QSQpiO4dJPdCi12qXpCbYOHL/pAB1RUtJ/WjTyP2TLuFzp5aTpCbaJHL/5Sk90G5LDktS2z0+cv+kHuhWwBaRx0hS0z1x9l3+xtKUHugQ8JqE4ySpqbYDtozYfxy4JXVqukOBeYnHSlLTvCpy/3uAFcPAaMKHbQMckXCcJDXNusCbIo+5ZeIXLyB0R2O3O4FHZhYuSXX7CPH5973JDfw4oYFx4NulnpYklevxwEris+8tkxt5KmERt5QQPaTEk5OksiwAriIt93aY2tiZiQ2tIKxZJEltMURYOj0l837arcHtgdWJDd4FPK7oM5SkknyctKwbJywt1NVnMhq9hRDCktRUQ8CnSM+5XzDDJPTrA3dkNH4b8PfFnaskFWZd4AzS822EHvLt4IwPGAceAv4p+1QlqTjPICyPnpNt/7eXDxoCzs78oHHgS/ieqKR6PQo4kTBgKCfPfk3Ekh+PAG7K/MBxwsv2b+20J0lV2QH4D2AZ+Tn2INPM1DTTipzPAi4C1so+FVgO/Ba4r7MtAe7n4WGkSzr/He18HWAV4XbAVEu6fI3Ovqu6fH014Q+gm/sIf0BTLSO8XCspmE/3FXmHCM9OulkXmNvl6wuAhV2+Pkz3FS/WA+Z0fr1B579zOl+HkFGLO99bnzCv5xrvaSYaBw4EvtXtm7Mtafxq4LQe9htkk0M/1oOEgI81AjyQ+JlFmOmHUlstJH5VxiItIq2zMjlIYq2DkwLN5j3AR6f7Zi/B+Hbgk4WVI0ntcDJw+Ew7zJnpmx2/IPxk3LWIiiSpBU4hhGe3W3z/q5cAhXAv9CFgd7ycl9TfTgUOI8wPMqNeAxRCT/SvhGFMMcdJUlt8DPgXZul5TkjpTT6T8Da/6yJJ6herCZMqnxxzUOrl+EbA6cCLEo+XpKa4kTB68vLYA1PXRLoL2JMwF+g9iW1IUt3OAJ5EQnhCeoBCuEdwCmEGpi+TtraSJNXhekIn8EDCgJokOQE64W7CKp2PB75CeMlbkprobsJyHE8EfpTbWBmvJG0NvB54LXHrLEtSWR4AjifMBVrYKL4y3+kcBnbj4Znq1+983uSxs5PHvs4ljJ3tZrpxuFPN1MZkM43frcpahOF7gyZn6GGvJs+z0G9yhg63QRnzUPyMMBzzroLb5f8D7PCyxufo5BMAAAAASUVORK5CYII=" vertex="1" parent="1">
          <mxGeometry x="770" y="600" width="69.36" height="90" as="geometry" />
        </mxCell>
        <mxCell id="4slyxXOM6MHCRde4LKaO-23" value="" style="shape=image;verticalLabelPosition=bottom;verticalAlign=top;imageAspect=0;aspect=fixed;image=data:image/png,iVBORw0KGgoAAAANSUhEUgAAAVAAAAG0CAYAAABkPX9NAAAACXBIWXMAAA7DAAAOwwHHb6hkAAAAGXRFWHRTb2Z0d2FyZQB3d3cuaW5rc2NhcGUub3Jnm+48GgAAIABJREFUeJzt3XmcXUWd9/FPdxKSECCgbAIOICKICOOouIIrgqCAoA6jqAjIojDzuKOOO64z8uiIojAKCi4oKIoCIjKIIgyODygiIqig7FsIS9Zenj/q9tB2bnffqjrrvZ/363VeJN3n1P2dkHy7zlJVQ5Tn0cDbgDcAC0v8HEmazi+AjwPnlNH4UAltbgm8BTgcWFBC+5IU61LgfcBFRTZaZIA+BngP8BpgXoHtSlJRLgTeT+iZZisiQDcA3gn8C/Y4JbXDD4A3AzfkNDIns4iDgHOB3YG5mW1JUlUeBxxJ6PT9HBhNaSS1B7oYOIEQoJLUZr8FXgtcGXtgSg90R+ASYLeEYyWpaTYGXgfcAlwVc2BsgL4YOA/YJPI4SWqyucB+hGc6FwJjvRwUcwn/WuDL5N83laQm+w7wT8Cq2XbsNUAPAk7F8JQ0GH4E7A8sm2mnXgL0lcDXMTwlDZbzgH2B1dPtMFsoPgU4G5hfYFGS1AbbAtsQMnA89uAtgds7B+Zu9wFHYy9WUvl2B35HMdk1Drw3toC5wOUFffg5hIlFJKkqcwmjI+8jP8NGgT1jPvxDBXzoDcAe8ectSYXZFDiF8FpSTp7dBTyqlw98OjCS8UFjhFFKa2ectCQVaU/gZvJC9MzZPmQY+J+MD7gTe52SmmkD4ALyQnT/mT7gkIyGbyUM85SkppoLnER6zv0ZWKtbw/MJIZjS6I3A3xV7npJUiiHCwKDUED2qW6MHJza2HHhywScoSWWaR/rl/M10eTf+qsTGDivn/CSpVOuT/mDp0MkNPSWxkYvLOzdJKt2epL3idC3hoTsAxyU0MALsVPLJSVLZTiWtA7nvRAMpo45OLPusJKkCmwJLic/ASycauCvywOXAFqWfliRV462k9UJZlHDQJ6s5J0mqxFzgahICdMfIAx4grCEiSf3khSQE6B6RB7y/qrORpIrFzgPCARE73wusV9mpSFK1ogJ0GFgnovFbgfuLrFaS2mqY8BCpVzGreEpSX4sNUElShwEqSYli74F6CS9JHfZAJSnRMHFrF9kDlaSOYcLEopKkSMPAnIj97YFKUscwYRC9JClSbIDaA5WkDnugkpTIHqgkJbIHKkmJ7IFKUiJ7oJKUyACVpES+SC9JieyBSlIiHyJJUiJ7oJKUaLiz9coeqCR1xAaoJKkjNjztgUpSxzCGoiQliQ1Qw1aSOrz/KUmJ7IFKUiLvgUpSIp/CS1Iie6CSlMgAlaREXsJLUiJ7oJKUyNeYJCmRL9JLUiJ7oJKUyHugkpTIp/CSlMgeqCQl8h6oJCXyKbwkJbIHKkmJvAcqSYm8hJekRHMj97e3qjbbANge2AKYD6wNrNf59bqzHHsdcEqp1al15uI9UA2GhcAvgW0y2lgAnFhMOeoXdwPjPW531lSjVITHAnfQ+9/3qdso8IrKq1aVRoj7O8E9ETsboGq7XYAHSQ/RlcDulVetqpQaoHdVdx5SaV4CrCY9RJcC/1B51apCdIDeG7GzAap+8QbSA3TiauxxlVetskUH6JKIne+u7jyk0n2YvBD9I7Bp5VWrTAao1KMh4MvkhehvgPWrLlyliQ7Q+yJ2vqe685AqMQ84j7wQ/S/CK05qv+gAXRqxswGqfrQ2cBl5IXo2MKfqwlW4UgP03urOQ6rURsAfyAtRX7Jvv+gAvT9iZwNU/Wwb4HbyQvR9lVetIkUH6AMROy+p7jykWjyVvBftx4FjKq9aRTFApUx7k/eivUM+2ys6QGN+2hqgGhSHkdcLdchnO0UH6EMRO99X3XlItfsAeSG6FHhS1UUriwEqFehz5IXoncC2lVetVNEBuixi56XVnYfUCHOAs8gL0RtwyGdbRAfo8oidDVANooXAz8gL0V/jkM82KDVA76/uPKRGWUwIwZwQvYiwfIiaKzpAV0TsbIBqkG0O3EheiH4Xh3w2WXSArozY+YHqzkNqpB2Im4S82/b5yqtWrwxQqWRPI3+00r9WXrV6ER2gqyJ2frC685AaLXe00jhwdOVVazbRARrzl8AAlR52EDBGeoCOAC+vvGrNJCpAhwg90Hk9Nr4MWFRwwW3xD8Ar6y5Cya4GvlZCu+8CPppx/ApgD+CSYspRphEiH/LFJO5DRVbaMkOEm/85l2xu9W3fWvN/aWGOz6zNIZ/NEX0JPxqx8yAHKIQQPZH6w8AtfiszQIeAr2TWdyuwdYk1qjelBuiy6s6jsYaAL1J/ILjFbWUGKITbYOdn1ngDsEnJdWpmUQE6TAgE9W4cOAr4at2FqFFWE+YA/VVGG9sAPwDWLaQilW44cn/DNhgDDgFOq7sQNcoDwIuB6zLaeAphgTqHfLaAAZpuFHg98I26C1Gj3EV4R/T2jDaeD5xK/L9P1SDmHs2KmmpssrnAGdR/j89t5q3se6BTPYm4FW+7bZ+puGYlPESK2dkA7W4O8HXqDwm36beqAxTgucRN1tNte3fVRQ+4UgN0ZXXn0TrzgO9Qf1C4dd/qCFAIgy9i3nSZuo0Bh1Ze9eAyQGs0jzBdWd1h4bbmVleAAhw5Q129bCPAAZVXPZhKDdBV1Z1Ha60FfI/6A8Ptb7c6AxTgw+TVvxzYtfKqB0/0WPjxiMZXEwJCM5tPeFfUV1Ga4/eEH2x1GQJOIiyXnGoJ8BzCuH6VI3osfMxPwdVFVioNmCIWqLsF2KriugdJqZfwBqiUZyFh5qWcEL0eh3yWpdQAHanuPKS+tRi4irwQ/SWwTtWFDwADVGqBzchfoO4neJ+9aNEBGjOjtgEqFWdb4A7yQvQbOOSzSKUG6Gh15yENhF0Ik5DkhOjnKq+6fxmgUsvsRdzijt22Yyuvuj+VOqHyWHXnIQ2UV5O3QJ1DPothgEot9U7yeqEjwP6VV91fSg3Q8erOQxpInyIvRJfhkM8cBqjUYkOEyZRzQvQ+YOeK6+4X0QEafYCkUs0DziMvRB3ymab0AHVZD6l8awO/IC9Erwc2rrrwljNApT6xIWEWqZwQvQKHfMYoPUAd9SBVZ2vgVvJC9EIc8tmr6ABdHXlA1Fx5krLtTHgwlBOip+HVYy8MUKkPPYcwK31OiP5b5VW3jwEq9al9iP8HPnV7a+VVt0t0gMaOwTVApfocQV6AjgGvq7zq9ig9QOdWdiqSuvkgeSG6Ctij8qrbwQCVBsBnyQvRh4CnV15185UeoPMqOxVJ05kDnEleiN4FbFd14Q0XHaArIw8wQKVmWAD8lLwQ/SOwadWFN1jpAeq68FJzrAdcSV6I/gZYv+rCGyoqQIeAFcSNUlhACN0qLSIE9zBhRcNu35tsLrBul3bWY+a3COZ09inKfMKY5qJ0O1c1x5XAGTV87ubApcCWGW38hIdnxh9kI0S+abSCuJ9WVQwJm09YtjW2d+zmVud2GvXZnnBPM6d+F6iL7IE29Q9rJfB/CEVKmt3vCT3IBzPaOJDwdF89GiY+pKoaT3spcBguIyL16pfAPxJGF6Z6I2FpEfVgmGZPMHA6cEzdRUgtci5wMHlXbx8DDimkmj7X5B7ohM8D7634M6U2+zp5yxwPAScB+xVTTn+LneFlYT1l8omIGt3c6tjqfIjUTREL1D2z8qrrFf0QaTzyA+q65D+W8FNRUm/eRuiNploIfA9HK02r6fdAJxsHjgS+UHchUkuME+6Hnp/RxoaEGe0fXURB/SalB1qnccJTQnuiUm9WAwcAl2W0sQXh4dQGhVTUR1LeA627xzoOHAV8teY6pLZYRpiM+bqMNnYEvksYiaiOpr5IP5sxwmsWTbtpLzXV3cCLgdsy2ngOYaiqk6p3tOkh0lSjwOsJ74pKmt2fgRcBSzLa2Af4XDHltF/K5MhNCVB4OET/mzDRhlSna+ouoAe/BfYnPFhKndfiCOBm4Liiimqzh4h7N6zbLEeS2qWIBereVHnV5YueD9QAlQZT7gJ1I4TebD+JDtAHIw8ocr5MSfXKXaBuGfDsyqsujwEqKUruAnX3ATtVXnU5Sg/QqTPCS2q3Ihaou5m8GfGbIjpAH4g8wACV+s8C4BLyQvQa4BFVF16w0gPUxaek/rSY/AXqLqfdrxQaoJKSbUZ44T4nRM8h7R3zJjBAJWV5LHAHeSF6cuVVFyM6QO+PPMAZWaT+91TiO1dTtw9WXnU+A1RSIV5I/tLi/1x51XlKD9C2P2WT1LtXE2Y/Sw3QUeDllVedzgCVVKh3kNcLXUnozbZBdIAujTzgkZWdiqSmyF2gbinw95VXHS86QO+LPGDDyk5FUlMMA18jL0RvofmjlUrvgRqg0mCaB1xAXoj+jmbfBrQHKqk065E/WukSmru2UukBulFlpyKpiTYDbiQvRL9HM9dWMkAllW4H4F7yQvTzlVc9u9IDdOPKTkVSk+0GLCcvRN9SedUziw7QJZEHGKCSJryC8LJ8aoCOAa+pvOrpGaCSKvVG8nqhTXrRvvQA3aSyU5HUFseTF6JLacayINEBGnsj2ACVNNUQcBp5IXoz8OiqC58iKkCHCAEaM8PSZsBtBRbcFs8ADq67CCnBJYRRRGVbAPyI8HAp1W86xy8tpKJ4I0S+XnUPcT8lHlVgsW0yBJxA3k9YN7c6ti9QnQ2A32bW+xNgrQprniyqBzqc8AFDxdTZOuPAMcCJdRciNdgSYC/CuPdUzwdOKqaccqUE6CAbB95EM18AlpriL8AehHfMU70OeGcx5ZTHAI03DhyNPVFpJtcALyO8opTqY8AriymnHF7Cp5noiVZ5b0lqm4sJD17HEo8fAk4lrM/USMOEMIhhgAYTIfqVuguRGuws4IaM4xcCX6ahuWMPNM8YcAjh/TdJa/o48LiM40eAtxLf0auE90DzjQGvB06vuxCpYQ4mf7KQNxMmcW4kA7QYo4S/LFW8rCy1wa7kPyP4EuHd68byHmhxJkL0WzXXIdVtW+BsYH5GGxcCRxZTTnm8B1qsEcI62mfWXYhUk42A88hb9+i3hGnyRgqpqERzsQdatBHgVcC5hEW4pLpdW9HnrA2cA2yT0cYthJFMOS/hV+ou4sapblVLlZKabBj4Dnlj4JcCO1dd+BTR09ndGXnAVlWdiaTW+Ax54bkK2L3yqtdUeoBuXdmpSGqDt5MXnmPAayuvujsDVFJlctdEGgeOrbzq6UUH6B2RBzymslOR1GS7kr8q5xcrr3pmpQdozhM2Sf3h8cRPxj51O4fwJlCTGKCSSrURcD154XkFsKjqwntQeoA+trJTkdQ0awOXkReeN9Dc5dGjA/T2yAO2rexUJDXJXOAH5IXnHTT7KjY6QG+LPCBnaipJ7TQE/Cd54fkgsEvVhUcqvQdqgEqD5zjywnME2LfyquMZoJIKdQR54Tkx8XgblH4Jv11lpyKpbvsQHypTtya9KD8bA1RSIXYj/0X5ti0BXnqAbl/ZqUiqyxOAe8kLz7OBOVUXnik6QG+NPODxlZ2KpDpsAdxEXnheDCyouO4iGKCSkj0S+B154Xk1sEHVhRek9ADdobJTkVSlhcDPyAvPvwKPrrrwAhmgkqLNAc4iLzzvpv3PSKID9JbIA55Q2alIqsoJ5IXnMuCZlVddvNIDdMfKTkVSFT5EXniOAPtVXnU5DFBJPTucvPAcAw6tvOryRAfozZEHPLGyU5FUppcCq8kL0PdUXnW5DFBJs3o68BB54fmFyqsuX1SAzu38IsZwYaWWZ+IdtGFg8ZTvrQ3Mn+a4hUz/8u+CzvcVbwR4oKS2lwMrSmr7AULtZVjS+e9SwmVwlZ4AnEv4t5DqLOBNxZTTXk1bjyTHWsCv8B6t2mV74LoKP+/RwPnkveh+CXAQYTXOgdaG3mSvVhFuiK+suxApwjoVftZiwozyW2S0cQ3hiXtZvf5WGSb+En6ojEIKchlwMNVfEkmpqgrQhYTw3Cmjjb8Ae/Dw7YeBN0yzAzHFN4HDiP/BINWhigCdA5wOPDujjXuAPQmvPaoj5RK+DYF7CvCWuouQelBFgH4a2D/j+OWEy/Zriymnf/TbJfxknwY+VncR0izWLbn99wNHZxw/ChwI/LyYcvpLPwcowLuBz9VdhDSDMnughwMfyGzjKOD7+aX0p356Cj+dY4CT6i5CmkZZAbov+ctpvB84uYBa+tYgBOg4cCRwYt2FSF2UEaBPA75G3nIaJxEmGdH0xvv1IdJU44RRE1+suxBpiqIDdAfCKKNFGW2cg6OMejIoAQohRI/Cy3k1S5EBujkhPB+R0cblhIdGZQ1h7SspD5HabCJEv1p3IVJHUU/hFwM/BLbMaON3wN6EyZHVg36dTGQmY8AhwE9o56qB6i9/LaCNBYTL7p0z69iDsJSxItxI3BRWu9RSpaRuhoEzyZuW7j7yhnj2k5jp7MYA/hxxwDjhCZ+kZvgP8sJzGXlDPPtN6QH69MpORdJM3k9eeI6QN8SzHxmg0gCYmDAnZ8sZ4tmvogP0TxEHjAPPqOxUJHXzEvLXMvpA1UW3REyAjoIBKrXJ04AHyQtP34WeXukB+szKTkXSZDsQ5uXMCc9z6K+lfIoWHaB/jDhgHHhWZaciacIWwE3khefPcWHE2UTdA+336eykfrABcB7wdxlt/A7YhzA5sgrSj0t6SP1kIfA98labvQXYC0cZFW180MbCS20ysZbRrhltLCWE502FVKQ13EDcfZSc/5mSejNEmMw4556no4ziRT9Eig3Q3So7FWlwHUdeeI4AL6u86vaLDtDrIw4wQKXyHUleeI4Bh1ZedX8oPUCfU9mpSINnP+L+EXfb3lV51f0jOkD/EHGAASqV57nACvLC01Vo88QE6AjEB+hzqzoTaYA8EVhCXnh+g/ZPeF630gP0eZWdijQYHgPcRl54XgTMr7rwPhQVoL4HKtVrQ8JCcJtmtPEbwhP3lYVUpJ4N0qqcUtOsC5wPbJfRxh8JaxktLaQiRfF+iVSPecC3gSdntHEXYZTR7YVUpGhOJiJVbwj4T0LPMdX9wJ6EZxiq0e+Ju1n9wnrKlPrG8eQ9MFoJ7F551YMh+im8ASpV513kheco8IrKqx4cUQE6l/hLeO+b9m4XHFLXFL+i/qUsDgY+ktnGPxPunaohriXuJ6CXDnE+Tl6Pw62Y7Vuz/Y8q2d7kLwT3ocqrHjzR74HG8iFSnGOBT9ZdhGq1C3AGeWsRnQy8r5hyVJCkCZUN0HjHAifUXYRqsS3wA2BRRhvnAG8sphwVyfuZ1Rgn3LtyoofBsjnwY2CjjDYuBw6k88RXzeIlfHXGgWOAz9ddiCqxGPghsGVGG9cQXpRfVkhFKlzKJby91nQTIfqlugtRqRYSwnPnjDZuIrxov6SQilSGIXug1RsD3gB8se5CVIqJheCeldHGPcCLCatpqrnGUwLUHmi+ccJDga/WXYgKNUT4wbh/RhvLCOu3X1tIRSqVT+HrMwYcApxWdyEqzHHkDZxYDbwc+EUx5ahs9kDrNQq8nnDJp3Y7Cnh3xvHjwBHAecWUoyoYoPUbJQzx+1rNdSjdfsBnM9t4B3BKAbWoQo6Fb4aJEL0QWKveUvrWn0pq9/nANwkPj1IdD/x7MeWoalcTNx7XmWCkoIiF4L6OnZImiRkLv8r3QKU0jwEuANbPaOMnhHvgY4VUpMp5D1SKtxH5C8H9knDv1IXgWswX6aU46xKelOcsBHcD8FLgwUIqUm28hJd6V8RCcLcS5tS9o5CKVCsv4aXeFLUQ3N7AjUUUpPp5CS/15lPAazOOXwUcAFxVTDlqAi/hpdm9C3hzxvGjwKsJ7/mqz1xF3HtrLpKmQXIQ4TWjnHc9j6m8aqWKeg8U4gP0DZWdilSvIhaCcx2jdokO0CsjDhgHDq/sVKT67EJ4zSgnPL9QedXKFT0SKZb3QNXvdiC865mzENz3gTcVU44aygmVpSk2J4wyekRGGz8F/pHw8Eh9zAmVpYctJoTnlhltXA28DFhRSEVqNHugUrCQsH77Thlt/BkXghsoBqj08EJwz85o427CQnC3FVKRWsFLeA26IheCu66QitQa9kA16IpYCO4A4LJiylGbGKAaZEUsBPcG4PxiylHbOBZeg6qIheDeBnylgFrUUs7GpEH0PPIXgvsEYTE4DTAv4TVodgK+A8zPaONrhBmaNOC8hNcg2Zr8heDOJSwEF/vvRn3IANUgeS+wScbxlxOW9V5dTDlqu7kJx3gPVG11JPBJwqqaG7Lm3/8xYOkMx/+K8M6nBKQFqD1QtdUq4PedTcqVNBuTPVBJwnugkpTMHqgkJfI9UElK5CW8JCXyEl6SEnkJL0mJvISXpDS+BypJqbyEl6REXsJLUqKUAM2ZhFaS+sXQMPH3NA1QSeo8RIrtgc4roxJJapuU+5kGqCSRFqApc4hKUt/xEl6SEnkJL0mJDFBJSpP0FN57oJKEPVBJSmaASlIiL+ElKZGvMUlSopRL+AWFVyFJLZQSoGsXXoUktVBKgC4qvApJaqGUe6D2QCWJ9Et410WSNPBS10TyQZKkQZc0lBO8jJekpHugAOsVXYgktcxQ6gqbmxRahiTVL/rZTmqAPirxOElqqr2IWzRz3ACVpOCdsQek3gPdMuEYSWqqZwC7xh6U2gN9XuJxktREx6YeeCGhFxqzjQJb59UrSY2wAzBGfA4+lNoDHQY+mFezJDXCsWSMrkzpgU70QnfMqVqSarYDMEJaBj6U+hAJQi/0ozmVS1LNPkzcq0uTjUN6D3RiOyC9dkmqzXNIu/c5sT0A8OOMBsaBO4GNSj5RSSrSfOBa8rLv/pRL+Eum/H4j4NNJpyBJ9fgwsP2Ur60GvhvRxjjE90BfBZze5etHpZ2HJFVqb9a8dB8DDibkWK9ZeB/ABREHjAMHEmZj+sOUr68i3FOQpKbaBriXNXPt6M7339jle9NtS1Iu4ceA+4FXAismfX0ecCawbewZSVIFNgbOBzaY8vUPACd0fh3zbnzSZCJjnf9exZqX7RsC/wVsl9CuJJVlMXAe8NgpX/8sfzsoKCpAAX5E3CX8/lMaOb7LPrfjS/aSmmET4P+xZk6dzpqB+eYu+0233Q2hSxsToPtN+cA5wLenaXyP7FOXpHSPA25gzXz6NuG241Rv6bLvdNtdEB+g+3T50HnA97vsOwZ8nPRZnyQp1b7AEtbMpTPpHp4Ab++y/3TbnRAfoC+Z5oPnA2dMc8wFhKdfklS2dYHP0X2U0beAuTMc+44ux0y33QHhxmpMgO41w4cPA5+a5rhlwHuAtXr7M5CkaPsCf6V7Bh3P7OPej53m2G7b7RAfoHv2cBKvAR6c5vg/AUcQeqySVIRnARfTPXNWAof12M67p2mj23YbwLkRB4wDL+qxkCcAv56hnZsJN2w37LE9SZpqN2buBP4ReHZEe++Zoa2p260QH6AvjChmXqeg5TO0two4m/B61KKItiUNpiHgpcClTJ8rY4T7oOtEtv3eGdqcut0y083U6YzNvsv/Wg18hPBw6aPAy1lz5ud5hPsW+3Z+fzPhMv8ewoinie0Bwn3UlZOOvZ8wsTOEE7pv0vdGOsdMWEEI8gkPdurr1VLizl3qZuoomLZYRDOeXzyLsHrmE2bY5wrC0/SpEx/1IupF+rmE4ImREiI3EIZ+7kLokb6E6QvdorP1q9jg1prWwqsVrela4F8JMyrF5tqE6ACNldMLu4LQ09yOMHj/QAbvHmjsJYWkmV0BfJIQnLlXiZWNhc9xHXAMsBnhxfyTCb1USerFOOH5zXOBpwFnUUw2NfISfjqrgXM6G4TZUrYBtgS2AjYlXKotJrwcu86k30OYVm/iva6FwIICa5Pa5gHCvf+6rCQ8pyjbpcC/AVeX0Hbpl/Cp9xZ6cWdnuyyznTmEcJ3OOkw/lCvW5BDvNw8R3pJog6kPGKs2SnioqXYrPUBHZ9+ldqOEMbDTmel7kgZXK+6BSlITGaCSlCg6QOt8iCRJTWIPVJISGaCSlMhLeElKNHWujpnYA5WkSbyEl6REXsJLUiJ7oJKUyB6oJCWyBypJiQxQSUrkJbwkJbIHKkmJDFBJSlT6JXyZM9JLUp3sgUpSoqhMNEAl6WFewktSotIv4Q1QSf3KAJWkRDFLlHsJL0mTRK8L39ZA3Ax4MvAYYAFhrfcbgcuB++srS1KLRQdorDoDd23gcOAQ4InT7DMKXAR8EfgO7f0BIal6UZfwAN/u/KLXbVGBxcbYH7itxxontv8BdqqjWEmtdDG958ulbbgHOgz8O3AWsGnksU8GrgBeU3RRkvpS9EOkWFUH6GeAt2YcPx/4CnBkMeVI6mN99RrTIcDRBbQzBJwAHFBAW5L6V9+8xrQpcHyB7c0BTgO2LbBNSf2lb3qgbwcWF9zmQuB9BbcpqX9E9UCb+hrTAuDQHvZbTXhIdAPh3c+dgd1mOWaPvNIk9bGoHijAN4l7NSgldGPtO0sNNwBvpHsP9bnAn2c5fqsyi5fUWr+h9yy8qKmX8LtO8/UR4N3ADsDngaVd9rkYeBbhD2I6j8opTlLfKv0eaBV27PK1UWA/4GPAqlmOvxV4HnDdNN9fmF6apD5W+lP4KkJ3gy5f+xTww4g27gX2AZZ1+Z4BKqmbmHwbSQnDmIRONbWuVaS90vQH4CNdvj6a0Jak/heTb0kBWkUP9JYpv/9v4I7Etj5D6I1OtjyxLUn9LSZAV6dcwlfRA716yu+vzGjrIeCMLl+TpKliOoijTb2Ev2DK7+/ObO/8Sb8eB67PbE9Sfyr9HmgVl/CXEu5fTlgrs71rJ/36erq//iRJ0QHaxEv4MeATk36/eWZ7k197OjGzLUn9K2agUGOfwgOcCvy88+tnZrY1MXv9NcAXMtuS1L8WROyb1AOt6uX7MeAgwiz02wG7JLazPnBcp529gRWFVCepH82P2LfRPVCAmwihdw/hfc6hhDa+S3gx/wWd9iSpmyHinrc09iHSZFcCzybM4xk7M/3GhHdKn8rfPkiSpKnWIq6TlnQJX8VsTFP9nnAf9AWEiUJ6dSfhNsCdZRT/p/WKAAADxUlEQVQlqa/EXL5DYg907YRjinArsBfw15o+X1J/i3mABC0LUAi95b/U+PmS+ldSDzT2En6dyP0lqQ2SAjT2yXadPVBJKktsgC5P6YEuitxfktog9h7ospR7oAaopH4U2wNd5j1QSQpiO4dJPdCi12qXpCbYOHL/pAB1RUtJ/WjTyP2TLuFzp5aTpCbaJHL/5Sk90G5LDktS2z0+cv+kHuhWwBaRx0hS0z1x9l3+xtKUHugQ8JqE4ySpqbYDtozYfxy4JXVqukOBeYnHSlLTvCpy/3uAFcPAaMKHbQMckXCcJDXNusCbIo+5ZeIXLyB0R2O3O4FHZhYuSXX7CPH5973JDfw4oYFx4NulnpYklevxwEris+8tkxt5KmERt5QQPaTEk5OksiwAriIt93aY2tiZiQ2tIKxZJEltMURYOj0l837arcHtgdWJDd4FPK7oM5SkknyctKwbJywt1NVnMhq9hRDCktRUQ8CnSM+5XzDDJPTrA3dkNH4b8PfFnaskFWZd4AzS822EHvLt4IwPGAceAv4p+1QlqTjPICyPnpNt/7eXDxoCzs78oHHgS/ieqKR6PQo4kTBgKCfPfk3Ekh+PAG7K/MBxwsv2b+20J0lV2QH4D2AZ+Tn2INPM1DTTipzPAi4C1so+FVgO/Ba4r7MtAe7n4WGkSzr/He18HWAV4XbAVEu6fI3Ovqu6fH014Q+gm/sIf0BTLSO8XCspmE/3FXmHCM9OulkXmNvl6wuAhV2+Pkz3FS/WA+Z0fr1B579zOl+HkFGLO99bnzCv5xrvaSYaBw4EvtXtm7Mtafxq4LQe9htkk0M/1oOEgI81AjyQ+JlFmOmHUlstJH5VxiItIq2zMjlIYq2DkwLN5j3AR6f7Zi/B+Hbgk4WVI0ntcDJw+Ew7zJnpmx2/IPxk3LWIiiSpBU4hhGe3W3z/q5cAhXAv9CFgd7ycl9TfTgUOI8wPMqNeAxRCT/SvhGFMMcdJUlt8DPgXZul5TkjpTT6T8Da/6yJJ6herCZMqnxxzUOrl+EbA6cCLEo+XpKa4kTB68vLYA1PXRLoL2JMwF+g9iW1IUt3OAJ5EQnhCeoBCuEdwCmEGpi+TtraSJNXhekIn8EDCgJokOQE64W7CKp2PB75CeMlbkprobsJyHE8EfpTbWBmvJG0NvB54LXHrLEtSWR4AjifMBVrYKL4y3+kcBnbj4Znq1+983uSxs5PHvs4ljJ3tZrpxuFPN1MZkM43frcpahOF7gyZn6GGvJs+z0G9yhg63QRnzUPyMMBzzroLb5f8D7PCyxufo5BMAAAAASUVORK5CYII=" vertex="1" parent="1">
          <mxGeometry x="889.36" y="600" width="69.36" height="90" as="geometry" />
        </mxCell>
        <mxCell id="4slyxXOM6MHCRde4LKaO-24" value="" style="shape=image;verticalLabelPosition=bottom;verticalAlign=top;imageAspect=0;aspect=fixed;image=data:image/png,iVBORw0KGgoAAAANSUhEUgAAAVAAAAG0CAYAAABkPX9NAAAACXBIWXMAAA7DAAAOwwHHb6hkAAAAGXRFWHRTb2Z0d2FyZQB3d3cuaW5rc2NhcGUub3Jnm+48GgAAIABJREFUeJzt3XmcXUWd9/FPdxKSECCgbAIOICKICOOouIIrgqCAoA6jqAjIojDzuKOOO64z8uiIojAKCi4oKIoCIjKIIgyODygiIqig7FsIS9Zenj/q9tB2bnffqjrrvZ/363VeJN3n1P2dkHy7zlJVQ5Tn0cDbgDcAC0v8HEmazi+AjwPnlNH4UAltbgm8BTgcWFBC+5IU61LgfcBFRTZaZIA+BngP8BpgXoHtSlJRLgTeT+iZZisiQDcA3gn8C/Y4JbXDD4A3AzfkNDIns4iDgHOB3YG5mW1JUlUeBxxJ6PT9HBhNaSS1B7oYOIEQoJLUZr8FXgtcGXtgSg90R+ASYLeEYyWpaTYGXgfcAlwVc2BsgL4YOA/YJPI4SWqyucB+hGc6FwJjvRwUcwn/WuDL5N83laQm+w7wT8Cq2XbsNUAPAk7F8JQ0GH4E7A8sm2mnXgL0lcDXMTwlDZbzgH2B1dPtMFsoPgU4G5hfYFGS1AbbAtsQMnA89uAtgds7B+Zu9wFHYy9WUvl2B35HMdk1Drw3toC5wOUFffg5hIlFJKkqcwmjI+8jP8NGgT1jPvxDBXzoDcAe8ectSYXZFDiF8FpSTp7dBTyqlw98OjCS8UFjhFFKa2ectCQVaU/gZvJC9MzZPmQY+J+MD7gTe52SmmkD4ALyQnT/mT7gkIyGbyUM85SkppoLnER6zv0ZWKtbw/MJIZjS6I3A3xV7npJUiiHCwKDUED2qW6MHJza2HHhywScoSWWaR/rl/M10eTf+qsTGDivn/CSpVOuT/mDp0MkNPSWxkYvLOzdJKt2epL3idC3hoTsAxyU0MALsVPLJSVLZTiWtA7nvRAMpo45OLPusJKkCmwJLic/ASycauCvywOXAFqWfliRV462k9UJZlHDQJ6s5J0mqxFzgahICdMfIAx4grCEiSf3khSQE6B6RB7y/qrORpIrFzgPCARE73wusV9mpSFK1ogJ0GFgnovFbgfuLrFaS2mqY8BCpVzGreEpSX4sNUElShwEqSYli74F6CS9JHfZAJSnRMHFrF9kDlaSOYcLEopKkSMPAnIj97YFKUscwYRC9JClSbIDaA5WkDnugkpTIHqgkJbIHKkmJ7IFKUiJ7oJKUyACVpES+SC9JieyBSlIiHyJJUiJ7oJKUaLiz9coeqCR1xAaoJKkjNjztgUpSxzCGoiQliQ1Qw1aSOrz/KUmJ7IFKUiLvgUpSIp/CS1Iie6CSlMgAlaREXsJLUiJ7oJKUyNeYJCmRL9JLUiJ7oJKUyHugkpTIp/CSlMgeqCQl8h6oJCXyKbwkJbIHKkmJvAcqSYm8hJekRHMj97e3qjbbANge2AKYD6wNrNf59bqzHHsdcEqp1al15uI9UA2GhcAvgW0y2lgAnFhMOeoXdwPjPW531lSjVITHAnfQ+9/3qdso8IrKq1aVRoj7O8E9ETsboGq7XYAHSQ/RlcDulVetqpQaoHdVdx5SaV4CrCY9RJcC/1B51apCdIDeG7GzAap+8QbSA3TiauxxlVetskUH6JKIne+u7jyk0n2YvBD9I7Bp5VWrTAao1KMh4MvkhehvgPWrLlyliQ7Q+yJ2vqe685AqMQ84j7wQ/S/CK05qv+gAXRqxswGqfrQ2cBl5IXo2MKfqwlW4UgP03urOQ6rURsAfyAtRX7Jvv+gAvT9iZwNU/Wwb4HbyQvR9lVetIkUH6AMROy+p7jykWjyVvBftx4FjKq9aRTFApUx7k/eivUM+2ys6QGN+2hqgGhSHkdcLdchnO0UH6EMRO99X3XlItfsAeSG6FHhS1UUriwEqFehz5IXoncC2lVetVNEBuixi56XVnYfUCHOAs8gL0RtwyGdbRAfo8oidDVANooXAz8gL0V/jkM82KDVA76/uPKRGWUwIwZwQvYiwfIiaKzpAV0TsbIBqkG0O3EheiH4Xh3w2WXSArozY+YHqzkNqpB2Im4S82/b5yqtWrwxQqWRPI3+00r9WXrV6ER2gqyJ2frC685AaLXe00jhwdOVVazbRARrzl8AAlR52EDBGeoCOAC+vvGrNJCpAhwg90Hk9Nr4MWFRwwW3xD8Ar6y5Cya4GvlZCu+8CPppx/ApgD+CSYspRphEiH/LFJO5DRVbaMkOEm/85l2xu9W3fWvN/aWGOz6zNIZ/NEX0JPxqx8yAHKIQQPZH6w8AtfiszQIeAr2TWdyuwdYk1qjelBuiy6s6jsYaAL1J/ILjFbWUGKITbYOdn1ngDsEnJdWpmUQE6TAgE9W4cOAr4at2FqFFWE+YA/VVGG9sAPwDWLaQilW44cn/DNhgDDgFOq7sQNcoDwIuB6zLaeAphgTqHfLaAAZpuFHg98I26C1Gj3EV4R/T2jDaeD5xK/L9P1SDmHs2KmmpssrnAGdR/j89t5q3se6BTPYm4FW+7bZ+puGYlPESK2dkA7W4O8HXqDwm36beqAxTgucRN1tNte3fVRQ+4UgN0ZXXn0TrzgO9Qf1C4dd/qCFAIgy9i3nSZuo0Bh1Ze9eAyQGs0jzBdWd1h4bbmVleAAhw5Q129bCPAAZVXPZhKDdBV1Z1Ha60FfI/6A8Ptb7c6AxTgw+TVvxzYtfKqB0/0WPjxiMZXEwJCM5tPeFfUV1Ga4/eEH2x1GQJOIiyXnGoJ8BzCuH6VI3osfMxPwdVFVioNmCIWqLsF2KriugdJqZfwBqiUZyFh5qWcEL0eh3yWpdQAHanuPKS+tRi4irwQ/SWwTtWFDwADVGqBzchfoO4neJ+9aNEBGjOjtgEqFWdb4A7yQvQbOOSzSKUG6Gh15yENhF0Ik5DkhOjnKq+6fxmgUsvsRdzijt22Yyuvuj+VOqHyWHXnIQ2UV5O3QJ1DPothgEot9U7yeqEjwP6VV91fSg3Q8erOQxpInyIvRJfhkM8cBqjUYkOEyZRzQvQ+YOeK6+4X0QEafYCkUs0DziMvRB3ymab0AHVZD6l8awO/IC9Erwc2rrrwljNApT6xIWEWqZwQvQKHfMYoPUAd9SBVZ2vgVvJC9EIc8tmr6ABdHXlA1Fx5krLtTHgwlBOip+HVYy8MUKkPPYcwK31OiP5b5VW3jwEq9al9iP8HPnV7a+VVt0t0gMaOwTVApfocQV6AjgGvq7zq9ig9QOdWdiqSuvkgeSG6Ctij8qrbwQCVBsBnyQvRh4CnV15185UeoPMqOxVJ05kDnEleiN4FbFd14Q0XHaArIw8wQKVmWAD8lLwQ/SOwadWFN1jpAeq68FJzrAdcSV6I/gZYv+rCGyoqQIeAFcSNUlhACN0qLSIE9zBhRcNu35tsLrBul3bWY+a3COZ09inKfMKY5qJ0O1c1x5XAGTV87ubApcCWGW38hIdnxh9kI0S+abSCuJ9WVQwJm09YtjW2d+zmVud2GvXZnnBPM6d+F6iL7IE29Q9rJfB/CEVKmt3vCT3IBzPaOJDwdF89GiY+pKoaT3spcBguIyL16pfAPxJGF6Z6I2FpEfVgmGZPMHA6cEzdRUgtci5wMHlXbx8DDimkmj7X5B7ohM8D7634M6U2+zp5yxwPAScB+xVTTn+LneFlYT1l8omIGt3c6tjqfIjUTREL1D2z8qrrFf0QaTzyA+q65D+W8FNRUm/eRuiNploIfA9HK02r6fdAJxsHjgS+UHchUkuME+6Hnp/RxoaEGe0fXURB/SalB1qnccJTQnuiUm9WAwcAl2W0sQXh4dQGhVTUR1LeA627xzoOHAV8teY6pLZYRpiM+bqMNnYEvksYiaiOpr5IP5sxwmsWTbtpLzXV3cCLgdsy2ngOYaiqk6p3tOkh0lSjwOsJ74pKmt2fgRcBSzLa2Af4XDHltF/K5MhNCVB4OET/mzDRhlSna+ouoAe/BfYnPFhKndfiCOBm4Liiimqzh4h7N6zbLEeS2qWIBereVHnV5YueD9QAlQZT7gJ1I4TebD+JDtAHIw8ocr5MSfXKXaBuGfDsyqsujwEqKUruAnX3ATtVXnU5Sg/QqTPCS2q3Ihaou5m8GfGbIjpAH4g8wACV+s8C4BLyQvQa4BFVF16w0gPUxaek/rSY/AXqLqfdrxQaoJKSbUZ44T4nRM8h7R3zJjBAJWV5LHAHeSF6cuVVFyM6QO+PPMAZWaT+91TiO1dTtw9WXnU+A1RSIV5I/tLi/1x51XlKD9C2P2WT1LtXE2Y/Sw3QUeDllVedzgCVVKh3kNcLXUnozbZBdIAujTzgkZWdiqSmyF2gbinw95VXHS86QO+LPGDDyk5FUlMMA18jL0RvofmjlUrvgRqg0mCaB1xAXoj+jmbfBrQHKqk065E/WukSmru2UukBulFlpyKpiTYDbiQvRL9HM9dWMkAllW4H4F7yQvTzlVc9u9IDdOPKTkVSk+0GLCcvRN9SedUziw7QJZEHGKCSJryC8LJ8aoCOAa+pvOrpGaCSKvVG8nqhTXrRvvQA3aSyU5HUFseTF6JLacayINEBGnsj2ACVNNUQcBp5IXoz8OiqC58iKkCHCAEaM8PSZsBtBRbcFs8ADq67CCnBJYRRRGVbAPyI8HAp1W86xy8tpKJ4I0S+XnUPcT8lHlVgsW0yBJxA3k9YN7c6ti9QnQ2A32bW+xNgrQprniyqBzqc8AFDxdTZOuPAMcCJdRciNdgSYC/CuPdUzwdOKqaccqUE6CAbB95EM18AlpriL8AehHfMU70OeGcx5ZTHAI03DhyNPVFpJtcALyO8opTqY8AriymnHF7Cp5noiVZ5b0lqm4sJD17HEo8fAk4lrM/USMOEMIhhgAYTIfqVuguRGuws4IaM4xcCX6ahuWMPNM8YcAjh/TdJa/o48LiM40eAtxLf0auE90DzjQGvB06vuxCpYQ4mf7KQNxMmcW4kA7QYo4S/LFW8rCy1wa7kPyP4EuHd68byHmhxJkL0WzXXIdVtW+BsYH5GGxcCRxZTTnm8B1qsEcI62mfWXYhUk42A88hb9+i3hGnyRgqpqERzsQdatBHgVcC5hEW4pLpdW9HnrA2cA2yT0cYthJFMOS/hV+ou4sapblVLlZKabBj4Dnlj4JcCO1dd+BTR09ndGXnAVlWdiaTW+Ax54bkK2L3yqtdUeoBuXdmpSGqDt5MXnmPAayuvujsDVFJlctdEGgeOrbzq6UUH6B2RBzymslOR1GS7kr8q5xcrr3pmpQdozhM2Sf3h8cRPxj51O4fwJlCTGKCSSrURcD154XkFsKjqwntQeoA+trJTkdQ0awOXkReeN9Dc5dGjA/T2yAO2rexUJDXJXOAH5IXnHTT7KjY6QG+LPCBnaipJ7TQE/Cd54fkgsEvVhUcqvQdqgEqD5zjywnME2LfyquMZoJIKdQR54Tkx8XgblH4Jv11lpyKpbvsQHypTtya9KD8bA1RSIXYj/0X5ti0BXnqAbl/ZqUiqyxOAe8kLz7OBOVUXnik6QG+NPODxlZ2KpDpsAdxEXnheDCyouO4iGKCSkj0S+B154Xk1sEHVhRek9ADdobJTkVSlhcDPyAvPvwKPrrrwAhmgkqLNAc4iLzzvpv3PSKID9JbIA55Q2alIqsoJ5IXnMuCZlVddvNIDdMfKTkVSFT5EXniOAPtVXnU5DFBJPTucvPAcAw6tvOryRAfozZEHPLGyU5FUppcCq8kL0PdUXnW5DFBJs3o68BB54fmFyqsuX1SAzu38IsZwYaWWZ+IdtGFg8ZTvrQ3Mn+a4hUz/8u+CzvcVbwR4oKS2lwMrSmr7AULtZVjS+e9SwmVwlZ4AnEv4t5DqLOBNxZTTXk1bjyTHWsCv8B6t2mV74LoKP+/RwPnkveh+CXAQYTXOgdaG3mSvVhFuiK+suxApwjoVftZiwozyW2S0cQ3hiXtZvf5WGSb+En6ojEIKchlwMNVfEkmpqgrQhYTw3Cmjjb8Ae/Dw7YeBN0yzAzHFN4HDiP/BINWhigCdA5wOPDujjXuAPQmvPaoj5RK+DYF7CvCWuouQelBFgH4a2D/j+OWEy/Zriymnf/TbJfxknwY+VncR0izWLbn99wNHZxw/ChwI/LyYcvpLPwcowLuBz9VdhDSDMnughwMfyGzjKOD7+aX0p356Cj+dY4CT6i5CmkZZAbov+ctpvB84uYBa+tYgBOg4cCRwYt2FSF2UEaBPA75G3nIaJxEmGdH0xvv1IdJU44RRE1+suxBpiqIDdAfCKKNFGW2cg6OMejIoAQohRI/Cy3k1S5EBujkhPB+R0cblhIdGZQ1h7SspD5HabCJEv1p3IVJHUU/hFwM/BLbMaON3wN6EyZHVg36dTGQmY8AhwE9o56qB6i9/LaCNBYTL7p0z69iDsJSxItxI3BRWu9RSpaRuhoEzyZuW7j7yhnj2k5jp7MYA/hxxwDjhCZ+kZvgP8sJzGXlDPPtN6QH69MpORdJM3k9eeI6QN8SzHxmg0gCYmDAnZ8sZ4tmvogP0TxEHjAPPqOxUJHXzEvLXMvpA1UW3REyAjoIBKrXJ04AHyQtP34WeXukB+szKTkXSZDsQ5uXMCc9z6K+lfIoWHaB/jDhgHHhWZaciacIWwE3khefPcWHE2UTdA+336eykfrABcB7wdxlt/A7YhzA5sgrSj0t6SP1kIfA98labvQXYC0cZFW180MbCS20ysZbRrhltLCWE502FVKQ13EDcfZSc/5mSejNEmMw4556no4ziRT9Eig3Q3So7FWlwHUdeeI4AL6u86vaLDtDrIw4wQKXyHUleeI4Bh1ZedX8oPUCfU9mpSINnP+L+EXfb3lV51f0jOkD/EHGAASqV57nACvLC01Vo88QE6AjEB+hzqzoTaYA8EVhCXnh+g/ZPeF630gP0eZWdijQYHgPcRl54XgTMr7rwPhQVoL4HKtVrQ8JCcJtmtPEbwhP3lYVUpJ4N0qqcUtOsC5wPbJfRxh8JaxktLaQiRfF+iVSPecC3gSdntHEXYZTR7YVUpGhOJiJVbwj4T0LPMdX9wJ6EZxiq0e+Ju1n9wnrKlPrG8eQ9MFoJ7F551YMh+im8ASpV513kheco8IrKqx4cUQE6l/hLeO+b9m4XHFLXFL+i/qUsDgY+ktnGPxPunaohriXuJ6CXDnE+Tl6Pw62Y7Vuz/Y8q2d7kLwT3ocqrHjzR74HG8iFSnGOBT9ZdhGq1C3AGeWsRnQy8r5hyVJCkCZUN0HjHAifUXYRqsS3wA2BRRhvnAG8sphwVyfuZ1Rgn3LtyoofBsjnwY2CjjDYuBw6k88RXzeIlfHXGgWOAz9ddiCqxGPghsGVGG9cQXpRfVkhFKlzKJby91nQTIfqlugtRqRYSwnPnjDZuIrxov6SQilSGIXug1RsD3gB8se5CVIqJheCeldHGPcCLCatpqrnGUwLUHmi+ccJDga/WXYgKNUT4wbh/RhvLCOu3X1tIRSqVT+HrMwYcApxWdyEqzHHkDZxYDbwc+EUx5ahs9kDrNQq8nnDJp3Y7Cnh3xvHjwBHAecWUoyoYoPUbJQzx+1rNdSjdfsBnM9t4B3BKAbWoQo6Fb4aJEL0QWKveUvrWn0pq9/nANwkPj1IdD/x7MeWoalcTNx7XmWCkoIiF4L6OnZImiRkLv8r3QKU0jwEuANbPaOMnhHvgY4VUpMp5D1SKtxH5C8H9knDv1IXgWswX6aU46xKelOcsBHcD8FLgwUIqUm28hJd6V8RCcLcS5tS9o5CKVCsv4aXeFLUQ3N7AjUUUpPp5CS/15lPAazOOXwUcAFxVTDlqAi/hpdm9C3hzxvGjwKsJ7/mqz1xF3HtrLpKmQXIQ4TWjnHc9j6m8aqWKeg8U4gP0DZWdilSvIhaCcx2jdokO0CsjDhgHDq/sVKT67EJ4zSgnPL9QedXKFT0SKZb3QNXvdiC865mzENz3gTcVU44aygmVpSk2J4wyekRGGz8F/pHw8Eh9zAmVpYctJoTnlhltXA28DFhRSEVqNHugUrCQsH77Thlt/BkXghsoBqj08EJwz85o427CQnC3FVKRWsFLeA26IheCu66QitQa9kA16IpYCO4A4LJiylGbGKAaZEUsBPcG4PxiylHbOBZeg6qIheDeBnylgFrUUs7GpEH0PPIXgvsEYTE4DTAv4TVodgK+A8zPaONrhBmaNOC8hNcg2Zr8heDOJSwEF/vvRn3IANUgeS+wScbxlxOW9V5dTDlqu7kJx3gPVG11JPBJwqqaG7Lm3/8xYOkMx/+K8M6nBKQFqD1QtdUq4PedTcqVNBuTPVBJwnugkpTMHqgkJfI9UElK5CW8JCXyEl6SEnkJL0mJvISXpDS+BypJqbyEl6REXsJLUqKUAM2ZhFaS+sXQMPH3NA1QSeo8RIrtgc4roxJJapuU+5kGqCSRFqApc4hKUt/xEl6SEnkJL0mJDFBJSpP0FN57oJKEPVBJSmaASlIiL+ElKZGvMUlSopRL+AWFVyFJLZQSoGsXXoUktVBKgC4qvApJaqGUe6D2QCWJ9Et410WSNPBS10TyQZKkQZc0lBO8jJekpHugAOsVXYgktcxQ6gqbmxRahiTVL/rZTmqAPirxOElqqr2IWzRz3ACVpOCdsQek3gPdMuEYSWqqZwC7xh6U2gN9XuJxktREx6YeeCGhFxqzjQJb59UrSY2wAzBGfA4+lNoDHQY+mFezJDXCsWSMrkzpgU70QnfMqVqSarYDMEJaBj6U+hAJQi/0ozmVS1LNPkzcq0uTjUN6D3RiOyC9dkmqzXNIu/c5sT0A8OOMBsaBO4GNSj5RSSrSfOBa8rLv/pRL+Eum/H4j4NNJpyBJ9fgwsP2Ur60GvhvRxjjE90BfBZze5etHpZ2HJFVqb9a8dB8DDibkWK9ZeB/ABREHjAMHEmZj+sOUr68i3FOQpKbaBriXNXPt6M7339jle9NtS1Iu4ceA+4FXAismfX0ecCawbewZSVIFNgbOBzaY8vUPACd0fh3zbnzSZCJjnf9exZqX7RsC/wVsl9CuJJVlMXAe8NgpX/8sfzsoKCpAAX5E3CX8/lMaOb7LPrfjS/aSmmET4P+xZk6dzpqB+eYu+0233Q2hSxsToPtN+cA5wLenaXyP7FOXpHSPA25gzXz6NuG241Rv6bLvdNtdEB+g+3T50HnA97vsOwZ8nPRZnyQp1b7AEtbMpTPpHp4Ab++y/3TbnRAfoC+Z5oPnA2dMc8wFhKdfklS2dYHP0X2U0beAuTMc+44ux0y33QHhxmpMgO41w4cPA5+a5rhlwHuAtXr7M5CkaPsCf6V7Bh3P7OPej53m2G7b7RAfoHv2cBKvAR6c5vg/AUcQeqySVIRnARfTPXNWAof12M67p2mj23YbwLkRB4wDL+qxkCcAv56hnZsJN2w37LE9SZpqN2buBP4ReHZEe++Zoa2p260QH6AvjChmXqeg5TO0two4m/B61KKItiUNpiHgpcClTJ8rY4T7oOtEtv3eGdqcut0y083U6YzNvsv/Wg18hPBw6aPAy1lz5ud5hPsW+3Z+fzPhMv8ewoinie0Bwn3UlZOOvZ8wsTOEE7pv0vdGOsdMWEEI8gkPdurr1VLizl3qZuoomLZYRDOeXzyLsHrmE2bY5wrC0/SpEx/1IupF+rmE4ImREiI3EIZ+7kLokb6E6QvdorP1q9jg1prWwqsVrela4F8JMyrF5tqE6ACNldMLu4LQ09yOMHj/QAbvHmjsJYWkmV0BfJIQnLlXiZWNhc9xHXAMsBnhxfyTCb1USerFOOH5zXOBpwFnUUw2NfISfjqrgXM6G4TZUrYBtgS2AjYlXKotJrwcu86k30OYVm/iva6FwIICa5Pa5gHCvf+6rCQ8pyjbpcC/AVeX0Hbpl/Cp9xZ6cWdnuyyznTmEcJ3OOkw/lCvW5BDvNw8R3pJog6kPGKs2SnioqXYrPUBHZ9+ldqOEMbDTmel7kgZXK+6BSlITGaCSlCg6QOt8iCRJTWIPVJISGaCSlMhLeElKNHWujpnYA5WkSbyEl6REXsJLUiJ7oJKUyB6oJCWyBypJiQxQSUrkJbwkJbIHKkmJDFBJSlT6JXyZM9JLUp3sgUpSoqhMNEAl6WFewktSotIv4Q1QSf3KAJWkRDFLlHsJL0mTRK8L39ZA3Ax4MvAYYAFhrfcbgcuB++srS1KLRQdorDoDd23gcOAQ4InT7DMKXAR8EfgO7f0BIal6UZfwAN/u/KLXbVGBxcbYH7itxxontv8BdqqjWEmtdDG958ulbbgHOgz8O3AWsGnksU8GrgBeU3RRkvpS9EOkWFUH6GeAt2YcPx/4CnBkMeVI6mN99RrTIcDRBbQzBJwAHFBAW5L6V9+8xrQpcHyB7c0BTgO2LbBNSf2lb3qgbwcWF9zmQuB9BbcpqX9E9UCb+hrTAuDQHvZbTXhIdAPh3c+dgd1mOWaPvNIk9bGoHijAN4l7NSgldGPtO0sNNwBvpHsP9bnAn2c5fqsyi5fUWr+h9yy8qKmX8LtO8/UR4N3ADsDngaVd9rkYeBbhD2I6j8opTlLfKv0eaBV27PK1UWA/4GPAqlmOvxV4HnDdNN9fmF6apD5W+lP4KkJ3gy5f+xTww4g27gX2AZZ1+Z4BKqmbmHwbSQnDmIRONbWuVaS90vQH4CNdvj6a0Jak/heTb0kBWkUP9JYpv/9v4I7Etj5D6I1OtjyxLUn9LSZAV6dcwlfRA716yu+vzGjrIeCMLl+TpKliOoijTb2Ev2DK7+/ObO/8Sb8eB67PbE9Sfyr9HmgVl/CXEu5fTlgrs71rJ/36erq//iRJ0QHaxEv4MeATk36/eWZ7k197OjGzLUn9K2agUGOfwgOcCvy88+tnZrY1MXv9NcAXMtuS1L8WROyb1AOt6uX7MeAgwiz02wG7JLazPnBcp529gRWFVCepH82P2LfRPVCAmwihdw/hfc6hhDa+S3gx/wWd9iSpmyHinrc09iHSZFcCzybM4xk7M/3GhHdKn8rfPkiSpKnWIq6TlnQJX8VsTFP9nnAf9AWEiUJ6dSfhNsCdZRT/p/WKAAADxUlEQVQlqa/EXL5DYg907YRjinArsBfw15o+X1J/i3mABC0LUAi95b/U+PmS+ldSDzT2En6dyP0lqQ2SAjT2yXadPVBJKktsgC5P6YEuitxfktog9h7ospR7oAaopH4U2wNd5j1QSQpiO4dJPdCi12qXpCbYOHL/pAB1RUtJ/WjTyP2TLuFzp5aTpCbaJHL/5Sk90G5LDktS2z0+cv+kHuhWwBaRx0hS0z1x9l3+xtKUHugQ8JqE4ySpqbYDtozYfxy4JXVqukOBeYnHSlLTvCpy/3uAFcPAaMKHbQMckXCcJDXNusCbIo+5ZeIXLyB0R2O3O4FHZhYuSXX7CPH5973JDfw4oYFx4NulnpYklevxwEris+8tkxt5KmERt5QQPaTEk5OksiwAriIt93aY2tiZiQ2tIKxZJEltMURYOj0l837arcHtgdWJDd4FPK7oM5SkknyctKwbJywt1NVnMhq9hRDCktRUQ8CnSM+5XzDDJPTrA3dkNH4b8PfFnaskFWZd4AzS822EHvLt4IwPGAceAv4p+1QlqTjPICyPnpNt/7eXDxoCzs78oHHgS/ieqKR6PQo4kTBgKCfPfk3Ekh+PAG7K/MBxwsv2b+20J0lV2QH4D2AZ+Tn2INPM1DTTipzPAi4C1so+FVgO/Ba4r7MtAe7n4WGkSzr/He18HWAV4XbAVEu6fI3Ovqu6fH014Q+gm/sIf0BTLSO8XCspmE/3FXmHCM9OulkXmNvl6wuAhV2+Pkz3FS/WA+Z0fr1B579zOl+HkFGLO99bnzCv5xrvaSYaBw4EvtXtm7Mtafxq4LQe9htkk0M/1oOEgI81AjyQ+JlFmOmHUlstJH5VxiItIq2zMjlIYq2DkwLN5j3AR6f7Zi/B+Hbgk4WVI0ntcDJw+Ew7zJnpmx2/IPxk3LWIiiSpBU4hhGe3W3z/q5cAhXAv9CFgd7ycl9TfTgUOI8wPMqNeAxRCT/SvhGFMMcdJUlt8DPgXZul5TkjpTT6T8Da/6yJJ6herCZMqnxxzUOrl+EbA6cCLEo+XpKa4kTB68vLYA1PXRLoL2JMwF+g9iW1IUt3OAJ5EQnhCeoBCuEdwCmEGpi+TtraSJNXhekIn8EDCgJokOQE64W7CKp2PB75CeMlbkprobsJyHE8EfpTbWBmvJG0NvB54LXHrLEtSWR4AjifMBVrYKL4y3+kcBnbj4Znq1+983uSxs5PHvs4ljJ3tZrpxuFPN1MZkM43frcpahOF7gyZn6GGvJs+z0G9yhg63QRnzUPyMMBzzroLb5f8D7PCyxufo5BMAAAAASUVORK5CYII=" vertex="1" parent="1">
          <mxGeometry x="1009.36" y="600" width="69.36" height="90" as="geometry" />
        </mxCell>
        <mxCell id="4slyxXOM6MHCRde4LKaO-26" value="Splunk Agents" style="text;html=1;align=center;verticalAlign=middle;resizable=0;points=[];autosize=1;strokeColor=none;fillColor=none;fontFamily=Georgia;fontStyle=2;fontSize=18;" vertex="1" parent="1">
          <mxGeometry x="854.36" y="550" width="140" height="40" as="geometry" />
        </mxCell>
        <mxCell id="4slyxXOM6MHCRde4LKaO-30" value="Cluster Manager" style="text;html=1;align=center;verticalAlign=middle;resizable=0;points=[];autosize=1;strokeColor=none;fillColor=none;fontFamily=Georgia;fontStyle=2;fontSize=18;" vertex="1" parent="1">
          <mxGeometry x="575" y="200" width="160" height="40" as="geometry" />
        </mxCell>
        <mxCell id="4slyxXOM6MHCRde4LKaO-31" value="Deployment Server" style="text;html=1;align=center;verticalAlign=middle;resizable=0;points=[];autosize=1;strokeColor=none;fillColor=none;fontFamily=Georgia;fontStyle=2;fontSize=18;" vertex="1" parent="1">
          <mxGeometry x="834.36" y="200" width="180" height="40" as="geometry" />
        </mxCell>
        <mxCell id="4slyxXOM6MHCRde4LKaO-32" value="Heavy Forwarder" style="text;html=1;align=center;verticalAlign=middle;resizable=0;points=[];autosize=1;strokeColor=none;fillColor=none;fontFamily=Georgia;fontStyle=2;fontSize=18;" vertex="1" parent="1">
          <mxGeometry x="190" y="680" width="170" height="40" as="geometry" />
        </mxCell>
      </root>
    </mxGraphModel>
  </diagram>
</mxfile>
